<?xml version="1.0" encoding="UTF-8" standalone="no"?> <!-- Created with Vectornator for iOS (http://vectornator.io/) --><!DOCTYPE svg PUBLIC "-//W3C//DTD SVG 1.1//EN" "http://www.w3.org/Graphics/SVG/1.1/DTD/svg11.dtd">
<svg height="100%" style="fill-rule:evenodd;clip-rule:evenodd;stroke-linecap:round;stroke-linejoin:round;" xmlns:xlink="http://www.w3.org/1999/xlink" xmlns="http://www.w3.org/2000/svg" xml:space="preserve" width="100%" xmlns:vectornator="http://vectornator.io" version="1.1" viewBox="0 0 595.35 419.58">
<metadata>
<vectornator:setting key="DisplayWhiteBackground" value="0"/>
<vectornator:setting key="RulersVisible" value="1"/>
<vectornator:setting key="GridSpacing" value="36"/>
<vectornator:setting key="Units" value="Millimeters"/>
<vectornator:setting key="DynamicGuides" value="0"/>
<vectornator:setting key="SnapToPoints" value="0"/>
<vectornator:setting key="CMYKEnabledKey" value="0"/>
<vectornator:setting key="SnapToGrid" value="0"/>
<vectornator:setting key="SnapToGuides" value="1"/>
<vectornator:setting key="ShowGrid" value="1"/>
<vectornator:setting key="SnapToEdges" value="0"/>
</metadata>
<defs/>
<g id="Layer 1" vectornator:layerName="Layer 1">
<path stroke="#000000" stroke-width="1" d="M132.068+78.8783C133.453+127.087+77.5545+209.316+32.4215+148.167C-31.5132+61.543+97.1442-56.3288+164.144+41.781C192.15+82.7907+155.52+158.049+142.75+199.602C126.878+251.248+134.519+301.24+151.905+350.311L146.386+353.395C85.9587+303.088+128.783+196.528+147.869+133.596C158.806+97.5313+172.168+54.9031+134.754+28.2822C62.5009-23.1284+9.87596+72.4065+36.3732+136.055C48.2867+164.672+91.8516+160.486+107.475+137.544C118.465+121.406+123.19+99.1785+123.784+80.2037" fill="#000000" stroke-linecap="butt" opacity="1" stroke-linejoin="round"/>
<path stroke="#000000" stroke-width="1" d="M219.439+42.1874C217.025+73.6948+188.61+227.889+260.752+183.795L262.109+185.71C176.96+270.404+208.637+62.0834+211.471+40.8595" fill="#000000" stroke-linecap="butt" opacity="1" stroke-linejoin="round"/>
<path stroke="#000000" stroke-width="1" d="M279.708+121.494C277.247+139.485+274.561+165.845+280.818+183.372C282.469+187.996+303.191+198.804+304.232+196.089L305.273+198.172C297.607+207.783+276.93+194.131+273.871+184.365C268.282+166.524+271.041+140.425+274.429+122.103" fill="#000000" stroke-linecap="butt" opacity="1" stroke-linejoin="round"/>
<path stroke="#000000" stroke-width="1" d="M324.854+132.922C327.28+141.916+334.521+197.279+347.102+198.987C354.368+199.974+351.394+184.964+353.471+177.932C358.204+161.905+362.332+145.653+365.192+129.189C366.311+122.749+365.561+103.737+368.041+109.786L368.779+109.417C380.676+110.607+361.214+199.755+347.191+205.348C332.151+211.347+319.472+143.002+318.248+134.023" fill="#000000" stroke-linecap="butt" opacity="1" stroke-linejoin="round"/>
<path stroke="#000000" stroke-width="1" d="M391.397+153.051C399.768+151.081+410.53+153.798+416.783+149.51C437.927+135.013+404.078+97.405+395.906+149.5C394.916+155.806+394.33+162.17+393.687+168.521C392.755+177.719+393.753+188.289+400.63+195.298C418.892+213.908+441.149+186.098+446.922+170.522L447.273+170.691C442.274+194.644+416.269+227.957+392.774+197.194C386.574+189.077+386.024+176.943+387.339+167.387C389.748+149.901+388.402+152.604+392.369+142.173C414.53+83.8986+443.402+140.355+419.059+156.337C411.993+160.976+399.984+158.387+391.397+159.87" fill="#000000" stroke-linecap="butt" opacity="1" stroke-linejoin="round"/>
<path stroke="#000000" stroke-width="1" d="M486.714+135.241C490.434+109.063+461.591+126.158+468.549+144.967C474.795+161.85+525.283+175.043+498.08+204.112C480.52+222.877+441.561+214.869+445.681+187.487L446.745+187.323C450.954+208.301+490.215+214.908+496.639+191.56C503.33+167.242+460.168+160.489+461.03+139.662C462.184+111.756+497.865+107.051+492.357+135.241" fill="#000000" stroke-linecap="butt" opacity="1" stroke-linejoin="round"/>
<path stroke="#000000" stroke-width="1" d="M276.915+86.768C265.64+103.219+297.42+86.5812+280.861+80.8928C270.044+77.1767+279.271+96.2573+279.925+95.075C281.35+92.4977+267.646+77.6537+276.252+85.5412C296.325+103.938+254.012+89.1037+282.826+76.1673C289.572+73.1385+294.277+95.7471+283.663+98.933" fill="#000000" stroke-linecap="butt" opacity="1" stroke-linejoin="round"/>
<path stroke="#000000" stroke-width="1" d="M157.916+345.899C133.333+296.115+182.162+238.658+234.526+243.913C316.135+252.104+318.265+351.081+421.08+325.177L421.08+325.177C345.594+384.295+298.051+263.281+234.526+258.197C193.443+254.909+147.904+296.793+169.554+339.434" fill="#000000" stroke-linecap="butt" opacity="1" stroke-linejoin="round"/>
<path stroke="#000000" stroke-width="1" d="M407.982+276.25C399.943+208.317+441.642+248.134+450.246+285.898L441.831+287.105C442.848+290.443+437.938+278.067+437.414+276.485C433.57+264.876+431.793+254.51+419.518+249.14C416.622+247.872+413.804+247.277+410.853+246.258C409.462+245.778+414.446+241.747+413.982+243.144C412.333+248.104+412.856+264.235+413.009+275.2" fill="#000000" stroke-linecap="butt" opacity="1" stroke-linejoin="round"/>
<path stroke="#000000" stroke-width="1" d="M448.11+278.998C464.687+271.445+475.232+269.616+492.479+275.444C502.41+278.8+507.911+293.333+501.698+289.408L501.462+287.758C503.005+286.007+502.829+281.367+500.782+290.15C499.188+296.989+488.229+283.751+481.591+281.462C470.825+277.749+463.094+279.937+452.574+283.982" fill="#000000" stroke-linecap="butt" opacity="1" stroke-linejoin="round"/>
<path stroke="#000000" stroke-width="1" d="M499.809+283.307C527.485+202.449+545.634+284.906+536.815+315.547C528.663+343.871+513.024+353.546+492.243+363.416C487.831+365.511+459.217+370.508+466.621+358.618L468.765+358.839C469.534+363.452+510.917+347.357+520.525+338.514C533.839+326.261+531.371+291.373+529.264+275.197C528.24+267.331+517.258+257.721+522.994+252.241C532.028+243.609+510.186+273.728+504.576+284.894" fill="#000000" stroke-linecap="butt" opacity="1" stroke-linejoin="round"/>
<path stroke="#000000" stroke-width="1" d="M412.153+267.504C413.71+282.159+424.235+315.406+419.258+323.023L419.424+324.177C410.935+327.267+406.611+276.511+408.018+268.097" fill="#000000" stroke-linecap="butt" opacity="1" stroke-linejoin="round"/>
<path stroke="#000000" stroke-width="1" d="M466.987+366.036C458.007+391.302+537.805+374.438+551.002+378.255C561.608+381.322+575.835+383.719+581.477+395.474C586.36+405.646+571.412+408.617+574.579+408.718C577.22+408.803+569.32+409.5+566.825+410.372C563.367+411.58+556.972+412.495+551.002+412.364C534.462+412.003+517.394+412.936+501.032+410.814C452.159+404.478+404.68+408.493+355.286+409.059C328.219+409.37+301.923+396.2+279.499+389.085C271.969+386.696+266.605+383.373+258.857+381.57C255.185+380.715+244.144+379.647+247.851+378.961C253.913+377.839+312.292+396.229+281.53+412.889C271.141+418.516+157.704+416.483+150.403+405.969C135.486+384.488+156.125+373.186+158.419+355.416C160.21+341.544+152.817+339.15+165.467+327.96L167.001+329.056C166.303+330.485+165.241+331.787+164.909+333.341C163.141+341.61+172.006+350.687+168.619+358.434C163.484+370.177+144.932+384.157+155.414+400.958C159.195+407.018+276.371+409.255+283.463+404.096C290.787+398.768+256.627+393.359+244.578+380.115C234.827+369.398+261.56+370.804+259.64+372.962C257.647+375.205+265.412+374.607+268.276+375.503C274.087+377.321+278.93+380.163+284.351+382.003C299.284+387.071+312.754+394.606+329.844+398.039C385.641+409.247+439.812+392.28+494.369+403.754C511.243+407.303+530.516+405.558+547.67+406.203C552.516+406.386+560.078+407.737+564.327+405.664C566.378+404.663+571.657+401.899+570.989+404.081C570.217+406.604+572.922+402.171+573.962+402.745C576.156+403.955+561.931+388.329+551.002+383.699C538.952+378.594+448.34+398.591+463.453+364.27" fill="#000000" stroke-linecap="butt" opacity="1" stroke-linejoin="round"/>
<path stroke="#000000" stroke-width="1" d="M277.615+89.8237C277.041+89.3128+279.813+91.5933+279.045+91.6324C278.253+91.6727+273.864+88.0977+275.605+86.8475C276.919+85.9048+280.027+90.8035+278.41+90.8035C276.979+90.8035+275.932+86.9802+275.061+88.1161C274.688+88.602+276.292+88.1586+276.889+88.293C277.535+88.4384+279.652+91.4972+278.974+92.4344C276.707+95.5654+274.206+90.6777+274.163+90.6485C273.699+90.3293+275.429+92.3383+275.425+91.7746C275.416+90.4771+279.95+93.4189+279.281+92.3074C279.147+92.0855+277.993+91.3709+275.985+90.2104C274.739+89.4907+271.329+87.438+272.764+87.3378C274.513+87.2156+274.352+88.6697+274.588+89.2129C275.215+90.6557+272.184+89.9844+275.804+92.0709C276.373+92.3989+276.265+90.3248+276.911+90.4409C280.837+91.1456+276.375+92.9912+275.892+93.409C274.782+94.3694+281.201+93.4321+280.166+94.4731C279.182+95.4622+276.731+95.7765+277.931+93.6556C278.224+93.1368+279.336+94.6706+278.95+95.1248C277.595+96.719+272.915+91.9573+274.023+90.5571C274.843+89.5213+277.447+89.4614+278.293+90.6449C280.039+93.0882+274.326+91.2883+274.606+91.3049C276.729+91.4308+279.755+93.8758+278.421+94.7595C275.866+96.4526+273.33+91.1624+275.344+89.5335C276.84+88.3235+278.95+92.8745+278.95+92.8745C277.963+92.5627+277.803+92.5735+277.231+91.7649C274.324+87.656+277.143+95.9865+278.881+93.996C279.363+93.443+277.428+94.647+276.724+94.4402C275.87+94.1895+274.187+91.9983+274.413+91.2112C275.347+87.9532+279.923+94.7902+275.314+90.2344C274.741+89.6674+275.583+91.8547+275.966+92.5647C276.865+94.2327+278.975+92.6084+279.358+95.2031C279.469+95.9587+277.629+94.5871+277.523+93.8306C277.415+93.0574+278.798+94.8205+279.562+94.9841C280.338+95.1505+276.423+94.5373+277.216+94.5765C278.053+94.6179+275.629+94.572+275.141+93.4538C275.022+93.1824+275.55+92.3948+275.892+92.2753C276.154+92.1837+276.452+92.3323+276.724+92.2802C276.818+92.2623+276.52+92.0308+276.487+92.1202C276.344+92.501+275.979+93.1588+275.484+93.219C274.547+93.333+273.916+92.2402+273.717+91.4605C273.353+90.0311+274.76+90.0892+274.759+90.1919C274.747+91.5054+273.271+90.984+273.083+90.2449C272.985+89.8605+272.943+89.423+272.854+89.03C272.758+88.6068+272.264+87.9533+272.645+87.7455C273.874+87.0746+281.486+90.0071+279.81+93.0902C278.917+94.732+272.291+92.1731+273.76+90.7723C274.762+89.8168+277.76+92.2123+277.703+92.4344C277.254+94.1666+276.997+85.9549+275.908+87.3749C275.453+87.9678+276.947+88.4556+277.385+89.0603C278.285+90.3004+277.203+91.1201+276.351+88.5095C276.196+88.0333+276.759+87.9333+276.516+87.3378C275.785+85.5407+280.385+92.7302+278.447+92.8287C277.309+92.8866+275.637+90.1615+275.095+89.0612" fill="#000000" stroke-linecap="butt" opacity="1" stroke-linejoin="round"/>
<path stroke="#000000" stroke-width="1" d="M392.089+157.548C391.828+156.2+393.67+153.433+392.296+153.433C391.342+153.433+393.951+156.755+393.217+156.145C391.307+154.558+392.715+152.215+394.464+152.7C396.668+153.311+393.821+157.229+393.556+159.5C393.513+159.862+393.928+160.687+393.576+160.593C390.831+159.864+393.981+153.394+393.742+151.387L395.118+151.387C394.858+153.574+394.757+159.864+392.011+160.593C390.651+160.954+392.188+157.778+392.436+156.392C392.515+155.954+392.731+153.767+393.083+153.433C393.385+153.147+395.204+152.73+393.992+153.726C390.063+156.956+395.672+151.433+392.27+157.91" fill="#000000" stroke-linecap="butt" opacity="1" stroke-linejoin="round"/>
<path stroke="#000000" stroke-width="1" d="M280.109+92.5716C279.485+92.3316+278.191+94.1019+278.301+93.4421C278.505+92.2207+282.853+91.4937+281.69+91.9203C280.464+92.3703+279.516+92.6714+280.144+92.3645C281.82+91.5447+283.016+94.643+278.302+93.3663" fill="#000000" stroke-linecap="butt" opacity="1" stroke-linejoin="round"/>
<path stroke="#000000" stroke-width="1" d="M395.453+153.206C395.103+155.273+394.305+162.618+392.519+161.279C391.715+160.676+393.89+154.291+394.501+152.613C396.447+147.269+395.617+161.014+394.042+161.53" fill="#000000" stroke-linecap="butt" opacity="1" stroke-linejoin="round"/>
<path stroke="#000000" stroke-width="1" d="M393.991+155.409C394.044+163.862+394.532+156.868+395.233+150.463L396.025+151.036C394.918+155.967+393.54+164.685+392.997+155.245" fill="#000000" stroke-linecap="butt" opacity="1" stroke-linejoin="round"/>
<path stroke="#000000" stroke-width="1" d="M414.368+244.252C411.489+242.578+411.727+246.229+411.317+248.834C411.109+250.152+411.058+242.852+412.57+246.258C412.968+247.154+411.901+251.334+410.755+251.008C407.188+249.992+412.136+238.323+415.237+241.274C416.791+242.753+413.239+244.058+412.719+245.424C412.198+246.796+412.44+249.867+410.95+248.521C408.173+246.014+416.67+244.676+415.783+245.652C415.284+246.203+413.52+246.405+413.27+246.756C412.993+247.145+413.234+250.66+411.955+250.065C407.774+248.121+415.697+243.465+415.548+242.857C414.364+238.012+411.183+252.097+409.192+249.603L409.735+249.628C407.089+252.349+411.567+242.323+413.595+243.002C414.528+243.315+416.31+243.099+416.343+244.082C416.383+245.232+414.357+245.249+413.312+245.731C412.859+245.941+412.283+248.964+411.713+249.624C411.519+249.849+413.036+243.054+414.805+245.515C414.812+245.526+412.17+249.15+411.135+249.288C409.062+249.564+416.383+240.557+414.038+241.947C412.687+242.748+411.411+245.639+410.948+247.815C410.774+248.631+409.592+250.774+410.204+250.207C411.367+249.13+412.861+247.551+412.455+246.019C412.169+244.937+410.048+249.707+410.339+248.626C410.965+246.301+410.927+241.313+414.536+243.463" fill="#000000" stroke-linecap="butt" opacity="1" stroke-linejoin="round"/>
<path stroke="#000000" stroke-width="1" d="M391.361+155.664C391.115+156.84+390.849+160.421+390.777+159.221C390.636+156.881+390.856+154.625+390.969+152.318C390.971+152.286+390.906+152.011+390.915+152.021C391.521+152.642+390.233+156.207+390.03+157.107C389.851+157.902+390.122+160.189+389.655+159.521C388.81+158.315+389.965+155.269+390.04+153.7C390.049+153.51+390.332+150.697+390.479+150.824C392.132+152.264+387.316+161.008+389.692+162.95C390.83+163.881+390.405+160.098+390.768+158.673C391.336+156.444+391.352+154.099+391.8+151.835C391.95+151.078+391.524+149.08+392.14+149.544C393.155+150.31+391.728+163.362+390.413+163.314L390.36+163.114C390.299+163.218+390.71+161.51+390.719+161.467C390.928+160.5+390.992+159.527+391.087+158.543C391.179+157.584+390.871+150.102+392.695+149.659C392.82+149.629+392.636+149.909+392.609+150.035C392.337+151.323+391.921+152.856+391.866+154.176C391.814+155.436+391.509+162.977+389.229+163.214C388.955+163.242+388.924+162.03+388.936+161.888C389.148+159.449+388.096+151.973+390.913+151.076C391.938+150.75+390.583+153.204+390.346+154.254C390.072+155.468+390.363+158.757+389.255+159.439C388.561+159.866+389.467+157.822+389.617+157.022C389.811+155.995+390.098+151.887+391.37+151.9C391.54+151.902+391.316+152.805+391.294+152.91C390.842+155.027+389.353+163.509+390.976+155.612" fill="#000000" stroke-linecap="butt" opacity="1" stroke-linejoin="round"/>
<path stroke="#000000" stroke-width="1" d="M257.468+380.097C256.791+379.784+247.393+375.788+249.685+378.562C251.053+380.217+254.392+380.029+255.741+381.487C256.172+381.952+250.29+379.821+249.44+379.378C248.715+378.999+246.434+378.24+247.251+378.271C249.089+378.339+255.876+379.663+257.021+381.047C257.189+381.25+248.151+377.729+248.116+377.741C246.436+378.311+251.579+378.516+253.297+378.963C255.579+379.557+260.29+379.856+262.604+381.704C262.733+381.808+263.059+382.05+262.902+382.102C259.337+383.282+254.812+379.54+251.973+377.603L252.14+377.34C255.431+379.062+260.161+379.87+262.484+382.659C263.233+383.557+260.446+381.45+259.313+381.159C256.484+380.434+253.571+379.979+250.824+378.988C249.87+378.644+247.365+377.011+248.361+377.201C250.348+377.58+252.156+379.103+253.765+380.185C261.552+385.42+247.041+378.252+247.59+377.762C247.976+377.418+253.631+381.148+254.238+381.518C254.635+381.759+255.82+382.48+255.463+382.182C253.871+380.853+251.284+380.664+249.572+379.309C245.306+375.931+256.193+379.018+257.554+379.754" fill="#000000" stroke-linecap="butt" opacity="1" stroke-linejoin="round"/>
<path stroke="#000000" stroke-width="1" d="M523.765+254.593C524.347+256.503+519.388+255.981+521.407+257.471C522.828+258.52+523.15+254.001+522.626+252.314C522.143+250.758+523.101+258.711+522.497+257.198C522.297+256.697+522.843+253.497+522.871+253.515C524.254+254.386+523.681+259.349+522.329+258.337C521.651+257.829+528.108+254.53+523.894+254.621C519.622+254.714+522.712+258.03+522.732+258.017C522.79+257.976+524.854+251.189+522.652+256.488C522.393+257.112+522.487+257.656+521.616+257.198C520.055+256.378+521.08+251.939+522.839+252.052C524.711+252.172+521.68+257.805+520.023+256.926" fill="#000000" stroke-linecap="butt" opacity="1" stroke-linejoin="round"/>
<path stroke="#000000" stroke-width="1" d="M521.695+255.858C525.862+249.915+520.617+254.992+520.751+254.672C520.923+254.26+523.248+253.291+522.687+252.468C522.391+252.034+520.163+252.098+520.147+252.248C520.007+253.586+522.585+253.248+522.602+253.099C522.715+252.138+521.986+256.855+521.6+255.812C520.673+253.303+523.028+250.434+522.804+252.629C522.646+254.176+520.207+254.211+519.893+252.835C519.577+251.453+521.611+251.541+522.461+251.885C523.716+252.393+519.52+256.368+520.517+255.452C520.625+255.353+523.903+250.962+523.874+252.362" fill="#000000" stroke-linecap="butt" opacity="1" stroke-linejoin="round"/>
<path stroke="#000000" stroke-width="1" d="M448.787+281.662C449.124+281.481+458.24+276.844+457.243+279.275C456.389+281.356+449.46+283.935+447.947+284.756C447.818+284.826+447.562+285.196+447.647+285.077C448.974+283.228+450.915+283.31+452.64+282.052C453.156+281.676+453.932+280.063+453.996+280.698C454.323+283.935+450.562+283.846+448.276+285.469C447.96+285.693+452.551+281.619+452.88+282.352C453.817+284.44+448.598+284.917+448.419+285.195C447.127+287.206+452.421+281.294+455.402+280.636L455.883+281.598C454.743+280.916+450.089+288.12+447.642+284.78C446.55+283.29+454.724+284.065+453.005+283.39C451.852+282.939+449.49+287.297+447.387+285.123C447.039+284.764+448.259+284.137+448.276+284.132C448.75+283.984+453.898+280.34+454.833+281.536C454.999+281.748+448.902+288.773+447.063+283.91C446.814+283.252+455.687+278.944+457.119+279.714C457.749+280.053+455.734+280.097+455.08+280.389C453.224+281.219+451.455+282.174+449.606+283.028" fill="#000000" stroke-linecap="butt" opacity="1" stroke-linejoin="round"/>
<path stroke="#000000" stroke-width="1.58" d="M504.263+283.688C506.974+287.557+502.361+294.583+497.829+292.263C494.538+290.58+493.601+283.854+492.36+280.818L493.216+280.298C500.523+288.178+500.582+295.812+503.093+283.521" fill="#000000" stroke-linecap="butt" opacity="1" stroke-linejoin="round"/>
<path stroke="#000000" stroke-width="1.58" d="M450.901+280.933C448.171+282.379+448.176+283.838+446.337+283.756L446.337+283.756C444.78+281.489+447.971+280.322+450.15+280.031" fill="#000000" stroke-linecap="butt" opacity="1" stroke-linejoin="round"/>
<path stroke="#000000" stroke-width="1.58" d="M442.14+284.14C442.637+284.771+444.391+286.35+443.666+286.004C443.054+285.712+445.021+285.532+445.431+284.991C446.131+284.067+450.039+281.26+450.083+281.897L451.943+282.743C451.959+285.35+443.94+289.587+441.789+287.249C441.116+286.518+440.872+284.959+440.91+284.01" fill="#000000" stroke-linecap="butt" opacity="1" stroke-linejoin="round"/>
<path stroke="#000000" stroke-width="1.58" d="M463.508+366.019C464.186+365.023+466.323+361.643+465.613+363.558C465.425+364.067+466.171+361.511+466.232+362.051C466.364+363.215+466.028+366.545+466.631+365.541C466.705+365.418+466.285+367.06+466.034+366.905C462.347+364.644+465.383+361.261+467+359.959C467.554+359.513+466.406+361.461+466.758+362.08C466.983+362.474+468.363+362.204+468.044+362.525C467.379+363.194+466.334+365.736+465.996+366.782C465.711+367.667+464.212+366.195+463.429+365.694C463.42+365.688+464.434+362.055+465.873+360.795C466.631+360.13+466.024+360.299+466.712+361.147L467.815+361.698C468.509+362.954+467.637+365.884+466.215+365.694C465.319+365.574+462.906+366.393+463.501+365.711C464.354+364.732+466.242+357.519+468.683+360.155C469.537+361.076+466.948+366.104+466.551+366.016C464.445+365.552+463.633+364.008+463.619+365.694C463.617+366.014+464.064+364.506+463.885+364.771C463.506+365.333+464.529+363.579+464.865+362.991C465.328+362.179+466.181+361.224+467.111+361.314C471.547+361.739+465.672+367.959+466.137+366.895" fill="#000000" stroke-linecap="butt" opacity="1" stroke-linejoin="round"/>
<path stroke="#000000" stroke-width="1.58" d="M574.946+402.053C575.461+403.663+574.217+405.204+572.75+406.278C567.903+409.827+573.56+399.769+574.327+400.405C576.232+401.984+572.797+404.771+571.562+405.552C570.982+405.918+568.875+406.111+569.548+405.979C570.081+405.874+573.656+403.011+574.786+401.94C576.223+400.578+570.39+406.593+569.702+406.129C567.2+404.44+574.124+402.306+574.933+401.274C575.408+400.667+574.218+402.642+573.789+403.282C572.694+404.914+572.561+406.954+570.419+405.588C569.946+405.286+571.505+405.207+571.921+404.832" fill="#000000" stroke-linecap="butt" opacity="1" stroke-linejoin="round"/>
<path stroke="#000000" stroke-width="1.58" d="M574.548+407.371C573.672+407.827+576.278+406.313+576.86+405.515C577.5+404.637+577.723+402.009+577.364+401.472C577.055+401.01+577.426+400.778+577.823+401.22L578.809+399.987C582.292+401.767+577.358+408.483+574.72+408.747" fill="#000000" stroke-linecap="butt" opacity="1" stroke-linejoin="round"/>
<path stroke="#000000" stroke-width="1.58" d="M166.382+329.766C168.339+331.412+169.594+340.203+169.687+347.497C169.717+349.775+168.882+352.47+168.135+354.645C167.748+355.771+166.96+359.13+166.782+357.952C166.493+356.04+165.971+354.84+164.131+356.064C163.991+356.156+164.336+355.8+164.431+355.662C165.364+354.301+164.901+353.604+165.545+352.088C166.532+349.764+165.337+344.445+169.123+344.863C171.523+345.128+168.32+354.823+167.851+355.943C167.813+356.034+166.458+354.272+166.32+353.912C165.667+352.214+165.918+343.171+165.399+340.553C164.86+337.84+161.753+332.893+162.556+330.137C162.819+329.237+163.804+327.835+165.239+328.183C171.614+329.732+169.311+350.473+168.821+351.942C168.791+352.033+168.397+354.153+168.478+354.21C168.555+354.263+165.338+352.287+165.555+349.719C165.96+344.917+165.786+339.544+164.449+334.917C161.148+323.49+159.761+323.789+158.822+314.053L161.1+313.445C164.606+321.818+167.246+325.162+168.25+333.967C168.573+336.794+171.087+356.408+166.767+355.741C163.228+355.195+166.059+346.417+165.902+343.717C165.673+339.747+164.236+335.048+164.259+331.321C164.26+331.107+164.847+331.47+164.898+331.262C164.963+331.005+165.25+330.856+165.362+330.615C165.454+330.418+165.431+330.184+165.435+329.966C165.454+329.061+165.793+331.784+166.285+332.543C167.48+334.386+167.606+336.095+168.334+338.04C169.798+341.954+171.593+351.759+169.157+355.804C165.107+362.531+163.978+347.977+169.129+345.017C169.291+344.924+169.601+346.922+169.592+347.081C169.535+348.062+168.151+363.77+163.655+358.942C161.846+357.001+165.406+350.769+165.746+348.608C166.837+341.677+164.663+331.08+164.652+331.064" fill="#000000" stroke-linecap="butt" opacity="1" stroke-linejoin="round"/>
<path stroke="#000000" stroke-width="1.58" d="M259.624+373.262C261.005+373.3+265.499+375.064+265.861+376.225L265.213+377.846C264.071+378.365+260.532+374.852+259.624+374.548" fill="#000000" stroke-linecap="butt" opacity="1" stroke-linejoin="round"/>
<path stroke="#000000" stroke-width="1.58" d="M282.841+95.1659C282.314+95.6726+282.486+96.5784+282.499+95.5374C282.504+95.1358+282.067+96.7827+281.779+96.5032C281.288+96.0277+280.031+95.1115+279.468+95.5171C278.322+96.3431+282.112+97.7166+281.421+95.2429C281.235+94.5786+279.522+94.0695+279.411+94.7503C279.193+96.0851+284.07+97.1286+283.255+96.0498C282.988+95.6965+282.103+96.289+281.985+96.9476C281.706+98.4974+279.271+95.329+278.044+94.3431C277.527+93.9286+279.708+94.2043+279.974+94.8105C280.253+95.4444+280.455+96.011+279.575+96.9473C278.807+97.7638+275.136+92.6571+274.882+92.1431C274.477+91.327+273.262+88.9399+273.894+89.5957C275.617+91.3839+275.65+89.3176+276.718+89.9694C280.534+92.3001+280.243+94.8322+282.698+95.0205C282.948+95.0396+283.356+98.2095+283.356+98.2095C279.841+99.1891+269.054+90.6114+274.972+87.8169C277.202+86.7637+279.111+96.6082+279.221+97.1618C279.287+97.4915+275.788+95.21+277.648+93.048C278.646+91.8875+283.62+94.2399+284.375+96.29C286.118+101.017+276.371+97.8793+278.6+94.2664C280.347+91.4347+282.13+95.4019+282.493+96.7424C283.507+100.49+274.914+93.3978+280.339+93.7751C287.625+94.2818+279.966+100.783+280.769+95.3037" fill="#000000" stroke-linecap="butt" opacity="1" stroke-linejoin="round"/>
<path stroke="#000000" stroke-width="1.58" d="M354.634+183.779C353.872+186.731+350.423+193.094+350.696+195.28C350.722+195.488+349.682+197.925+349.528+198.132C349.151+198.644+348.278+200.338+348.507+199.745C349.991+195.899+354.229+187.976+354.245+182.319C354.246+182.167+354.642+179.637+354.413+179.637C353.857+179.637+355.474+180.042+355.886+180.415C356.538+181.007+355.55+182.148+355.285+182.988C355.013+183.854+351.42+194.091+350.218+192.012C349.081+190.045+353.578+177.422+355.094+178.486C355.166+178.537+354.514+181.331+354.474+181.63C353.999+185.179+349.992+199.487+344.986+199.313L344.691+198.428C346.163+198.327+350.921+186.459+351.641+184.857C352.351+183.277+352.642+181.305+353.018+179.586C353.187+178.812+355.588+177.882+354.808+178.022C353.488+178.26+355.148+180.744+354.829+182.047C354.134+184.886+352.957+190.513+350.12+191.325C349.71+191.442+350.595+190.608+350.752+190.211C351.246+188.965+351.699+187.667+352.159+186.406C352.576+185.26+353.431+180.098+354.176+179.845C354.748+179.651+356.582+179.637+355.978+179.637C355.007+179.637+355.814+181.573+355.816+182.544C355.823+185.747+350.731+201.223+347.306+199.199C347.127+199.094+347.776+198.197+348.068+197.498C349.26+194.65+351.721+188.44+353.455+183.386" fill="#000000" stroke-linecap="butt" opacity="1" stroke-linejoin="round"/>
<path stroke="#000000" stroke-width="1.58" d="M163.063+319.108C163.342+320.662+165.819+331.962+163.552+329.666C162.752+328.854+160.112+315.132+163.448+317.984C164.643+319.005+167.604+337.466+168.004+340.155C168.278+341.996+167.184+344.166+167.726+345.916C167.895+346.464+165.793+345.343+166.262+345.014L167.388+345.014C168.11+345.522+165.912+346.335+165.908+345.465C165.875+339.343+161.152+322.771+162.077+318.326C162.563+315.99+167.17+328.953+163.569+330.343C162.429+330.783+162.941+327.953+162.948+326.732C162.962+324.507+162.358+321.736+162.01+319.459" fill="#000000" stroke-linecap="butt" opacity="1" stroke-linejoin="round"/>
</g>
</svg>
