<?xml version="1.0" encoding="UTF-8" standalone="no"?> <!-- Created with Vectornator for iOS (http://vectornator.io/) --><!DOCTYPE svg PUBLIC "-//W3C//DTD SVG 1.1//EN" "http://www.w3.org/Graphics/SVG/1.1/DTD/svg11.dtd">
<svg height="100%" style="fill-rule:evenodd;clip-rule:evenodd;stroke-linecap:round;stroke-linejoin:round;" xmlns:xlink="http://www.w3.org/1999/xlink" xmlns="http://www.w3.org/2000/svg" xml:space="preserve" width="100%" xmlns:vectornator="http://vectornator.io" version="1.1" viewBox="0 0 411.075 419.58">
<metadata>
<vectornator:setting key="DisplayWhiteBackground" value="0"/>
<vectornator:setting key="RulersVisible" value="1"/>
<vectornator:setting key="GridSpacing" value="36"/>
<vectornator:setting key="Units" value="Millimeters"/>
<vectornator:setting key="DynamicGuides" value="0"/>
<vectornator:setting key="SnapToPoints" value="0"/>
<vectornator:setting key="CMYKEnabledKey" value="0"/>
<vectornator:setting key="SnapToGrid" value="0"/>
<vectornator:setting key="SnapToGuides" value="1"/>
<vectornator:setting key="ShowGrid" value="1"/>
<vectornator:setting key="SnapToEdges" value="0"/>
</metadata>
<defs/>
<g id="Layer 2" vectornator:layerName="Layer 2">
<path stroke="#ffffff" stroke-width="1.58" d="M0.734989+209.578C0.734989+94.2061+92.139+0.678588+204.892+0.678588C317.644+0.678588+409.048+94.2061+409.048+209.578C409.048+324.95+317.644+418.478+204.892+418.478C92.139+418.478+0.734989+324.95+0.734989+209.578Z" fill="#ffffff" stroke-linecap="butt" opacity="1" stroke-linejoin="round"/>
</g>
<g id="Layer 1" vectornator:layerName="Layer 1">
<path stroke="#000000" stroke-width="1" d="M100.963+132.607C101.784+161.191+68.6403+209.947+41.8797+173.689C3.97104+122.328+80.2556+52.4384+119.982+110.611C136.587+134.926+114.868+179.549+107.297+204.187C97.8856+234.809+102.416+264.451+112.725+293.547L109.453+295.375C73.6234+265.547+99.0153+202.364+110.331+165.05C116.816+143.666+124.739+118.391+102.556+102.607C59.7146+72.1239+28.5118+128.769+44.2227+166.508C51.2866+183.476+77.1175+180.994+86.3809+167.391C92.8973+157.823+95.699+144.643+96.0514+133.392" fill="#000000" stroke-linecap="butt" opacity="1" stroke-linejoin="round"/>
<path stroke="#000000" stroke-width="1" d="M152.768+110.851C151.336+129.533+134.488+220.959+177.263+194.814L178.068+195.95C127.581+246.167+146.363+122.648+148.043+110.064" fill="#000000" stroke-linecap="butt" opacity="1" stroke-linejoin="round"/>
<path stroke="#000000" stroke-width="1" d="M188.503+157.874C187.043+168.542+185.451+184.171+189.161+194.564C190.14+197.306+202.427+203.714+203.043+202.104L203.661+203.339C199.115+209.038+186.856+200.943+185.042+195.152C181.728+184.574+183.364+169.099+185.373+158.235" fill="#000000" stroke-linecap="butt" opacity="1" stroke-linejoin="round"/>
<path stroke="#000000" stroke-width="1" d="M215.271+164.651C216.709+169.983+221.003+202.809+228.462+203.823C232.771+204.408+231.008+195.508+232.239+191.338C235.045+181.836+237.493+172.199+239.189+162.437C239.852+158.618+239.407+147.346+240.878+150.932L241.315+150.714C248.37+151.419+236.83+204.278+228.515+207.594C219.598+211.151+212.08+170.627+211.354+165.304" fill="#000000" stroke-linecap="butt" opacity="1" stroke-linejoin="round"/>
<path stroke="#000000" stroke-width="1" d="M254.726+176.586C259.69+175.417+266.071+177.029+269.779+174.486C282.315+165.89+262.245+143.592+257.4+174.48C256.813+178.219+256.465+181.992+256.084+185.758C255.532+191.212+256.123+197.479+260.201+201.635C271.029+212.669+284.226+196.18+287.648+186.945L287.857+187.045C284.893+201.248+269.473+221+255.543+202.759C251.867+197.946+251.54+190.752+252.32+185.086C253.748+174.718+252.951+176.321+255.303+170.135C268.443+135.583+285.562+169.058+271.128+178.534C266.938+181.285+259.818+179.749+254.726+180.629" fill="#000000" stroke-linecap="butt" opacity="1" stroke-linejoin="round"/>
<path stroke="#000000" stroke-width="1" d="M311.243+166.026C313.448+150.504+296.346+160.64+300.472+171.792C304.175+181.803+334.111+189.625+317.982+206.861C307.57+217.988+284.47+213.239+286.913+197.004L287.544+196.906C290.039+209.345+313.318+213.262+317.127+199.419C321.094+185+295.502+180.996+296.013+168.647C296.698+152.101+317.854+149.311+314.588+166.026" fill="#000000" stroke-linecap="butt" opacity="1" stroke-linejoin="round"/>
<path stroke="#000000" stroke-width="1" d="M186.847+137.285C180.162+147.039+199.004+137.174+189.187+133.801C182.773+131.598+188.244+142.911+188.631+142.21C189.476+140.682+181.351+131.88+186.454+136.557C198.355+147.465+173.267+138.669+190.351+130.999C194.351+129.203+197.141+142.608+190.848+144.497" fill="#000000" stroke-linecap="butt" opacity="1" stroke-linejoin="round"/>
<path stroke="#000000" stroke-width="1" d="M116.289+290.931C101.713+261.412+130.665+227.344+161.713+230.46C210.101+235.317+211.364+294.003+272.326+278.644L272.326+278.644C227.569+313.697+199.379+241.944+161.713+238.93C137.354+236.98+110.353+261.814+123.19+287.097" fill="#000000" stroke-linecap="butt" opacity="1" stroke-linejoin="round"/>
<path stroke="#000000" stroke-width="1" d="M264.56+249.634C259.793+209.354+284.518+232.963+289.62+255.354L284.63+256.07C285.233+258.049+282.322+250.711+282.011+249.773C279.732+242.89+278.678+236.744+271.4+233.559C269.683+232.808+268.012+232.455+266.262+231.851C265.437+231.566+268.393+229.176+268.118+230.004C267.14+232.945+267.45+242.509+267.541+249.011" fill="#000000" stroke-linecap="butt" opacity="1" stroke-linejoin="round"/>
<path stroke="#000000" stroke-width="1" d="M288.353+251.263C298.182+246.785+304.434+245.7+314.661+249.156C320.549+251.146+323.811+259.763+320.127+257.435L319.987+256.457C320.902+255.419+320.797+252.668+319.583+257.876C318.638+261.931+312.141+254.081+308.205+252.724C301.821+250.523+297.238+251.82+291+254.219" fill="#000000" stroke-linecap="butt" opacity="1" stroke-linejoin="round"/>
<path stroke="#000000" stroke-width="1" d="M319.007+253.818C335.417+205.875+346.178+254.766+340.949+272.934C336.115+289.728+326.842+295.465+314.521+301.317C311.905+302.559+294.939+305.522+299.329+298.472L300.6+298.603C301.056+301.338+325.593+291.795+331.29+286.552C339.184+279.287+337.721+258.601+336.472+249.01C335.864+244.346+329.353+238.647+332.754+235.398C338.111+230.28+325.16+248.138+321.834+254.759" fill="#000000" stroke-linecap="butt" opacity="1" stroke-linejoin="round"/>
<path stroke="#000000" stroke-width="1" d="M267.033+244.448C267.956+253.137+274.197+272.851+271.246+277.367L271.344+278.051C266.311+279.883+263.747+249.789+264.582+244.8" fill="#000000" stroke-linecap="butt" opacity="1" stroke-linejoin="round"/>
<path stroke="#000000" stroke-width="1" d="M299.546+302.871C294.221+317.851+341.536+307.852+349.36+310.115C355.649+311.934+364.085+313.355+367.43+320.325C370.325+326.356+361.462+328.118+363.34+328.178C364.906+328.228+360.222+328.642+358.743+329.158C356.692+329.874+352.901+330.417+349.36+330.34C339.554+330.126+329.433+330.679+319.732+329.421C290.754+325.664+262.602+328.044+233.315+328.38C217.266+328.564+201.675+320.756+188.379+316.537C183.914+315.12+180.734+313.15+176.139+312.081C173.962+311.574+167.416+310.941+169.614+310.534C173.208+309.869+207.823+320.772+189.583+330.651C183.423+333.987+116.163+332.782+111.834+326.548C102.989+313.811+115.227+307.11+116.587+296.573C117.649+288.348+113.266+286.929+120.766+280.294L121.675+280.944C121.262+281.791+120.632+282.563+120.435+283.485C119.387+288.387+124.644+293.769+122.635+298.363C119.59+305.326+108.59+313.615+114.805+323.576C117.047+327.17+186.524+328.496+190.729+325.437C195.072+322.278+174.818+319.071+167.673+311.218C161.892+304.864+177.742+305.697+176.604+306.977C175.422+308.307+180.026+307.952+181.724+308.484C185.17+309.562+188.042+311.247+191.256+312.338C200.11+315.343+208.097+319.81+218.23+321.846C251.313+328.491+283.433+318.431+315.781+325.234C325.787+327.339+337.214+326.304+347.385+326.687C350.258+326.795+354.742+327.596+357.261+326.367C358.478+325.773+361.608+324.134+361.212+325.428C360.754+326.924+362.357+324.296+362.974+324.636C364.275+325.354+355.841+316.089+349.36+313.343C342.216+310.316+288.49+322.173+297.45+301.823" fill="#000000" stroke-linecap="butt" opacity="1" stroke-linejoin="round"/>
<path stroke="#000000" stroke-width="1" d="M187.262+139.096C186.922+138.793+188.565+140.146+188.11+140.169C187.64+140.193+185.038+138.073+186.07+137.332C186.849+136.773+188.692+139.677+187.733+139.677C186.885+139.677+186.264+137.41+185.747+138.084C185.526+138.372+186.477+138.109+186.832+138.189C187.215+138.275+188.47+140.089+188.067+140.644C186.723+142.501+185.24+139.603+185.215+139.585C184.94+139.396+185.965+140.587+185.963+140.253C185.958+139.484+188.646+141.228+188.249+140.569C188.17+140.437+187.486+140.014+186.295+139.326C185.557+138.899+183.535+137.682+184.386+137.622C185.423+137.55+185.327+138.412+185.467+138.734C185.839+139.59+184.042+139.192+186.188+140.429C186.525+140.623+186.461+139.393+186.844+139.462C189.172+139.88+186.527+140.974+186.24+141.222C185.582+141.792+189.388+141.236+188.774+141.853C188.191+142.44+186.738+142.626+187.449+141.368C187.623+141.061+188.282+141.97+188.053+142.239C187.25+143.185+184.475+140.361+185.132+139.531C185.618+138.917+187.162+138.882+187.664+139.583C188.699+141.032+185.312+139.965+185.478+139.975C186.736+140.049+188.53+141.499+187.74+142.023C186.225+143.027+184.721+139.89+185.915+138.924C186.802+138.207+188.053+140.905+188.053+140.905C187.468+140.72+187.373+140.727+187.034+140.247C185.311+137.811+186.982+142.75+188.012+141.57C188.298+141.242+187.151+141.956+186.733+141.834C186.227+141.685+185.229+140.386+185.363+139.919C185.917+137.987+188.63+142.041+185.898+139.34C185.557+139.004+186.057+140.301+186.284+140.722C186.817+141.711+188.068+140.747+188.295+142.286C188.361+142.734+187.27+141.921+187.207+141.472C187.143+141.014+187.963+142.059+188.416+142.156C188.876+142.255+186.555+141.891+187.025+141.914C187.522+141.939+186.084+141.912+185.795+141.249C185.724+141.088+186.037+140.621+186.24+140.55C186.395+140.496+186.572+140.584+186.733+140.553C186.789+140.542+186.613+140.405+186.593+140.458C186.508+140.684+186.292+141.074+185.998+141.11C185.442+141.177+185.069+140.529+184.951+140.067C184.734+139.219+185.569+139.254+185.568+139.315C185.561+140.093+184.686+139.784+184.574+139.346C184.516+139.118+184.492+138.859+184.439+138.626C184.382+138.375+184.089+137.987+184.315+137.864C185.044+137.466+189.557+139.205+188.563+141.033C188.034+142.007+184.105+140.489+184.976+139.659C185.57+139.092+187.348+140.513+187.314+140.644C187.047+141.671+186.895+136.802+186.249+137.644C185.98+137.996+186.865+138.285+187.126+138.644C187.659+139.379+187.017+139.865+186.512+138.317C186.42+138.035+186.754+137.975+186.61+137.622C186.177+136.557+188.904+140.82+187.755+140.878C187.08+140.912+186.089+139.297+185.768+138.644" fill="#000000" stroke-linecap="butt" opacity="1" stroke-linejoin="round"/>
<path stroke="#000000" stroke-width="1" d="M255.137+179.252C254.982+178.453+256.074+176.812+255.259+176.812C254.694+176.812+256.241+178.782+255.805+178.42C254.673+177.479+255.508+176.09+256.545+176.378C257.852+176.74+256.164+179.063+256.006+180.409C255.981+180.624+256.227+181.113+256.018+181.057C254.391+180.625+256.258+176.789+256.117+175.599L256.932+175.599C256.778+176.896+256.718+180.625+255.09+181.057C254.284+181.272+255.195+179.388+255.342+178.567C255.389+178.307+255.518+177.01+255.726+176.812C255.905+176.643+256.983+176.395+256.265+176.986C253.935+178.901+257.261+175.626+255.244+179.467" fill="#000000" stroke-linecap="butt" opacity="1" stroke-linejoin="round"/>
<path stroke="#000000" stroke-width="1" d="M188.741+140.726C188.371+140.583+187.603+141.633+187.669+141.242C187.79+140.518+190.367+140.087+189.678+140.339C188.951+140.606+188.389+140.785+188.761+140.603C189.755+140.117+190.464+141.954+187.669+141.197" fill="#000000" stroke-linecap="butt" opacity="1" stroke-linejoin="round"/>
<path stroke="#000000" stroke-width="1" d="M257.131+176.678C256.924+177.903+256.451+182.258+255.392+181.464C254.915+181.107+256.204+177.321+256.567+176.326C257.721+173.157+257.229+181.307+256.295+181.613" fill="#000000" stroke-linecap="butt" opacity="1" stroke-linejoin="round"/>
<path stroke="#000000" stroke-width="1" d="M256.264+177.984C256.296+182.996+256.585+178.849+257.001+175.051L257.47+175.391C256.814+178.315+255.997+183.484+255.675+177.887" fill="#000000" stroke-linecap="butt" opacity="1" stroke-linejoin="round"/>
<path stroke="#000000" stroke-width="1" d="M268.346+230.661C266.639+229.668+266.781+231.833+266.537+233.378C266.414+234.16+266.384+229.831+267.281+231.851C267.516+232.382+266.883+234.86+266.204+234.667C264.089+234.065+267.023+227.146+268.862+228.895C269.783+229.772+267.677+230.546+267.369+231.356C267.06+232.17+267.203+233.99+266.32+233.192C264.673+231.706+269.711+230.913+269.186+231.492C268.889+231.818+267.843+231.938+267.696+232.146C267.531+232.376+267.674+234.46+266.916+234.108C264.437+232.955+269.134+230.195+269.046+229.834C268.344+226.962+266.458+235.312+265.277+233.834L265.599+233.849C264.03+235.462+266.686+229.517+267.888+229.92C268.441+230.105+269.498+229.977+269.518+230.561C269.541+231.242+268.34+231.252+267.721+231.538C267.451+231.663+267.11+233.455+266.772+233.846C266.657+233.98+267.557+229.951+268.605+231.41C268.61+231.416+267.043+233.566+266.43+233.647C265.2+233.811+269.541+228.47+268.151+229.295C267.35+229.77+266.593+231.483+266.318+232.774C266.215+233.258+265.515+234.528+265.878+234.192C266.567+233.553+267.453+232.617+267.212+231.709C267.042+231.067+265.785+233.895+265.957+233.255C266.329+231.876+266.306+228.919+268.446+230.193" fill="#000000" stroke-linecap="butt" opacity="1" stroke-linejoin="round"/>
<path stroke="#000000" stroke-width="1" d="M254.705+178.135C254.559+178.832+254.402+180.955+254.359+180.244C254.275+178.857+254.405+177.519+254.473+176.151C254.474+176.132+254.435+175.969+254.441+175.975C254.8+176.343+254.036+178.457+253.916+178.991C253.809+179.462+253.97+180.818+253.693+180.422C253.192+179.706+253.877+177.901+253.922+176.97C253.927+176.858+254.095+175.19+254.182+175.265C255.162+176.119+252.307+181.303+253.715+182.455C254.39+183.007+254.138+180.764+254.353+179.919C254.69+178.597+254.7+177.207+254.965+175.864C255.054+175.415+254.801+174.231+255.167+174.506C255.769+174.961+254.923+182.699+254.143+182.671L254.112+182.552C254.075+182.614+254.319+181.601+254.324+181.576C254.448+181.002+254.486+180.426+254.542+179.842C254.597+179.274+254.415+174.837+255.496+174.575C255.57+174.557+255.461+174.723+255.445+174.797C255.284+175.561+255.037+176.47+255.005+177.253C254.973+178+254.793+182.471+253.441+182.611C253.279+182.628+253.26+181.909+253.267+181.825C253.393+180.379+252.769+175.946+254.439+175.415C255.047+175.221+254.244+176.677+254.103+177.299C253.94+178.019+254.113+179.969+253.456+180.373C253.045+180.626+253.582+179.415+253.671+178.94C253.786+178.331+253.956+175.896+254.71+175.903C254.811+175.904+254.678+176.44+254.665+176.502C254.397+177.757+253.514+182.786+254.476+178.104" fill="#000000" stroke-linecap="butt" opacity="1" stroke-linejoin="round"/>
<path stroke="#000000" stroke-width="1" d="M175.316+311.207C174.915+311.022+169.342+308.653+170.701+310.297C171.512+311.279+173.492+311.167+174.292+312.032C174.547+312.308+171.06+311.044+170.556+310.781C170.126+310.557+168.773+310.107+169.258+310.125C170.348+310.165+174.372+310.95+175.051+311.771C175.151+311.891+169.792+309.803+169.771+309.81C168.775+310.149+171.825+310.27+172.843+310.535C174.196+310.887+176.989+311.065+178.361+312.16C178.438+312.222+178.631+312.365+178.538+312.396C176.425+313.096+173.741+310.877+172.058+309.728L172.157+309.573C174.108+310.594+176.913+311.073+178.29+312.726C178.734+313.259+177.082+312.01+176.41+311.837C174.732+311.407+173.006+311.137+171.376+310.55C170.811+310.346+169.326+309.378+169.916+309.491C171.094+309.715+172.166+310.618+173.12+311.259C177.738+314.363+169.133+310.114+169.459+309.823C169.688+309.619+173.041+311.831+173.401+312.05C173.636+312.193+174.339+312.62+174.127+312.444C173.183+311.656+171.649+311.544+170.634+310.74C168.105+308.737+174.56+310.568+175.367+311.004" fill="#000000" stroke-linecap="butt" opacity="1" stroke-linejoin="round"/>
<path stroke="#000000" stroke-width="1" d="M333.211+236.793C333.556+237.925+330.616+237.616+331.813+238.499C332.656+239.121+332.846+236.441+332.536+235.441C332.249+234.519+332.817+239.234+332.459+238.337C332.34+238.04+332.665+236.143+332.681+236.153C333.501+236.67+333.161+239.613+332.36+239.012C331.958+238.711+335.786+236.755+333.287+236.81C330.755+236.864+332.587+238.831+332.598+238.823C332.633+238.799+333.857+234.774+332.551+237.916C332.397+238.286+332.453+238.609+331.937+238.337C331.011+237.851+331.619+235.219+332.662+235.286C333.772+235.357+331.975+238.697+330.992+238.176" fill="#000000" stroke-linecap="butt" opacity="1" stroke-linejoin="round"/>
<path stroke="#000000" stroke-width="1" d="M331.983+237.543C334.454+234.019+331.344+237.029+331.424+236.84C331.526+236.595+332.904+236.021+332.572+235.533C332.396+235.276+331.075+235.313+331.066+235.402C330.983+236.196+332.511+235.995+332.521+235.907C332.588+235.337+332.156+238.134+331.927+237.515C331.378+236.028+332.774+234.326+332.641+235.628C332.548+236.545+331.101+236.566+330.915+235.75C330.728+234.931+331.934+234.983+332.438+235.187C333.182+235.488+330.694+237.845+331.285+237.302C331.349+237.243+333.293+234.64+333.276+235.47" fill="#000000" stroke-linecap="butt" opacity="1" stroke-linejoin="round"/>
<path stroke="#000000" stroke-width="1" d="M288.754+252.843C288.954+252.735+294.359+249.986+293.768+251.428C293.262+252.661+289.153+254.19+288.256+254.677C288.18+254.719+288.028+254.938+288.078+254.868C288.865+253.771+290.016+253.82+291.039+253.074C291.345+252.851+291.805+251.895+291.843+252.271C292.037+254.191+289.807+254.138+288.451+255.1C288.264+255.233+290.986+252.817+291.181+253.252C291.737+254.49+288.642+254.773+288.536+254.937C287.77+256.13+290.909+252.624+292.677+252.234L292.962+252.805C292.286+252.4+289.526+256.672+288.075+254.691C287.428+253.808+292.275+254.267+291.255+253.867C290.572+253.6+289.171+256.184+287.924+254.895C287.718+254.682+288.441+254.31+288.451+254.307C288.733+254.22+291.785+252.059+292.339+252.768C292.438+252.894+288.823+257.059+287.732+254.175C287.585+253.785+292.846+251.231+293.695+251.688C294.068+251.889+292.873+251.915+292.486+252.088C291.385+252.58+290.336+253.146+289.24+253.652" fill="#000000" stroke-linecap="butt" opacity="1" stroke-linejoin="round"/>
<path stroke="#000000" stroke-width="1.58" d="M321.647+254.044C323.255+256.338+320.52+260.504+317.833+259.129C315.882+258.13+315.326+254.142+314.59+252.342L315.098+252.034C319.43+256.706+319.465+261.233+320.954+253.945" fill="#000000" stroke-linecap="butt" opacity="1" stroke-linejoin="round"/>
<path stroke="#000000" stroke-width="1.58" d="M290.008+252.41C288.389+253.268+288.392+254.133+287.302+254.084L287.302+254.084C286.379+252.74+288.27+252.048+289.563+251.876" fill="#000000" stroke-linecap="butt" opacity="1" stroke-linejoin="round"/>
<path stroke="#000000" stroke-width="1.58" d="M284.814+254.312C285.108+254.686+286.148+255.622+285.718+255.417C285.355+255.244+286.522+255.137+286.764+254.816C287.179+254.269+289.497+252.604+289.523+252.982L290.626+253.484C290.635+255.029+285.88+257.542+284.605+256.155C284.206+255.722+284.061+254.797+284.084+254.235" fill="#000000" stroke-linecap="butt" opacity="1" stroke-linejoin="round"/>
<path stroke="#000000" stroke-width="1.58" d="M297.483+302.86C297.885+302.27+299.152+300.266+298.731+301.401C298.619+301.703+299.062+300.188+299.098+300.508C299.176+301.197+298.977+303.172+299.335+302.577C299.378+302.504+299.13+303.477+298.98+303.386C296.795+302.045+298.595+300.039+299.553+299.267C299.882+299.003+299.202+300.158+299.41+300.525C299.543+300.758+300.362+300.598+300.172+300.789C299.778+301.185+299.158+302.693+298.958+303.313C298.789+303.837+297.9+302.964+297.436+302.668C297.431+302.664+298.032+300.51+298.885+299.763C299.335+299.369+298.975+299.469+299.382+299.971L300.037+300.298C300.448+301.043+299.931+302.78+299.088+302.668C298.556+302.596+297.126+303.082+297.479+302.678C297.985+302.097+299.104+297.821+300.552+299.383C301.058+299.93+299.523+302.91+299.287+302.859C298.038+302.583+297.557+301.668+297.549+302.668C297.547+302.857+297.812+301.963+297.706+302.12C297.482+302.454+298.089+301.414+298.288+301.065C298.562+300.584+299.068+300.017+299.619+300.07C302.25+300.322+298.766+304.011+299.042+303.38" fill="#000000" stroke-linecap="butt" opacity="1" stroke-linejoin="round"/>
<path stroke="#000000" stroke-width="1.58" d="M363.558+324.226C363.863+325.18+363.125+326.094+362.256+326.731C359.382+328.835+362.736+322.872+363.19+323.249C364.32+324.185+362.283+325.837+361.551+326.3C361.207+326.518+359.958+326.632+360.357+326.553C360.673+326.491+362.793+324.794+363.463+324.159C364.315+323.351+360.856+326.918+360.449+326.643C358.965+325.641+363.07+324.376+363.55+323.764C363.831+323.404+363.126+324.575+362.871+324.955C362.222+325.922+362.143+327.132+360.873+326.322C360.593+326.143+361.517+326.096+361.764+325.873" fill="#000000" stroke-linecap="butt" opacity="1" stroke-linejoin="round"/>
<path stroke="#000000" stroke-width="1.58" d="M363.322+327.379C362.802+327.649+364.347+326.752+364.692+326.278C365.072+325.758+365.204+324.2+364.991+323.882C364.808+323.608+365.028+323.47+365.263+323.732L365.848+323.001C367.913+324.056+364.988+328.039+363.424+328.195" fill="#000000" stroke-linecap="butt" opacity="1" stroke-linejoin="round"/>
<path stroke="#000000" stroke-width="1.58" d="M121.308+281.365C122.469+282.341+123.213+287.553+123.268+291.878C123.286+293.229+122.791+294.827+122.348+296.116C122.118+296.784+121.651+298.775+121.546+298.077C121.374+296.943+121.065+296.232+119.974+296.957C119.891+297.012+120.096+296.801+120.152+296.719C120.705+295.913+120.43+295.499+120.812+294.6C121.398+293.222+120.689+290.068+122.934+290.316C124.357+290.474+122.458+296.222+122.18+296.886C122.157+296.94+121.354+295.895+121.272+295.682C120.885+294.675+121.034+289.313+120.726+287.761C120.406+286.152+118.564+283.219+119.04+281.585C119.196+281.051+119.78+280.22+120.631+280.426C124.411+281.345+123.045+293.643+122.755+294.513C122.737+294.568+122.504+295.825+122.552+295.858C122.597+295.89+120.69+294.718+120.818+293.196C121.058+290.348+120.955+287.163+120.163+284.419C118.205+277.644+117.383+277.821+116.826+272.048L118.177+271.688C120.256+276.652+121.821+278.635+122.416+283.856C122.608+285.532+124.098+297.162+121.537+296.766C119.439+296.443+121.117+291.238+121.024+289.637C120.888+287.283+120.036+284.497+120.05+282.287C120.05+282.16+120.398+282.375+120.429+282.252C120.467+282.099+120.638+282.011+120.704+281.868C120.758+281.751+120.745+281.612+120.747+281.483C120.758+280.947+120.959+282.562+121.251+283.012C121.96+284.104+122.034+285.118+122.466+286.271C123.334+288.591+124.398+294.405+122.954+296.803C120.552+300.792+119.883+292.163+122.937+290.408C123.033+290.352+123.217+291.537+123.212+291.631C123.178+292.213+122.358+301.527+119.691+298.664C118.619+297.513+120.73+293.818+120.932+292.537C121.578+288.427+120.29+282.144+120.283+282.134" fill="#000000" stroke-linecap="butt" opacity="1" stroke-linejoin="round"/>
<path stroke="#000000" stroke-width="1.58" d="M176.594+307.155C177.413+307.177+180.078+308.223+180.293+308.912L179.908+309.873C179.231+310.18+177.133+308.098+176.594+307.917" fill="#000000" stroke-linecap="butt" opacity="1" stroke-linejoin="round"/>
<path stroke="#000000" stroke-width="1.58" d="M190.36+142.264C190.048+142.564+190.15+143.101+190.158+142.484C190.161+142.246+189.902+143.223+189.731+143.057C189.44+142.775+188.694+142.232+188.36+142.472C187.681+142.962+189.928+143.776+189.518+142.31C189.408+141.916+188.392+141.614+188.327+142.017C188.197+142.809+191.089+143.428+190.606+142.788C190.447+142.579+189.923+142.93+189.853+143.32C189.687+144.239+188.244+142.361+187.516+141.776C187.21+141.53+188.503+141.694+188.661+142.053C188.826+142.429+188.946+142.765+188.424+143.32C187.968+143.804+185.792+140.776+185.641+140.472C185.401+139.988+184.681+138.572+185.055+138.961C186.077+140.021+186.097+138.796+186.73+139.183C188.993+140.565+188.82+142.066+190.276+142.178C190.424+142.189+190.666+144.069+190.666+144.069C188.582+144.649+182.186+139.563+185.695+137.906C187.017+137.282+188.149+143.119+188.214+143.447C188.253+143.643+186.178+142.29+187.281+141.008C187.873+140.32+190.822+141.715+191.27+142.93C192.303+145.733+186.524+143.873+187.846+141.731C188.882+140.052+189.939+142.404+190.154+143.199C190.755+145.421+185.66+141.216+188.877+141.439C193.197+141.74+188.656+145.595+189.132+142.346" fill="#000000" stroke-linecap="butt" opacity="1" stroke-linejoin="round"/>
<path stroke="#000000" stroke-width="1.58" d="M232.929+194.805C232.477+196.556+230.432+200.328+230.594+201.624C230.609+201.748+229.992+203.192+229.901+203.316C229.677+203.619+229.16+204.623+229.296+204.272C230.176+201.991+232.688+197.293+232.698+193.94C232.698+193.85+232.933+192.349+232.797+192.349C232.468+192.349+233.427+192.589+233.671+192.81C234.057+193.161+233.472+193.838+233.315+194.336C233.153+194.849+231.023+200.919+230.31+199.687C229.636+198.52+232.302+191.036+233.201+191.667C233.244+191.697+232.857+193.354+232.834+193.531C232.552+195.635+230.176+204.119+227.208+204.016L227.033+203.491C227.906+203.431+230.727+196.394+231.154+195.444C231.575+194.507+231.747+193.338+231.97+192.319C232.071+191.86+233.494+191.308+233.032+191.392C232.249+191.532+233.233+193.005+233.044+193.778C232.632+195.461+231.934+198.798+230.252+199.279C230.009+199.349+230.534+198.854+230.627+198.619C230.92+197.88+231.188+197.111+231.461+196.363C231.708+195.683+232.215+192.622+232.657+192.472C232.996+192.357+234.084+192.349+233.725+192.349C233.15+192.349+233.628+193.497+233.629+194.073C233.633+195.972+230.614+205.148+228.583+203.948C228.478+203.886+228.862+203.354+229.036+202.939C229.742+201.251+231.201+197.569+232.229+194.572" fill="#000000" stroke-linecap="butt" opacity="1" stroke-linejoin="round"/>
<path stroke="#000000" stroke-width="1.58" d="M119.341+275.045C119.506+275.967+120.975+282.667+119.631+281.305C119.156+280.824+117.591+272.688+119.569+274.379C120.277+274.985+122.033+285.93+122.271+287.525C122.433+288.616+121.784+289.903+122.105+290.941C122.206+291.266+120.959+290.601+121.237+290.406L121.905+290.406C122.333+290.707+121.03+291.189+121.027+290.673C121.008+287.043+118.207+277.217+118.756+274.582C119.044+273.197+121.776+280.883+119.64+281.707C118.965+281.968+119.268+280.29+119.273+279.566C119.281+278.247+118.923+276.604+118.716+275.254" fill="#000000" stroke-linecap="butt" opacity="1" stroke-linejoin="round"/>
</g>
</svg>
