<?xml version="1.0" encoding="UTF-8" standalone="no"?> <!-- Created with Vectornator for iOS (http://vectornator.io/) --><!DOCTYPE svg PUBLIC "-//W3C//DTD SVG 1.1//EN" "http://www.w3.org/Graphics/SVG/1.1/DTD/svg11.dtd">
<svg height="100%" style="fill-rule:evenodd;clip-rule:evenodd;stroke-linecap:round;stroke-linejoin:round;" xmlns:xlink="http://www.w3.org/1999/xlink" xmlns="http://www.w3.org/2000/svg" xml:space="preserve" width="100%" xmlns:vectornator="http://vectornator.io" version="1.1" viewBox="0 0 343.035 249.48">
<metadata>
<vectornator:setting key="DisplayWhiteBackground" value="0"/>
<vectornator:setting key="RulersVisible" value="1"/>
<vectornator:setting key="GridSpacing" value="36"/>
<vectornator:setting key="Units" value="Millimeters"/>
<vectornator:setting key="DynamicGuides" value="0"/>
<vectornator:setting key="SnapToPoints" value="0"/>
<vectornator:setting key="CMYKEnabledKey" value="0"/>
<vectornator:setting key="SnapToGrid" value="0"/>
<vectornator:setting key="SnapToGuides" value="1"/>
<vectornator:setting key="ShowGrid" value="1"/>
<vectornator:setting key="SnapToEdges" value="0"/>
</metadata>
<defs/>
<g id="Layer 1" vectornator:layerName="Layer 1">
<path stroke="#000000" stroke-width="1" d="M72.3266+46.697C73.1474+75.2816+40.0038+124.037+13.2432+87.78C-24.6655+36.4185+51.6191-33.4711+91.3452+24.701C107.951+49.0168+86.2319+93.6396+78.6601+118.278C69.2491+148.9+73.7795+178.541+84.0882+207.637L80.816+209.466C44.9869+179.637+70.3788+116.455+81.695+79.1406C88.1799+57.7569+96.1025+32.4815+73.919+16.6972C31.0781-13.7856-0.124696+42.8597+15.5862+80.5987C22.6501+97.5666+48.481+95.0844+57.7444+81.4818C64.2608+71.9131+67.0625+58.7336+67.4149+47.4829" fill="#000000" stroke-linecap="butt" opacity="1" stroke-linejoin="round"/>
<path stroke="#000000" stroke-width="1" d="M124.131+24.942C122.7+43.6236+105.852+135.05+148.626+108.905L149.431+110.041C98.944+160.258+117.726+36.7389+119.407+24.1546" fill="#000000" stroke-linecap="butt" opacity="1" stroke-linejoin="round"/>
<path stroke="#000000" stroke-width="1" d="M159.867+71.9648C158.407+82.6325+156.814+98.2619+160.525+108.654C161.503+111.396+173.79+117.805+174.407+116.194L175.025+117.43C170.479+123.128+158.219+115.034+156.405+109.243C153.091+98.6646+154.728+83.1895+156.736+72.3259" fill="#000000" stroke-linecap="butt" opacity="1" stroke-linejoin="round"/>
<path stroke="#000000" stroke-width="1" d="M186.634+78.7413C188.073+84.0737+192.367+116.9+199.826+117.913C204.134+118.498+202.371+109.598+203.602+105.429C206.409+95.9261+208.856+86.2899+210.552+76.5279C211.215+72.709+210.771+61.4366+212.241+65.023L212.679+64.8043C219.733+65.5098+208.194+118.368+199.879+121.685C190.961+125.242+183.443+84.7178+182.718+79.3941" fill="#000000" stroke-linecap="butt" opacity="1" stroke-linejoin="round"/>
<path stroke="#000000" stroke-width="1" d="M226.09+90.6761C231.053+89.5078+237.434+91.1191+241.142+88.5768C253.679+79.9807+233.609+57.682+228.763+88.5704C228.177+92.3095+227.829+96.0829+227.447+99.8485C226.895+105.302+227.487+111.57+231.565+115.726C242.392+126.76+255.589+110.271+259.012+101.035L259.22+101.135C256.256+115.338+240.837+135.09+226.906+116.85C223.23+112.037+222.904+104.842+223.684+99.1765C225.112+88.8081+224.314+90.4113+226.666+84.226C239.806+49.6737+256.925+83.1483+242.491+92.6246C238.302+95.375+231.181+93.8397+226.09+94.7191" fill="#000000" stroke-linecap="butt" opacity="1" stroke-linejoin="round"/>
<path stroke="#000000" stroke-width="1" d="M282.606+80.1162C284.812+64.5944+267.71+74.7303+271.835+85.8827C275.539+95.8934+305.474+103.716+289.345+120.952C278.933+132.078+255.834+127.33+258.276+111.094L258.907+110.997C261.403+123.435+284.682+127.353+288.491+113.509C292.458+99.0905+266.866+95.0866+267.377+82.7373C268.062+66.1912+289.218+63.4016+285.952+80.1162" fill="#000000" stroke-linecap="butt" opacity="1" stroke-linejoin="round"/>
<path stroke="#000000" stroke-width="1" d="M158.21+51.3751C151.525+61.1295+170.368+51.2643+160.55+47.8915C154.136+45.6881+159.607+57.0015+159.995+56.3005C160.84+54.7724+152.714+45.9709+157.817+50.6477C169.719+61.5554+144.63+52.7599+161.715+45.0896C165.715+43.2938+168.505+56.699+162.211+58.588" fill="#000000" stroke-linecap="butt" opacity="1" stroke-linejoin="round"/>
<path stroke="#000000" stroke-width="1" d="M87.6525+205.021C73.0767+175.503+102.029+141.435+133.076+144.551C181.465+149.407+182.728+208.094+243.69+192.734L243.69+192.734C198.932+227.787+170.742+156.035+133.076+153.02C108.717+151.071+81.7162+175.905+94.553+201.188" fill="#000000" stroke-linecap="butt" opacity="1" stroke-linejoin="round"/>
<path stroke="#000000" stroke-width="1" d="M235.923+163.724C231.157+123.445+255.881+147.054+260.983+169.445L255.993+170.16C256.597+172.14+253.685+164.802+253.375+163.864C251.096+156.981+250.042+150.834+242.763+147.65C241.046+146.898+239.376+146.545+237.626+145.941C236.801+145.656+239.756+143.267+239.481+144.095C238.503+147.036+238.814+156.6+238.904+163.102" fill="#000000" stroke-linecap="butt" opacity="1" stroke-linejoin="round"/>
<path stroke="#000000" stroke-width="1" d="M259.716+165.353C269.545+160.875+275.798+159.791+286.024+163.247C291.913+165.236+295.174+173.853+291.491+171.526L291.35+170.547C292.265+169.509+292.161+166.758+290.947+171.966C290.002+176.021+283.504+168.172+279.568+166.814C273.185+164.613+268.601+165.91+262.364+168.309" fill="#000000" stroke-linecap="butt" opacity="1" stroke-linejoin="round"/>
<path stroke="#000000" stroke-width="1" d="M290.371+167.909C306.78+119.966+317.541+168.857+312.312+187.025C307.479+203.819+298.206+209.555+285.884+215.407C283.268+216.65+266.302+219.613+270.692+212.563L271.963+212.693C272.42+215.429+296.957+205.886+302.653+200.642C310.548+193.377+309.084+172.691+307.835+163.1C307.228+158.436+300.716+152.738+304.117+149.489C309.474+144.37+296.523+162.229+293.197+168.849" fill="#000000" stroke-linecap="butt" opacity="1" stroke-linejoin="round"/>
<path stroke="#000000" stroke-width="1" d="M238.397+158.539C239.32+167.228+245.56+186.941+242.61+191.458L242.708+192.142C237.675+193.974+235.11+163.879+235.945+158.89" fill="#000000" stroke-linecap="butt" opacity="1" stroke-linejoin="round"/>
<path stroke="#000000" stroke-width="1" d="M270.909+216.961C265.584+231.942+312.899+221.943+320.724+224.206C327.013+226.024+335.448+227.445+338.794+234.415C341.689+240.447+332.826+242.208+334.703+242.268C336.27+242.318+331.585+242.732+330.106+243.249C328.055+243.965+324.264+244.507+320.724+244.43C310.917+244.216+300.797+244.769+291.095+243.511C262.117+239.754+233.965+242.135+204.679+242.471C188.63+242.655+173.038+234.846+159.742+230.627C155.277+229.211+152.097+227.24+147.503+226.171C145.326+225.664+138.779+225.031+140.977+224.625C144.572+223.959+179.186+234.863+160.947+244.742C154.787+248.078+87.527+246.873+83.1976+240.638C74.3528+227.901+86.5904+221.2+87.9508+210.664C89.0127+202.439+84.6293+201.02+92.1293+194.385L93.039+195.035C92.6255+195.881+91.9956+196.654+91.7986+197.575C90.7506+202.478+96.007+207.86+93.9985+212.453C90.9537+219.416+79.954+227.705+86.1689+237.667C88.4109+241.261+157.888+242.586+162.093+239.528C166.436+236.369+146.181+233.161+139.037+225.309C133.255+218.954+149.106+219.788+147.968+221.068C146.786+222.397+151.39+222.043+153.088+222.574C156.534+223.652+159.405+225.337+162.619+226.428C171.474+229.433+179.46+233.901+189.594+235.936C222.677+242.582+254.796+232.522+287.145+239.325C297.15+241.429+308.577+240.394+318.749+240.777C321.622+240.885+326.105+241.687+328.625+240.457C329.841+239.864+332.971+238.225+332.575+239.519C332.117+241.015+333.721+238.387+334.337+238.727C335.638+239.444+327.204+230.179+320.724+227.434C313.579+224.407+259.853+236.264+268.814+215.913" fill="#000000" stroke-linecap="butt" opacity="1" stroke-linejoin="round"/>
<path stroke="#000000" stroke-width="1" d="M158.625+53.1868C158.285+52.8839+159.928+54.2361+159.473+54.2593C159.003+54.2832+156.401+52.1635+157.434+51.4222C158.212+50.8632+160.055+53.7678+159.097+53.7678C158.248+53.7678+157.627+51.5009+157.111+52.1744C156.89+52.4625+157.841+52.1996+158.195+52.2793C158.578+52.3655+159.833+54.1791+159.431+54.7348C158.087+56.5913+156.604+53.6932+156.579+53.6759C156.303+53.4866+157.329+54.6779+157.327+54.3436C157.321+53.5743+160.01+55.3185+159.613+54.6595C159.534+54.5279+158.849+54.1043+157.659+53.4161C156.92+52.9894+154.898+51.7723+155.749+51.7129C156.786+51.6405+156.69+52.5026+156.83+52.8247C157.202+53.6802+155.405+53.2821+157.551+54.5193C157.889+54.7138+157.825+53.484+158.208+53.5528C160.536+53.9707+157.89+55.065+157.604+55.3127C156.945+55.8821+160.751+55.3264+160.138+55.9436C159.554+56.5301+158.101+56.7164+158.812+55.4589C158.986+55.1513+159.646+56.0607+159.417+56.33C158.613+57.2753+155.839+54.4519+156.496+53.6217C156.982+53.0076+158.526+52.9721+159.027+53.6738C160.062+55.1225+156.675+54.0553+156.841+54.0651C158.1+54.1397+159.894+55.5894+159.103+56.1134C157.588+57.1173+156.084+53.9806+157.279+53.0148C158.166+52.2973+159.417+54.9958+159.417+54.9958C158.832+54.8109+158.737+54.8173+158.398+54.3378C156.674+51.9016+158.346+56.8409+159.376+55.6608C159.662+55.3329+158.514+56.0467+158.097+55.9241C157.591+55.7755+156.593+54.4762+156.727+54.0096C157.281+52.0778+159.994+56.1316+157.261+53.4304C156.921+53.0942+157.42+54.3911+157.647+54.8121C158.18+55.8011+159.432+54.838+159.659+56.3765C159.725+56.8245+158.633+56.0112+158.571+55.5627C158.507+55.1042+159.327+56.1496+159.779+56.2466C160.24+56.3453+157.918+55.9817+158.388+56.0049C158.885+56.0295+157.448+56.0023+157.158+55.3392C157.088+55.1783+157.401+54.7113+157.604+54.6405C157.759+54.5862+157.935+54.6743+158.097+54.6434C158.153+54.6328+157.976+54.4955+157.956+54.5485C157.872+54.7743+157.655+55.1643+157.362+55.2C156.806+55.2676+156.432+54.6197+156.314+54.1573C156.098+53.3098+156.932+53.3443+156.932+53.4052C156.925+54.184+156.05+53.8748+155.938+53.4366C155.88+53.2087+155.855+52.9493+155.802+52.7162C155.746+52.4654+155.453+52.0778+155.678+51.9546C156.407+51.5569+160.921+53.2956+159.927+55.1237C159.397+56.0971+155.468+54.5799+156.339+53.7493C156.934+53.1827+158.711+54.6031+158.677+54.7348C158.411+55.7619+158.259+50.893+157.613+51.7349C157.343+52.0864+158.229+52.3757+158.489+52.7342C159.023+53.4695+158.381+53.9555+157.876+52.4077C157.784+52.1252+158.117+52.066+157.974+51.7129C157.54+50.6473+160.267+54.9102+159.119+54.9686C158.444+55.0029+157.453+53.3871+157.131+52.7347" fill="#000000" stroke-linecap="butt" opacity="1" stroke-linejoin="round"/>
<path stroke="#000000" stroke-width="1" d="M226.5+93.3425C226.345+92.5431+227.437+90.9027+226.623+90.9027C226.057+90.9027+227.604+92.8722+227.169+92.5105C226.037+91.5697+226.872+90.1805+227.908+90.468C229.215+90.8303+227.527+93.1532+227.37+94.5C227.345+94.7145+227.591+95.2034+227.382+95.148C225.754+94.7159+227.622+90.8797+227.48+89.6897L228.296+89.6897C228.142+90.9864+228.082+94.7157+226.454+95.148C225.647+95.3621+226.559+93.4786+226.706+92.6572C226.753+92.3972+226.881+91.1005+227.09+90.9027C227.268+90.7333+228.347+90.4858+227.629+91.0762C225.299+92.9913+228.625+89.7169+226.608+93.5572" fill="#000000" stroke-linecap="butt" opacity="1" stroke-linejoin="round"/>
<path stroke="#000000" stroke-width="1" d="M160.104+54.8161C159.734+54.6738+158.967+55.7235+159.032+55.3323C159.153+54.6081+161.731+54.177+161.041+54.43C160.314+54.6968+159.752+54.8753+160.125+54.6934C161.118+54.2073+161.828+56.0444+159.033+55.2874" fill="#000000" stroke-linecap="butt" opacity="1" stroke-linejoin="round"/>
<path stroke="#000000" stroke-width="1" d="M228.495+90.768C228.287+91.9938+227.814+96.3484+226.755+95.5547C226.279+95.1974+227.568+91.4113+227.93+90.4166C229.084+87.2475+228.592+95.3978+227.658+95.7036" fill="#000000" stroke-linecap="butt" opacity="1" stroke-linejoin="round"/>
<path stroke="#000000" stroke-width="1" d="M227.628+92.0742C227.659+97.0863+227.949+92.9394+228.365+89.1416L228.834+89.4815C228.177+92.4051+227.36+97.5744+227.039+91.9771" fill="#000000" stroke-linecap="butt" opacity="1" stroke-linejoin="round"/>
<path stroke="#000000" stroke-width="1" d="M239.71+144.752C238.003+143.759+238.144+145.924+237.901+147.469C237.778+148.25+237.747+143.922+238.644+145.941C238.88+146.472+238.247+148.951+237.568+148.758C235.452+148.155+238.387+141.236+240.225+142.986C241.147+143.863+239.04+144.637+238.732+145.447C238.423+146.26+238.567+148.081+237.683+147.283C236.037+145.797+241.075+145.003+240.549+145.582C240.253+145.908+239.207+146.028+239.059+146.236C238.895+146.467+239.037+148.551+238.279+148.198C235.8+147.046+240.498+144.285+240.41+143.924C239.708+141.052+237.822+149.403+236.641+147.925L236.963+147.939C235.394+149.553+238.049+143.608+239.252+144.011C239.805+144.196+240.861+144.068+240.881+144.651C240.904+145.333+239.703+145.343+239.084+145.629C238.815+145.753+238.473+147.546+238.136+147.937C238.021+148.07+238.92+144.041+239.969+145.501C239.973+145.507+238.407+147.656+237.793+147.738C236.564+147.901+240.905+142.561+239.514+143.385C238.713+143.86+237.957+145.574+237.682+146.864C237.579+147.348+236.878+148.619+237.241+148.282C237.93+147.644+238.817+146.708+238.576+145.8C238.406+145.158+237.148+147.986+237.321+147.345C237.692+145.967+237.67+143.009+239.81+144.284" fill="#000000" stroke-linecap="butt" opacity="1" stroke-linejoin="round"/>
<path stroke="#000000" stroke-width="1" d="M226.068+92.2253C225.923+92.9228+225.765+95.0459+225.722+94.3347C225.638+92.947+225.769+91.6095+225.836+90.2416C225.837+90.2223+225.799+90.0597+225.804+90.0654C226.163+90.4337+225.4+92.5476+225.279+93.0812C225.173+93.5522+225.334+94.9082+225.057+94.5126C224.556+93.797+225.241+91.9912+225.285+91.0607C225.291+90.9484+225.459+89.2803+225.545+89.3558C226.526+90.2095+223.67+95.3939+225.079+96.5456C225.753+97.0974+225.502+94.8543+225.717+94.0096C226.054+92.6878+226.063+91.2972+226.329+89.9549C226.418+89.5059+226.165+88.3213+226.53+88.5969C227.132+89.0511+226.286+96.7895+225.507+96.7611L225.475+96.6428C225.439+96.7045+225.682+95.6915+225.688+95.6665C225.812+95.0928+225.85+94.5161+225.906+93.9322C225.96+93.364+225.778+88.9275+226.86+88.665C226.934+88.6471+226.825+88.8133+226.809+88.8878C226.647+89.6513+226.401+90.5607+226.368+91.343C226.337+92.0902+226.156+96.5612+224.804+96.702C224.642+96.7189+224.623+95.9999+224.631+95.9158C224.756+94.4699+224.133+90.0369+225.803+89.5053C226.411+89.3118+225.607+90.767+225.466+91.3893C225.304+92.1092+225.476+94.0593+224.82+94.4636C224.408+94.7168+224.945+93.5052+225.035+93.0306C225.149+92.4218+225.32+89.986+226.074+89.9939C226.174+89.9949+226.042+90.5303+226.028+90.5925C225.761+91.8478+224.878+96.8768+225.84+92.1948" fill="#000000" stroke-linecap="butt" opacity="1" stroke-linejoin="round"/>
<path stroke="#000000" stroke-width="1" d="M146.68+225.298C146.278+225.112+140.706+222.743+142.065+224.388C142.876+225.369+144.856+225.258+145.656+226.122C145.911+226.398+142.424+225.134+141.92+224.871C141.49+224.647+140.137+224.197+140.621+224.215C141.711+224.256+145.736+225.041+146.415+225.862C146.514+225.982+141.155+223.894+141.134+223.901C140.138+224.239+143.188+224.361+144.206+224.626C145.56+224.978+148.353+225.155+149.725+226.251C149.801+226.312+149.995+226.456+149.901+226.487C147.788+227.187+145.105+224.968+143.421+223.819L143.521+223.663C145.472+224.684+148.276+225.164+149.654+226.817C150.098+227.349+148.445+226.1+147.773+225.928C146.096+225.498+144.369+225.228+142.74+224.64C142.174+224.436+140.689+223.468+141.28+223.581C142.458+223.806+143.53+224.709+144.484+225.35C149.101+228.454+140.497+224.204+140.822+223.914C141.051+223.709+144.404+225.921+144.765+226.14C145+226.283+145.702+226.711+145.491+226.534C144.547+225.746+143.013+225.634+141.998+224.831C139.468+222.828+145.923+224.658+146.731+225.095" fill="#000000" stroke-linecap="butt" opacity="1" stroke-linejoin="round"/>
<path stroke="#000000" stroke-width="1" d="M304.575+150.883C304.919+152.016+301.979+151.706+303.176+152.59C304.019+153.212+304.21+150.532+303.899+149.532C303.613+148.609+304.181+153.325+303.823+152.428C303.704+152.131+304.028+150.233+304.045+150.244C304.864+150.76+304.524+153.703+303.723+153.103C303.321+152.802+307.15+150.846+304.651+150.9C302.118+150.955+303.95+152.921+303.962+152.913C303.996+152.889+305.22+148.865+303.915+152.007C303.761+152.377+303.817+152.699+303.301+152.428C302.375+151.942+302.982+149.31+304.025+149.377C305.136+149.448+303.338+152.788+302.356+152.266" fill="#000000" stroke-linecap="butt" opacity="1" stroke-linejoin="round"/>
<path stroke="#000000" stroke-width="1" d="M303.347+151.633C305.818+148.109+302.708+151.12+302.787+150.93C302.889+150.686+304.268+150.111+303.935+149.623C303.76+149.366+302.439+149.404+302.43+149.493C302.346+150.286+303.875+150.086+303.885+149.997C303.952+149.427+303.52+152.225+303.291+151.606C302.741+150.118+304.137+148.417+304.005+149.719C303.911+150.636+302.465+150.656+302.278+149.841C302.092+149.022+303.297+149.074+303.801+149.278C304.545+149.579+302.057+151.935+302.649+151.392C302.713+151.334+304.656+148.73+304.639+149.56" fill="#000000" stroke-linecap="butt" opacity="1" stroke-linejoin="round"/>
<path stroke="#000000" stroke-width="1" d="M260.118+166.933C260.317+166.826+265.723+164.077+265.132+165.518C264.626+166.752+260.517+168.281+259.62+168.768C259.544+168.809+259.391+169.029+259.442+168.958C260.229+167.862+261.38+167.91+262.403+167.164C262.709+166.941+263.168+165.985+263.207+166.362C263.4+168.281+261.17+168.228+259.815+169.19C259.628+169.323+262.35+166.908+262.545+167.343C263.1+168.58+260.006+168.863+259.9+169.028C259.134+170.22+262.272+166.715+264.04+166.325L264.325+166.895C263.649+166.491+260.89+170.762+259.439+168.782C258.792+167.899+263.638+168.358+262.619+167.958C261.935+167.69+260.535+170.274+259.288+168.985C259.081+168.772+259.805+168.401+259.815+168.398C260.096+168.31+263.148+166.149+263.703+166.858C263.801+166.984+260.186+171.149+259.096+168.266C258.948+167.876+264.209+165.322+265.058+165.778C265.432+165.979+264.237+166.005+263.849+166.179C262.748+166.67+261.7+167.237+260.604+167.743" fill="#000000" stroke-linecap="butt" opacity="1" stroke-linejoin="round"/>
<path stroke="#000000" stroke-width="1.58" d="M293.011+168.134C294.619+170.428+291.883+174.594+289.196+173.219C287.245+172.221+286.69+168.233+285.954+166.433L286.461+166.124C290.794+170.797+290.829+175.323+292.317+168.035" fill="#000000" stroke-linecap="butt" opacity="1" stroke-linejoin="round"/>
<path stroke="#000000" stroke-width="1.58" d="M261.371+166.501C259.752+167.358+259.756+168.223+258.665+168.175L258.665+168.175C257.742+166.831+259.634+166.139+260.926+165.966" fill="#000000" stroke-linecap="butt" opacity="1" stroke-linejoin="round"/>
<path stroke="#000000" stroke-width="1.58" d="M256.177+168.402C256.471+168.777+257.511+169.713+257.082+169.508C256.719+169.335+257.885+169.228+258.128+168.907C258.543+168.359+260.86+166.695+260.887+167.072L261.989+167.574C261.999+169.12+257.244+171.632+255.968+170.246C255.569+169.812+255.425+168.888+255.447+168.325" fill="#000000" stroke-linecap="butt" opacity="1" stroke-linejoin="round"/>
<path stroke="#000000" stroke-width="1.58" d="M268.846+216.951C269.249+216.36+270.516+214.356+270.095+215.492C269.983+215.794+270.426+214.278+270.462+214.598C270.54+215.288+270.34+217.263+270.698+216.668C270.742+216.595+270.493+217.568+270.344+217.476C268.158+216.136+269.958+214.129+270.917+213.358C271.245+213.093+270.565+214.248+270.774+214.615C270.907+214.849+271.725+214.689+271.536+214.879C271.142+215.275+270.522+216.783+270.322+217.403C270.153+217.928+269.264+217.055+268.8+216.758C268.794+216.755+269.396+214.601+270.249+213.853C270.698+213.459+270.338+213.559+270.746+214.062L271.4+214.389C271.812+215.133+271.295+216.871+270.452+216.758C269.92+216.687+268.489+217.173+268.842+216.768C269.348+216.187+270.467+211.911+271.915+213.474C272.421+214.02+270.886+217.001+270.651+216.949C269.402+216.674+268.92+215.758+268.912+216.758C268.911+216.948+269.176+216.054+269.07+216.211C268.845+216.544+269.452+215.504+269.651+215.155C269.926+214.674+270.431+214.108+270.983+214.161C273.613+214.413+270.129+218.101+270.405+217.47" fill="#000000" stroke-linecap="butt" opacity="1" stroke-linejoin="round"/>
<path stroke="#000000" stroke-width="1.58" d="M334.921+238.316C335.226+239.271+334.489+240.185+333.619+240.821C330.745+242.926+334.099+236.962+334.554+237.339C335.684+238.276+333.647+239.928+332.915+240.391C332.571+240.608+331.321+240.722+331.721+240.644C332.037+240.582+334.156+238.884+334.826+238.249C335.678+237.442+332.219+241.008+331.812+240.733C330.328+239.732+334.434+238.467+334.913+237.854C335.195+237.495+334.489+238.666+334.235+239.045C333.586+240.013+333.507+241.222+332.237+240.412C331.957+240.233+332.881+240.186+333.127+239.964" fill="#000000" stroke-linecap="butt" opacity="1" stroke-linejoin="round"/>
<path stroke="#000000" stroke-width="1.58" d="M334.685+241.469C334.166+241.74+335.711+240.842+336.056+240.369C336.436+239.848+336.568+238.29+336.355+237.972C336.171+237.698+336.391+237.56+336.627+237.822L337.212+237.091C339.277+238.147+336.351+242.129+334.787+242.285" fill="#000000" stroke-linecap="butt" opacity="1" stroke-linejoin="round"/>
<path stroke="#000000" stroke-width="1.58" d="M92.6719+195.455C93.8327+196.431+94.5764+201.644+94.6319+205.969C94.6493+207.319+94.1546+208.917+93.7115+210.207C93.4819+210.875+93.0148+212.866+92.9092+212.168C92.7377+211.034+92.4284+210.322+91.3372+211.048C91.2547+211.103+91.4591+210.891+91.5152+210.81C92.0685+210.003+91.7939+209.59+92.176+208.69C92.7613+207.313+92.0526+204.159+94.2973+204.407C95.7206+204.564+93.8211+210.312+93.5434+210.976C93.5209+211.03+92.7175+209.986+92.6355+209.772C92.2482+208.765+92.3973+203.404+92.0891+201.851C91.7697+200.243+89.9275+197.309+90.4038+195.675C90.5593+195.142+91.1438+194.31+91.9943+194.517C95.7744+195.435+94.4088+207.733+94.1183+208.604C94.1003+208.658+93.8671+209.915+93.9151+209.949C93.9605+209.981+92.0533+208.809+92.1816+207.286C92.4218+204.439+92.3187+201.253+91.5262+198.51C89.5687+191.734+88.7461+191.912+88.1897+186.138L89.5404+185.778C91.6193+190.743+93.1845+192.725+93.7799+197.946C93.971+199.622+95.4619+211.252+92.9001+210.857C90.8022+210.533+92.4805+205.328+92.3878+203.727C92.2515+201.374+91.3996+198.587+91.4131+196.378C91.4139+196.251+91.7617+196.465+91.7925+196.342C91.8307+196.19+92.001+196.101+92.0673+195.959C92.1218+195.842+92.1083+195.703+92.1109+195.574C92.1218+195.038+92.323+196.652+92.6149+197.102C93.3234+198.194+93.3977+199.208+93.8293+200.361C94.6977+202.682+95.7616+208.495+94.3176+210.894C91.9159+214.883+91.2468+206.253+94.3008+204.498C94.3969+204.443+94.5808+205.628+94.5753+205.722C94.5414+206.304+93.7213+215.617+91.055+212.755C89.9829+211.604+92.0934+207.909+92.2951+206.628C92.9419+202.518+91.653+196.235+91.6461+196.225" fill="#000000" stroke-linecap="butt" opacity="1" stroke-linejoin="round"/>
<path stroke="#000000" stroke-width="1.58" d="M147.958+221.245C148.777+221.268+151.441+222.314+151.656+223.002L151.272+223.963C150.595+224.271+148.496+222.188+147.958+222.008" fill="#000000" stroke-linecap="butt" opacity="1" stroke-linejoin="round"/>
<path stroke="#000000" stroke-width="1.58" d="M161.724+56.3544C161.411+56.6548+161.513+57.1919+161.521+56.5747C161.524+56.3366+161.265+57.3131+161.094+57.1473C160.803+56.8654+160.058+56.3222+159.724+56.5626C159.044+57.0524+161.291+57.8668+160.882+56.4C160.772+56.0061+159.756+55.7043+159.69+56.108C159.561+56.8994+162.453+57.5181+161.969+56.8785C161.811+56.669+161.286+57.0203+161.216+57.4108C161.051+58.3297+159.607+56.4511+158.879+55.8666C158.573+55.6208+159.866+55.7842+160.024+56.1437C160.189+56.5195+160.309+56.8555+159.787+57.4106C159.332+57.8948+157.156+54.8669+157.005+54.5621C156.765+54.0782+156.044+52.6628+156.419+53.0517C157.44+54.1119+157.46+52.8868+158.093+53.2733C160.356+54.6552+160.183+56.1566+161.639+56.2682C161.788+56.2795+162.029+58.159+162.029+58.159C159.945+58.7399+153.549+53.6539+157.058+51.997C158.38+51.3725+159.512+57.2096+159.578+57.5378C159.617+57.7333+157.542+56.3805+158.645+55.0986C159.237+54.4106+162.186+55.8053+162.634+57.0209C163.667+59.8237+157.888+57.9633+159.209+55.8211C160.245+54.1421+161.302+56.4943+161.518+57.2892C162.119+59.5113+157.024+55.3061+160.24+55.5297C164.561+55.8302+160.019+59.6852+160.495+56.4361" fill="#000000" stroke-linecap="butt" opacity="1" stroke-linejoin="round"/>
<path stroke="#000000" stroke-width="1.58" d="M204.292+108.895C203.84+110.646+201.795+114.418+201.957+115.715C201.972+115.838+201.356+117.283+201.265+117.406C201.041+117.71+200.523+118.714+200.659+118.362C201.539+116.082+204.052+111.384+204.062+108.03C204.062+107.94+204.297+106.44+204.161+106.44C203.831+106.44+204.79+106.68+205.034+106.901C205.421+107.252+204.835+107.929+204.678+108.427C204.517+108.94+202.386+115.01+201.673+113.777C200.999+112.611+203.666+105.126+204.565+105.757C204.608+105.788+204.221+107.444+204.197+107.621C203.915+109.726+201.539+118.209+198.571+118.106L198.396+117.581C199.269+117.521+202.09+110.484+202.517+109.534C202.938+108.598+203.111+107.428+203.334+106.409C203.434+105.95+204.858+105.399+204.395+105.482C203.612+105.623+204.597+107.096+204.408+107.869C203.996+109.552+203.297+112.889+201.616+113.37C201.372+113.439+201.897+112.945+201.99+112.709C202.283+111.97+202.552+111.201+202.824+110.453C203.072+109.774+203.579+106.713+204.02+106.563C204.36+106.448+205.447+106.44+205.089+106.44C204.513+106.44+204.992+107.588+204.993+108.163C204.997+110.063+201.978+119.238+199.947+118.039C199.841+117.976+200.226+117.445+200.399+117.03C201.106+115.341+202.565+111.659+203.593+108.662" fill="#000000" stroke-linecap="butt" opacity="1" stroke-linejoin="round"/>
<path stroke="#000000" stroke-width="1.58" d="M90.7042+189.136C90.8699+190.058+92.338+196.757+90.9944+195.396C90.5195+194.915+88.9546+186.778+90.9322+188.469C91.6407+189.075+93.3969+200.021+93.6341+201.615C93.7966+202.707+93.1479+203.994+93.469+205.031C93.5695+205.356+92.3227+204.692+92.6008+204.496L93.2685+204.496C93.6969+204.797+92.3936+205.28+92.3908+204.764C92.3714+201.134+89.5709+191.308+90.1194+188.672C90.4077+187.287+93.1394+194.973+91.0039+195.797C90.3283+196.058+90.6318+194.38+90.6362+193.656C90.6441+192.337+90.2863+190.694+90.0797+189.344" fill="#000000" stroke-linecap="butt" opacity="1" stroke-linejoin="round"/>
</g>
</svg>
