<?xml version="1.0" encoding="utf-8"?>

<!DOCTYPE svg PUBLIC "-//W3C//DTD SVG 1.1//EN" "http://www.w3.org/Graphics/SVG/1.1/DTD/svg11.dtd">
<svg version="1.1" id="Layer_1" xmlns="http://www.w3.org/2000/svg" xmlns:xlink="http://www.w3.org/1999/xlink" x="0px" y="0px"
	 viewBox="57 51.7699 1806 1720.4602" enable-background="new 57 51.7699 1806 1720.4602" xml:space="preserve">
<g>
	<path d="M1827.1205,287.9835c-0.3398-0.4199-1.02-1.26-1.3599-1.6799c-0.1201-5.5701-3.3701-10.26-5.46-15.21
		c-0.46-1.28-0.9199-2.5601-1.3301-3.8201c-1.1201-3.24-3.47-5.78-5.72-8.26c-6.74-6.99-15.5-11.84-24.92-14.1199
		c-8.27-1.75-16.8099-1.4601-25.1899-0.9601c-5.6001,1.15-11.3301,0.4-16.9601,0.9601c-8.27,1.5-16.6899,1.8398-25.01,2.9199
		c-3.49,0.59-6.7999,1.74-10.0399,3.11c-3.12,1.3099-6.36,2.33-9.35,3.89c-0.9-0.26-2.6801-0.79-3.5701-1.05
		c0.85-2.1799,1.6-4.3999,1.95-6.72c-2.2799,1.5801-3.35,4.8401-5.86,5.8201c-1.08-1.53,0.2101-3.6201,0.16-5.3301
		c-0.4299-0.02-1.3-0.0601-1.73-0.0701c-1.45,2.25-2.58,4.6802-3.7,7.1001c-2.0701-4.63,2.7799-8.1001,3.22-12.39
		c-0.66-0.14-1.97-0.42-2.63-0.5599c-0.42-0.9001-0.8201-1.8-1.1901-2.6901c-0.8199,0.74-1.61,1.49-2.38,2.25
		c-1.0199-2.2001-2.0699-4.41-3.59-6.2999c-0.35,4.0499,0.5701,8.1399-0.14,12.1699c-0.53,2.38-0.5,5.5-3.14,6.61
		c-0.2799-0.65-0.85-1.95-1.14-2.6c0.04-1.3401,0.1001-2.6799,0.1801-4.02c0.34-4.59-0.21-9.1699-0.48-13.75
		c-1.05,3.88-1.63,7.8501-2.01,11.8501c-1.98-2.3301-2.9-5.26-3.99-8.05c-0.8101,0.5699-1.62,1.1299-2.39,1.7
		c-1.3101-1.25-2.61-2.48-3.9401-3.6799c0.3601,3.0699,2.9501,6.4399,0.9801,9.3599c-2.2301-1.7-4.49-3.4299-7.14-4.3999
		c0.65,2.63,3.5499,5.1899,2.4399,7.9199c-2.5399-2.23-4.71-5.0898-8.14-5.95c0.5901,2.91,2.74,6.2,0.7201,8.99
		c-0.79-0.7-1.5601-1.3899-2.3-2.09c-0.49,0.97-0.95,1.9501-1.39,2.92c-2.28-1.67-4.67-3.16-7.11-4.54
		c-0.3101,2.3301,0.79,5.36-1.21,7.12c-1.75-1.36-2.6801-3.41-3.79-5.24c-0.24,4.24,0.5601,8.73-1.86,12.5199
		c0.77,1.1401,1.5699,2.28,2.38,3.4301c-0.01,0.4301-0.04,1.3-0.0601,1.7401c-0.6599,0.0299-1.99,0.0798-2.6599,0.1099
		c-0.75-0.6899-1.4501-1.4099-2.0901-2.1699c-2.88-2.96-6.1699-5.51-8.64-8.8401c-1.35,4.1501,0.91,7.9001,1.89,11.8201
		c-0.49-0.0901-1.47-0.27-1.96-0.36c0.62,2.48,0.98,5.0399,0.8199,7.62c-4.0499-0.95-4.6499-6.3301-8.61-6.96
		c0,1.99-0.1499,3.98-0.4199,5.96c-3.1001-0.39-6.8501-1.45-7.1901-5.14c2.01,0.6,3.99,1.34,5.97,2.1
		c-0.5-1.37-0.6399-2.95-1.5299-4.11c-1.9301-1.1901-3.9501-2.23-5.73-3.61c0.25-0.46,0.7599-1.39,1.0099-1.85
		c-0.5-0.15-1.49-0.4601-1.99-0.61c-0.2999-0.46-0.9199-1.3601-1.22-1.8101c3.76-1.01,7.36,0.74,11.01,1.42
		c-0.12-0.55-0.36-1.66-0.48-2.2201c-1.03-1.6599-2.08-3.2999-3.03-5c1.9501,0.01,3.66,0.9001,5.3101,1.8701
		c1.59-0.66,0.7899-3.1401-0.41-3.78c-2.36-1.38-4.9-2.54-6.54-4.8201c3.73-0.1599,7.5601-0.1399,10.98,1.6301
		c0.0901-2.6001-2.37-4.55-1.5699-7.1901c-1.55-0.5-3.08-0.9501-4.61-1.37c1.66-0.53,3.33-1.0801,5.01-1.64
		c-1.48-3.9601-4.85-6.66-8.6801-8.17c0.12-0.35,0.37-1.04,0.49-1.3899c2.36-0.8201,6,0.5699,7.4401-1.99
		c-5.6901-1.4801-11.7101,0.7899-17.25-1.1901c4.7-2.66,9.2899-6,14.77-6.77c-5.9501-2.36-12.14,1.2101-18.16,1.6801
		c0.77-1.3501,1.5699-2.6901,2.35-4.03l0.6801-0.45c5.51-1.8201,11.1-3.6801,15.7799-7.24c6.67-4.05,11.13-10.99,13.3-18.3801
		c0.46-1.3099,0.96-2.6199,1.52-3.8999c0.15-4.01,0.78-8.2001-0.5701-12.0701c-0.6399-2.27-1.86-4.58-1-6.96
		c1-3.9299,0.7101-8.02,0.52-12.02c-1.13-3.8-2.03-7.8201-4.6799-10.9c-0.0901-0.5599-0.25-1.6801-0.3301-2.25
		c-0.5299-0.12-1.58-0.36-2.1-0.48c-4.15-3.64-6.92-8.49-10.33-12.75c-7.3201-2.38-15.36-2.9401-22.75-0.5399
		c-1.02,0.3599-2.01,0.72-3,1.08c-1,0.34-1.99,0.7-2.9501,1.08c-2.73,1.1899-5.34,2.5801-7.96,3.96
		c-3.01,1.6801-5.87,3.6401-9.08,4.9301c-10.3101,5.48-19.12,13.4601-25.92,22.91c-4.42,6.08-10.59,10.74-14.52,17.1499
		c-1.1799,2.47-2.34,4.9601-3.73,7.3101c-0.72,1.22-1.4301,2.4299-2.0599,3.6899c-0.2001,0.72-0.6101,2.17-0.8201,2.8901
		c-0.95,0.23-1.88,0.47-2.79,0.7c-0.9099-1.2-1.7999-2.4-2.6799-3.6001c-0.1801,1.6301-0.3301,3.25-0.47,4.8801
		c-2.04-0.4601-4.03-1.05-5.9801-1.73c-0.6499,0.5499-1.2699,1.0999-1.86,1.6799c-0.62,1.21-1.1799,2.46-1.71,3.71
		c-0.61,0.23-1.8101,0.71-2.42,0.9399c0.12,0.4102,0.3501,1.2201,0.4701,1.6301l0.58,0.3199l0.28-0.13
		c0.58,1.47,1.83,2.5,2.9299,3.5901c1.7101,1.5399,2.9301,3.52,3.74,5.6799c-1.3099-0.25-2.6-0.5-3.88-0.74
		c-1.8199,0.6799-3.6899,1.2-5.49,1.87c-0.4099,2.6801,0.78,5.26,1.38,7.8199c-2.11,0.99-4.21,2.01-6.2899,3.05
		c0.7899,1.13,1.59,2.26,2.4099,3.39c-1.27,1-2.5399,1.99-3.7799,2.99c1.38,1.4301,2.7799,2.85,4.2,4.27
		c-0.73,1.37-1.4401,2.74-2.14,4.11c-2.28-0.4-4.5599-0.74-6.84-0.98c1.3199,1.6599,2.66,3.3101,3.99,4.98
		c-2.27-0.23-4.5601-0.36-6.72-1.0901c0.39,0.3901,1.1899,1.1801,1.59,1.5801c-0.65,0.0601-1.95,0.2-2.6,0.27
		c0.4,0.1399,1.2,0.4399,1.6,0.59c1.0699,0.39,2.17,0.77,3.27,1.16c-0.78,1.3999-1.5701,2.8101-2.3201,4.22
		c1.42-0.27,2.9301-0.52,4.4-0.78c0.73,1.0801,1.48,2.16,2.24,3.26c-3.78,0.5701-7.6899,0.25-10.85-2.0699
		c0.8,2.41,3.38,3.1801,5.38,4.34c-0.17,0.39-0.5,1.1799-0.67,1.5801c1.05,0.74,2.12,1.3799,3.28,2.0499l-0.29,0.3099
		c-1.24,1.28-2.6799,2.4401-3.38,4.1201c0.62,0.74,1.29,1.46,2,2.1599c0.3101,0.3201,0.9401,0.96,1.26,1.28
		c-0.0399,0.5-0.13,1.48-0.1699,1.97c-0.53,0.15-1.6,0.4401-2.13,0.5901c-0.78,1.1599-1.52,2.33-2.27,3.5
		c0.59,0.6499,1.1899,1.2999,1.8,1.96l0.3099,0.35c0.38,0.4401,1.13,1.33,1.51,1.77c-1.66,2.4401-2.84,5.15-3.8199,7.91
		c-1.8201-0.04-3.6201-0.0701-5.4-0.17c0.15,0.3099,0.45,0.9401,0.59,1.25c-1.13,1.22-2.05,2.61-2.83,4.0599
		c-1.3401,0.52-2.6801,1.03-3.99,1.53c0.12-0.54,0.36-1.61,0.48-2.1499c0.5699-1.5801,1.21-3.1501,1.76-4.75
		c-0.11-5.79,0.2-11.6101-0.4401-17.3801l-0.63-1.1899c-0.1699-1.26-0.11-2.5,0.17-3.73c0.41-0.38,1.23-1.15,1.65-1.53
		c1.73-3.6599,3.6799-7.3201,3.21-11.53c0.7,0.27,1.41,0.5601,2.14,0.8601l-0.35-0.6001c-0.24-0.28-0.7101-0.86-0.9501-1.1499
		c-0.0599-2.1901,0.0601-4.3701,0.1801-6.5601c0.9399,0.15,2.8099,0.45,3.75,0.6c-1.1-0.8099-2.41-1.3199-3.62-1.88
		c-0.0801-0.37-0.25-1.09-0.3401-1.46c-0.2799-1.29-0.48-2.5701-0.71-3.86c-1.54-3.2001-3.08-6.41-4.0499-9.83
		c-0.04-1.79-0.0801-3.5701-0.13-5.3401c-0.42-3.6899-0.88-7.86-3.8401-10.46c-3.7899-3.26-8.95-3.77-13.47-5.45
		c-4.5-1.01-8.87-2.4701-13.3199-3.6401c-2.9601-1.0299-5.9401-1.97-8.89-2.99c-1.6901-0.73-3.39-1.3999-5.11-2
		c-2.38-0.97-4.76-1.9199-7.11-2.9099c-6.03-2.79-11.88-6.02-17.29-9.89c-7.53-5.39-12.79-13.67-21.46-17.4801
		c-3.2001-1.1699-5.6201-3.8599-5.6001-7.3899c0.78-2.72-0.71-5.5801-0.24-8.41c0.6801-0.14,2.02-0.4301,2.6901-0.58
		c-1.23-0.21-2.4701-0.4301-3.67-0.64c-0.0699-1.78-0.15-3.5699-0.2-5.35c-3.2001,0.05-2.01,4-2.9601,6.08
		c-0.46-1.58-1.0299-3.13-1.5499-4.6801c0.4399-0.98,0.89-1.95,1.36-2.9299c0.89,0.24,1.7999,0.49,2.73,0.73c0-0.62,0-1.88,0-2.51
		c-2.03,0.0601-4.51,1.9399-6.25,0.6101c-3.47-7.78-5.8099-15.9901-8.98-23.8901c-0.61,3.75,1.4399,7.2101,1.35,10.91
		c-0.8199,1.5699-2.4,2.53-3.64,3.7101c-2.5599-5.77-5.9199-11.1201-8.65-16.8001c-0.13,0.8-0.38,2.3999-0.51,3.2
		c-1.0499-1.03-2.09-2.0599-3.1299-3.0599c0.6799,1.73,1.4099,3.45,2.37,5.0599c-0.2401,1.74,0.2,4.0701-2,4.5901
		c-4.2301-4.98-7.66-10.5801-12-15.47c1.1599,4.48,4.5699,7.9399,7,11.7799c-1.0701,0.52-2.13,1.0499-3.1801,1.5699
		c-0.6801-0.84-1.34-1.6899-1.99-2.5299c-1.1801,1.41-2.36,2.7999-3.5601,4.16c-0.7999-2.3601-1.7999-4.67-3.1699-6.76
		c0.1699-0.52,0.5-1.54,0.6599-2.05c-3.1799,2.35-6.87,0.48-10.08-0.72c-1.02,0.8099-1.92,1.75-2.8199,2.6499
		c-0.3401-0.34-1.03-1.0299-1.37-1.3699c-1.25-0.1101-2.51-0.29-3.39-1.24c-3.5601,1.1699-7.26,1.1499-10.7101-0.3301
		c-0.58,0.8401-1.1399,1.6799-1.6899,2.52c-1.33-0.9-2.6801-1.79-4-2.6799c-1.21,0.1199-2.38,0.25-3.5601,0.3699
		c-0.98-0.49-1.9399-0.98-2.8899-1.48c-0.2201,2.0801-0.54,4.15-1.0901,6.16c-0.3199-1.7201-0.5699-3.4301-0.7899-5.15
		c-2.64-0.03-3.99,2.27-5.5801,3.95c-2.02-1.2-2.23-3.9199-3.9-5.5c-0.45,1.1101-0.86,2.23-1.25,3.3501
		c-1.2899-0.3501-2.58-0.71-3.83-1.0601c-0.15,0.8301-0.46,2.48-0.61,3.3c-1.11-2.5701-1.52-6.3301-4.83-6.89
		c0.37,4.26,0.11,8.58-1.9701,12.4301c-1.0199-0.4601-2.0699-0.92-3.0599-1.3701c-2.13-3.3599-4.49-6.5599-6.77-9.8199
		c-2.02-2.7999-2.53-6.2899-3.85-9.41c-0.51-2.34-1.26-4.61-2.17-6.8c-1.04-2.8099-2.03-6.0999-4.72-7.74
		c-3.42-0.6599-5.34,3.17-7.3101,5.3c-5.2699,9.6001-8.63,20.0901-12.87,30.15c-1.1,3.4301-2.48,6.76-3.71,10.14
		c-0.62,1.5701-1.1899,3.1599-1.75,4.74c-1.96-2.12-1.3199-5.14-1.61-7.75c-1.27,1.98-2.45,4.03-4.01,5.8
		c-2.39-1.1401-2.11-4.66-3.22-6.8101c-1.8201,4.12-2.3201,8.64-2.63,13.0901c-0.29,1.1099-0.4601,2.25-0.51,3.3999
		c-3.03-0.03-2.29-3.25-2.6901-5.29c-0.6,1.0701-1.2,2.15-1.7699,3.22c-1.9801-3.4199-2.67-7.3298-3.4901-11.1399
		c-1.5-0.45-1.36,1.53-1.8999,2.3899c-0.8-0.46-1.5701-0.9199-2.3301-1.3799c-0.2,1.8999-0.38,3.79-0.5499,5.6799
		c-1.24-1.5699-2.4301-3.3-4.3401-4.09c0.03,1.2899,0.12,2.58,0.2101,3.87c-0.25,0.37-0.75,1.11-0.99,1.48
		c-0.1901,1.65,0.83,3.87-0.5601,5.0801c-2.21,0.1099-2.84-2.16-3.88-3.6101c-0.4399-0.1599-1.3199-0.46-1.76-0.6099
		c0.11,0.49,0.3301,1.46,0.4401,1.9399c-0.3201,0.37-0.97,1.12-1.3,1.49c0.41,1.24,0.8301,2.47,1.25,3.72
		c-2.7-0.71-3.52-3.52-5.2-5.3999c0.11,1.6499,0.2899,3.2999,0.51,4.9399c-3.3,0.35-6.5701,0.86-9.8,1.5699
		c1.67,4.12,6.49,5.7201,7.78,9.9901c-1.8101-0.9202-3.42-2.1401-5.12-3.2101c-1.8101,0.5399-3.5701,1.23-5.4501,1.42
		c-0.23,1.03-0.4399,2.0699-0.63,3.1c-1.5399-0.4701-3.0499-0.9901-4.61-1.29c-0.59,2.4401,2.26,4.1901,3.8,5.74
		c-1.39,1.08-2.7,2.2301-3.96,3.4401c3.24,0.34,6.98,0.33,9.12,3.24c-4.1001-0.3701-8.9701-1.13-12.3201,1.84
		c1.72,0.27,3.4601,0.53,5.2101,0.8199c-1.26,1.1301-2.92,1.54-4.4901,1.97c-0.0299,1.7001,0.37,3.7401-1.4299,4.7101
		c-3.1,2.16-3.0701,6.26-3.52,9.62c-1.8099,0.16-3.62,0.28-5.39,0.61c-0.4399,1.5,0.3301,3.04,0.5701,4.54
		c-1.87-1.1-3.76-2.13-5.6801-3.1c-0.15,1.95-0.28,3.8899-0.4,5.85c-1.09,0.5599-2.1699,1.12-3.24,1.6901
		c0.03,1.5999,0.0701,3.2,0.09,4.7999c-2.71-0.5-5.0299-1.99-7.47-3.15c0.4501,3.9299,2.12,7.53,4.03,10.95
		c-3.11,0.01-5.8199-1.47-8.01-3.5699c-0.2,2.91-0.48,6.0599,1.59,8.4301c-1.3999-0.24-2.8199-0.6301-4.21-0.27
		c-0.12,1.47,0.84,2.7,1.42,3.98c-1.6901-0.27-3.4-0.3301-4.9801,0.38c0.5701,0.92,1.17,1.85,1.77,2.77
		c-1.9399,0.24-3.86,0.49-5.77,0.7699c1.8601,1.1702,3.8401,2.27,5.13,4.1301c-1.72,0.4099-3.5199,0.6899-4.9299,1.7999
		c1.5,0.9401,3,1.88,4.48,2.89c-2.74,0.45-5.51,0.04-8.24-0.1799c0.46,2.49,0.85,5.01,1.14,7.53
		c-2.01,0.6599-3.92,1.5499-5.53,2.9299c1.71,0.3101,3.45,0.62,5.17,0.99c-2.3,1.11-4.8201,1.1899-7.3,0.87
		c2.01,2.42,5.08,3.61,7.2001,5.9501c-1.7101,1.76-3.52,3.4199-5.1901,5.22c1.4401-0.0701,2.87-0.16,4.33-0.25
		c-1.88,1.8099-3.9199,3.4199-6.0399,4.9199c0.34,0.26,1.02,0.78,1.36,1.05c-0.39,0.78-0.89,1.53-1.0801,2.3899
		c1.8301,0.51,3.78,0.6101,5.67,0.9001c-0.63,0.1899-1.9,0.58-2.53,0.77c-0.0399,0.3099-0.1,0.9299-0.13,1.23
		c-0.97,0.6599-1.88,1.3599-2.6599,2.21c2.0299,0.1399,4.0699,0.1799,6.13,0.2c0.61,0.26,1.83,0.8,2.4399,1.0601
		c-0.3199,0.29-0.96,0.87-1.27,1.1499c-2.9399,0.5601-5.9399,0.6401-8.88,0.1501c0.76,0.97,1.52,1.95,2.29,2.9399
		c-0.36,2.8-0.04,5.61,0.84,8.3c1.02,0.5299,2.0601,1.0699,3.1,1.6099c-1.4399,0.4701-2.8799,0.9401-4.2999,1.41
		c1.72,1.8101,5.71,3.02,3.8199,6.11c-2.6899-0.49-5.39-0.95-8.09-1.29c1.13,1.9001,2.5,3.6401,4.01,5.25
		c-1.87,2.4202-4.04,4.6301-6.78,6.0601c2.64,0.5601,5.28,1.14,7.9301,1.74c-2.17,0.74-4.37,1.38-6.47,2.27
		c-0.0801,2,1.7799,3.48,2.21,5.4c-0.04,1.5699-0.59,3.08-0.96,4.6c-1.16,0.22-2.3,0.4399-3.4301,0.67
		c0.08,1.45,0.15,2.91,0.22,4.37c0.84-0.16,1.7001-0.3201,2.5601-0.47c0.2999,2.75-2.48,2.98-4.4501,3.6899
		c1.4401,1.28,2.88,2.5901,4.29,3.9199c-2.72-0.4199-5.39-1.0798-8.05-1.7c0.9501,2.88,3.9301,4.29,5.4501,6.8401
		c-1.0801,0.49-2.14,0.99-3.2001,1.48c1.9301,0.83,5.2001,1.1399,4.5,4.01c0.7101,0.6799,2.27,2.3699,0.27,2.54
		c-3.38,0.5-6.8099,0.6199-10.14,1.3499c1.1001,1.4401,2.3501,2.75,3.7001,3.9701c-0.37,0.75-0.77,1.5-1.04,2.2999
		c0.39,2.8601,3.55,3.64,5.53,5.1801c-3.49,0.3099-5.98-2.5-8.9501-3.83c0.53,1.8799,1.1001,3.75,1.66,5.6199
		c1.25,0.8201,2.5,1.6501,3.74,2.51c-1.62,0.6301-3.3099,0.98-5,1.2101c0.12,0.86,0.26,1.72,0.42,2.59
		c-2.33-0.35-4.66-0.61-6.99-0.6599c2.36,1.8199,5.41,2.5199,7.6,4.6199c-1.89,2.4301-4.85,3.3801-7.5,4.6901
		c3.72,0.11,7.47,0.15,11.17,0.75c-2.75,3.6801-7.63,3.4501-11.64,4.5399c3.11,2.3101,7.08,2.78,10.49,4.5
		c-0.64,0.2101-1.9401,0.6401-2.5801,0.8601c-0.0099,0.6699,0.01,1.36,0.03,2.04c-0.89,1.49-1.71,3.0199-2.78,4.3799
		c-2.1499,0.78-3.6399-2.22-5.58-1.58c-0.24,2.25,2.5,3.77,3.6901,5.5599c-1.3301,0.23-2.64,0.4601-3.9301,0.7101
		c2.21,1.84,4.85,3.0199,7.3,4.51c-2.52,0.12-5.0801-0.01-7.5,0.71c0.88,1.2201,1.7899,2.4401,2.71,3.67
		c-4.5601,1.5699-9.23,2.9099-13.4701,5.24c2.6301,0.53,5.2401,1.27,7.6101,2.6c0,0.78,0.01,1.5599,0.04,2.35
		c1.62,0.62,3.2699,1.22,4.95,1.75c1.78,0.23,3.5599,0.64,5.3,1.16c-2.5-0.0599-4.4601,1.39-6.1901,3c-2.79-0.2999-5,1.01-6.67,3.14
		c2.7001,1.6499,5.99,2.58,8.1001,5.0699c-2.38-0.0199-4.8401-0.34-7.01,0.85c0.4099,0.4401,1.24,1.3201,1.6499,1.77
		c-0.5699,1.4301-1.1199,2.8601-1.6599,4.3c2.47,0.3201,5.08,0.74,6.46,3.1c-1.88,0.11-3.71,0.38-5.54,0.65
		c0.6401,2.52,3.04,3.77,4.9701,5.23c-0.51,0.3201-1.54,0.98-2.05,1.3c-1.9301-0.1301-3.84-0.28-5.74-0.4501
		c0.72,1.92-0.2899,3.4801-1.58,4.85c2.97,1.5701,6.13,3.3,7.4199,6.6201c-3.4099,0.2899-7.4199-1.5901-10.45,0.1899
		c2.29,1.1699,5.03,1.6799,6.63,3.9099c-3.7301,1.79-7.52-0.3799-11.2001-1.0898c1.52,3.5199,4.55,6.0399,6.3401,9.4099
		c-1.75,3.62-6.41,0.3201-9.3,0.11c-1.34,1.37-2.84,2.4901-4.86,2.26c3.6901,2.08,6.74,4.9301,9.47,8.15
		c-2.38,0.75-4.73,1.5601-7.0499,2.4c-0.22,1.89-0.48,3.7599-0.73,5.65c-1.9501-0.4501-3.9501-0.8201-5.92-0.3301
		c1.9301,1.8501,5.87,3.1101,5.1901,6.4301c-0.8901,3.4-5.3101,2.5199-7.1101,5.0499c-1.52,1.46-1.3899,3.6801-1.46,5.6101
		c-0.41,0.3699-1.22,1.09-1.63,1.46c0.7799,1.1,1.5599,2.2,2.36,3.3101c-1.26,0.9299-2.65,1.6399-4.0801,2.22
		c-1.6799,3.0499-1.1399,6.5499-0.01,9.6899c-1.3699,1.3-2.7799,2.54-4.22,3.75c0.6201,0.64,1.25,1.3,1.9001,1.96
		c-0.1401,0.9001-0.25,1.8301-0.3601,2.74c-1.88,0.98-4.12,1.79-4.6599,4.0901c2.3398,0.37,4.72,0.55,7.0999,0.36
		c1.2101,0.1801,2.4102,0.4401,3.6101,0.77c-1.8601,2.24-4.3101,4.47-7.46,3.72c0.8398,1.41,1.76,2.7999,2.22,4.41
		c-0.4301,2.49-3.3801,3.1899-4.3501,5.3999c1.0801,0.4001,2.1801,0.8101,3.29,1.23c-0.0701,2.5,1.89,3.9401,3.76,5.2301
		c-1.1599,1.3099-2.0701,2.7999-2.79,4.39c-1.78,0.3-3.5699,0.6499-5.3099,1.09c2.49,2.1901,6.12,2.61,8.23,5.2999
		c-2.5,0.4202-5.33,0.2101-7.34,2.01c0.73,0.74,1.48,1.49,2.23,2.25c0.23,1.92,0.5,3.8501,0.8,5.78
		c-1.41,0.5801-2.8,1.16-4.1901,1.75c-0.35,0.01-1.0499,0.02-1.4,0.02c0.0901,1.01,0.2,2.04,0.3101,3.0601
		c1.54,1.24,3.0699,2.49,4.6,3.76c-1.92,2.1099-4,4.1299-6.67,5.25c0.24,0.79,0.5,1.6,0.77,2.4099
		c-0.59,0.55-1.1699,1.1101-1.73,1.6801c0.75,1.16,1.51,2.3199,2.29,3.48c-0.42,0.7201-0.8201,1.4401-1.22,2.17
		c-0.0801,2.46,0.1699,4.9199,0.1899,7.3799c-2.03,0.54-3.97-0.9099-5.9-1.3799c1.42,3.5599,5.85,4.61,6.99,8.4199
		c-3.4301-0.3-6.73,0.9-9.6901,2.53c1.3,0.72,4.8801,1.55,3.6001,3.5601c-2.3,0.5-4.63-0.1101-6.91-0.3101
		c0.64,1.77,2.37,2.45,3.9801,3.1699c-1.6101,1.02-3.1901,2.05-4.75,3.1101c2.9299,0.4299,5.9099,0.26,8.8699,0.3201
		c1.48,0.0798,2.02,1.5499,2.28,2.7899c-1.0701-0.16-2.13-0.3199-3.1699-0.48c0.7899,1.6801,1.7899,3.47,0.8499,5.33
		c-3.6199,0.1001-6.8398,1.8-9.7,3.8601c0.4301,0.6699,0.91,1.3198,1.4401,1.95c-0.8199,0.28-1.62,0.5699-2.41,0.8699
		c0.1001,0.4801,0.29,1.4302,0.39,1.9102c1.9601,0.26,3.92,0.6899,5.7899,1.3999c-1.3499,1.6899-2.72,3.3701-4.1399,5
		c-3.0701-0.1599-6.1001,0.46-9.13,0.73c2.92,0.8801,6.7899,0.99,8.38,4.0701c0.5699,1.24,2.11,2.77,1.2,4.1599
		c-2.33-0.1499-4.58-0.8099-6.84-1.2899c2.5,2.91,4.49,6.16,5.9401,9.72c-3.8601,1.17-7.8801,1.86-11.9102,1.36
		c1.6501,2.72,4.9401,4.25,4.9301,7.9c-1.88-1.0499-3.23-3.08-5.47-3.34c0.27,3.1899,0.76,6.4399,0.42,9.6299
		c-1.77,0.03-3.52-0.0999-5.26-0.21c-1.28-1.08-2.71-1.95-4.3-2.4299c1.23,4.6799,6.4399,8.22,5.16,13.3899
		c-2.09-1.2799-4.1801-2.5999-6.53-3.3198c1.2201,1.7599,2.7999,3.23,4.25,4.8099c-3.34-0.37-7.12-3.03-10.16-0.54
		c2.4301,1.01,5.4,1.27,7.15,3.4701c-1.66,0.1899-3.3099,0.3398-4.96,0.49c1.37,1.5099,2.6801,3.08,3.92,4.71
		c-1.49-0.15-2.9501-0.28-4.4102-0.39c-1.74,1.5-3.8099,2.5-5.9099,3.4c2.0701,1.1,4.1799,2.16,6.4099,2.95
		c1.04,1.34,1.9202,2.81,2.7001,4.33c-1.86,1.25-3.4401,2.83-4.84,4.56c-1.4299-0.3-2.8401-0.6-4.24-0.89
		c0.2,1.16,0.4299,2.35,0.6599,3.53c-1.28,1.47-2.52,2.97-3.73,4.49c1.22,2.14,2.3401,4.41,2.17,6.96
		c-2.02-1.2-3.9301-2.56-5.74-4.04c-0.6,2.34-1.5599,4.57-2.7999,6.64c1.49,1,2.6099,2.34,2.6799,4.22
		c-2.7-0.11-5.4-0.13-8.0901,0.04c1.2001,2.07,2.51,4.07,3.9102,6.02c-3.6802-0.7599-7.52-1.0099-11.05,0.55
		c2.1,1.74,4.6499,2.74,7.1799,3.7c0.3,0.5,0.9,1.4901,1.2,1.98c-1.3099,0.15-2.6099,0.31-3.8899,0.47
		c0.1,0.4,0.3101,1.2,0.4099,1.6c2.1401,0.56,4.26,1.21,6.3601,1.97c-0.46,0.26-1.3801,0.76-1.8301,1.02
		c-3.0699,0.02-6.1599,0.04-9.12,0.9c0.55,0.89,1.11,1.79,1.6901,2.69c-1.41,0.4-2.79,0.85-4.1001,1.45
		c-0.6799,0.08-2.03,0.23-2.7,0.31c0.3,0.18,0.9,0.54,1.2,0.72c1.01,2.43,4.22,2.48,6.23,3.82c-3.01,2.17-7.0999,0.48-9.8999,2.8199
		c1.27,0.76,2.55,1.53,3.84,2.3c-1.13,1.0699-2.49,1.8-3.92,2.35c0.6201,0.62,1.25,1.27,1.9001,1.92
		c-1.6001,0.65-3.1101-0.33-4.55-0.83c-1.3801,0.7599-2.8301,1.39-4.28,1.96c-1.05,2.86-2.2,5.68-3.24,8.55
		c-0.3501-2.71-0.64-5.42-0.8201-8.13c-0.98,0.4301-2.54,0.1201-3.03,1.26c-0.3899,2.17-0.3899,4.38-0.51,6.58
		c-0.9399-0.94-1.8699-1.87-2.7999-2.78c0.15,2.3199,0.4501,4.64,0.89,6.9399c-0.65-0.64-1.29-1.27-1.9199-1.8799
		c-0.6001,0.27-1.8101,0.81-2.4102,1.08c-1.8298-2.04-3.0199-4.5-4.0699-6.98c-0.71,1.47-0.34,4.06-2.2599,4.5
		c-1.2201-2.07-1.3701-5.23-4.1602-5.78c0.9301,3.13,3.17,5.92,2.76,9.35c-1.21-0.6-2.3899-1.2-3.5699-1.8
		c-0.7999,0.81-1.59,1.64-2.37,2.47c0.37,1.7,0.74,3.41,1.0901,5.13c-3.5801-1.82-6.2001-4.89-8.8201-7.83
		c-0.4299,2.16-0.8,4.37-1.67,6.42c1.2301,3.78,2.8099,7.47,3.51,11.41c-4.14-0.91-5.9301-5.19-8.65-7.98
		c0.3201,1.91,0.22,3.86-0.55,5.67c-1.5798-0.47-3.1299-1.01-4.73-1.28c-1.51,0.8-0.02,2.59-0.0399,3.84
		c-1.0499,0.37-2.09,0.75-3.12,1.15c0.29,1.39,0.59,2.79,0.8999,4.2c-0.45-0.06-1.3499-0.17-1.7999-0.23
		c0.61,2.07,1.2201,4.15,1.8199,6.24c-3.33-0.74-6.6899-1.44-10.1099-1.42c2.2899,3.08,7.6699,4.45,8.0399,8.49
		c-3.85,0.15-6.85-2.97-10.0399-4.72c-0.8801,2.63,1.6199,4.75,2.1799,7.2c-2.2-1.04-3.4-3.39-5.6799-4.31
		c0.47,1.01,0.95,2.03,1.45,3.06c-0.46,2.71,0.4399,5.33,1.0699,7.94c-1.74-0.3799-3.47-0.79-5.1801-1.19
		c-0.46,1.67-0.8799,3.36-1.26,5.0601c-1.5399-1.54-3.0399-3.13-4.7799-4.4301c-0.92,0.23-1.7101,0.75-2.53,1.1801
		c2.3,2.23,4.7201,4.6899,4.8099,8.1299c-1.5599-2.06-3.6199-3.59-6.0399-4.47c-0.5399-1.5-2.3199-6.22-3.91-3.16
		c0,3.05,0.8,6.05,0.8101,9.11c-2.1899-2.35-3.17-5.46-4.66-8.23c0.1,3.34,0.0599,6.73,0.9501,9.9901
		c0.28,1.65,1.5399,3.92-0.9001,4.5099c-1.0399-3.3199-3.3899-5.94-5.7899-8.34c0.17,1.36,0.35,2.71,0.5499,4.09
		c-1.3398-0.62-2.6699-1.22-4-1.8199c0.99,1.79,2.2201,3.44,3.6602,4.91c0.01,0.93,0,1.86,0.0199,2.82
		c-2.5099-1.07-5.0599-2.02-7.65-2.82c1.3201,2.26,2.6901,4.49,4.0601,6.73c-0.49,0.23-1.48,0.68-1.98,0.91
		c-3.05-2.11-6.0801-4.33-9.54-5.78c0.86,2.13,1.8101,4.23,2.5701,6.42c-1.22-0.04-2.4401-0.07-3.6401-0.09
		c-0.3099-0.32-0.9199-0.97-1.23-1.29c-0.1799,1.61-0.3499,3.23-0.51,4.86c-1.8799-0.45-3.6899-1.08-5.4199-1.92
		c0.27,1.83,0.49,3.67,0.72,5.52c-1.1899-0.14-2.38-0.29-3.55-0.41c0.04,0.49,0.1201,1.48,0.1602,1.98
		c-2.3901-1.5-4.3501-3.55-6.6401-5.16c1.8901,3.62,4.25,7.89,8.0601,9.63c0.85,0.84,1.71,1.7,2.5601,2.58
		c-0.28,0.41-0.8301,1.23-1.1101,1.64c-2.6199-1.38-4.04-4.5-7.2-4.96c0.55,1.46,1.14,2.91,1.71,4.39
		c-2.51,0.78-4.4399-3.14-6.53-0.97c-1.1499-0.01-2.2999-0.04-3.4199-0.04c0.9399,2.23,2.1499,4.38,2.74,6.75
		c0.22,1.3-1.3401,2.22-2.4,1.45c-1.62-1.28-3.12-2.72-4.99-3.62c0.1901,1.57,2.24,3.67,0.49,4.92
		c-2.67-1.44-5.4401-2.77-8.5599-2.54c2.1399,2.76,3.6899,6.01,3.3099,9.6c-1.16,0.46-2.3099,0.97-3.51,1.26
		c-1.62-0.9-2.66-2.47-3.83-3.83c-0.72,0.89-1.3601,1.86-2.21,2.64c-1.75-0.14-3.4601-0.42-5.1901-0.61
		c1.33,2.35,4.5,2.91,5.4601,5.55c-1.1301-0.52-2.24-1.04-3.3401-1.57c1.52,2.85,2.97,5.77,3.91,8.88c-3.35,0.24-5-2.99-6.88-5.15
		c-0.53,1.58-1,3.18-1.41,4.82c-4.12-1.48-7.14-5.29-11.6-5.83c2.39,2.99,5.34,5.56,7.1499,9c0.9901,1.97,2.6501,3.51,4.8,4.14
		c0.8,1.1,1.67,2.13,2.53,3.22c-2.6799,1.47-5.6799,0.6-8.12-0.88c-0.2999,0.44-0.91,1.31-1.22,1.75c-0.5-0.09-1.51-0.26-2.02-0.34
		c-1.16-1.36-2.42-2.62-3.7201-3.83c-0.1799,0.71-0.5399,2.12-0.72,2.83c-1.52-0.28-3.02-0.54-4.51-0.79
		c1.6201,2.81,3.3701,5.55,5.1501,8.27c-2.2301,0.37-4.49,0.66-6.6602,1.28c2.2101,2.02,4.7001,3.84,6.3701,6.38
		c1.1,1.19,0.84,2.62-0.1001,3.85c-0.49-0.41-1.48-1.24-1.98-1.65l0.79-1c-2.87-2.17-6.11-4.06-9.8-4.09
		c2.4,2.36,5.53,4.22,6.3901,7.73c-0.5701,1.01-1.1201,2.03-1.6602,3.06c-2.1799-1.37-4.3499-2.75-6.6099-3.96
		c0.47,1.41,0.97,2.82,1.5,4.23c0.4399,0.19,1.2999,0.57,1.73,0.75l0.1499,1.11c-0.9299,0.46-1.84,0.96-2.76,1.46
		c-1.09-0.83-2.1799-1.64-3.27-2.45c-0.21,1.57-0.3799,3.16-0.72,4.73c-2.26,1.21-4.27-0.82-5.46-2.52
		c-0.72,1.4901-0.89,3.11-0.72,4.75c-1.5801-0.23-3.22-0.18-4.7-0.8c-1.45-1.18-2.53-2.71-3.69-4.14c-0.31,2.96,1.32,7.05-1.75,8.96
		c-1.08-1.65-2.03-3.57-4.06-4.13c-0.03,0.65-0.08,1.96-0.1,2.61c0.44-0.05,1.33-0.16,1.78-0.21c0.26,2.22,0.14,4.46-0.26,6.67
		c-2.58-1.95-3.95-4.87-4.79-7.91c-1.17,1.39-2.41,2.74-3.72,4c-1.69-2.28-3.16-4.7-4.58-7.14c-2.64,3.14,0.19,7.61-2.54,10.72
		c-1.74-1.7-3.24-3.62-4.58-5.64c-0.7,1.45-1.38,2.89-2,4.39c-2.46-1.22-4.79-2.66-7.22-3.91c-0.57-1.03-1.13-2.05-1.68-3.06
		c-1.11,0.32-2.23,0.64-3.32,0.99c0.68,0.97,1.34,1.92,2.03,2.92c-1.83,0.57-3.48-0.64-5.08-1.29c0.64,2.4,1.83,5.29-0.82,6.86
		c-0.21-0.37-0.64-1.12-0.85-1.49c-0.83,0.95-1.65,1.91-2.46,2.88c-0.18-1.7-0.32-3.37-0.46-5.04c-1.56,1.47-3.07,2.99-4.51,4.58
		c-0.44-0.29-1.33-0.87-1.77-1.16c0.09-0.84,0.19-1.67,0.29-2.49c-1.2,0.9-2.39,1.81-3.59,2.72c-0.95-2.9-0.67-5.94-0.4-8.91
		c-2.68,1.04-2.39,4.69-4.53,6.42c-1.34-0.88-2.8199-1.59-3.96-2.7c-0.68-1.87-1.07-3.81-1.63-5.69c-3.06,2.82-5.68,6.33-9.56,8.11
		c-0.03-1.97,0.24-3.91,0.69-5.81c-0.52-0.3-1.55-0.89-2.07-1.19c-0.96,1.1801-1.27,3.42-3.02,3.58c-1.02-2.4-1.7-5.33-4.89-5.38
		c-1.61,3.36,0.04,7.42-2.08,10.57c-0.29-1.22-0.56-2.43-0.82-3.62c-0.39,0.04-1.18,0.11-1.57,0.15c-2.09-3.16-2.99-6.88-4.84-10.14
		c-0.25,0.01-0.75,0.02-1,0.03c-2.12,2.7-4.09,6.01-7.85,6.47c-0.86,0.85-1.8,1.62-2.98,1.97c-0.45-2.3-0.54-4.78-1.97-6.72
		c-0.94,0.84-1.86,1.7-2.77,2.57c-0.3701-0.03-1.11-0.08-1.47-0.11c-0.8,1.39-1.61,2.75-2.44,4.1299c-0.52-1.49-1.01-2.96-1.48-4.44
		c-0.5,1.23-0.11,3.13-1.4,3.91c-0.89-0.64-0.31-1.95-0.5-2.84c-0.22-0.23-0.68-0.7-0.9-0.93c-0.89,1.14-1.67,2.43-2.86,3.3
		c-0.8-0.35-1.56-0.77-2.3-1.17c-0.37,1.22-0.73,2.47-1.11,3.71c-1.16-3.56,1.23-6.63,1.44-10.07c-0.68,0.85-1.33,1.73-1.98,2.62
		c-1.86,0.41-3.71,0.89-5.6,1.1c-0.3-2.06,2.05-3.7,2.85-5.58c-1.39,0.53-2.77,1.09-4.14,1.66c-0.65-0.64-1.3-1.26-1.94-1.87
		c-1.76,1.66-3.03,4.98-5.78,4.84c-1.12-3.02,0.37-5.97,1.64-8.65c-1.92,0.06-3.33,1.27-4.59,2.58c-0.17-0.39-0.4901-1.17-0.66-1.56
		c-0.56,1.48-1.18,3-2.61,3.88c0.2-2.75,0.58-5.47,0.78-8.2c-1.65,1.54-2.22,3.77-2.96,5.83c-1.24-0.34-2.48-0.67-3.7-0.98
		c-1.28-2.48-0.78-5.21-0.37-7.83c-3.62,1.19-4.3,6.79-8.72,6.14c0.61-0.84,1.2401-1.64,1.88-2.44c-0.94-0.27-2.8,0.69-2.9-0.78
		c0.55-2.62,1.5-5.14,1.86-7.79c-3.12,3.03-7.49,3.38-11.39,4.79c0.02-2.6-0.22-5.19-0.13-7.78c-1.01,0.52-2.02,1.06-3.02,1.6
		c-0.33-0.38-0.97-1.14-1.3-1.52c-0.5,0.14-1.5,0.44-2,0.59c-0.09-0.61-0.27-1.8101-0.37-2.41c-0.9,0.49-1.79,0.99-2.68,1.51
		c-0.82-3.02-1.05-6.15-1.69-9.18c-1.61-1.81-3.48,0.44-5.09,1.09c-0.45-0.28-1.33-0.83-1.78-1.11c-0.63-1-0.72-2.68-2.23-2.61
		c0.23,1.39,0.61,2.76,1.01,4.14c-0.98,1.06-2.03,2.05-3.16,2.95c1.06-4.29,0.63-8.64-0.44-12.87c-0.43,1.92-1.05,3.82-2.52,5.22
		c-0.65-1.14-1.29-2.26-1.92-3.38c-0.83,0.56-2.8701,3.16-3.08,0.89c1.04-3.77,3.1-7.24,3.41-11.21c-1.03,1.26-1.62,2.88-2.86,3.94
		c-2.57,0.72-5.27,0.7-7.91,0.86c0.52-1.5,1.64-2.52,3-3.25c-1.57-0.37-3.14-0.71-4.72-1.01c0.56-1.39,1.12-2.77,1.68-4.14
		c-1.27-0.28-2.84-1.7-3.96-0.4c-1.31,1.57-1.89,3.58-2.48,5.5c-0.38,0.34-1.13,1.01-1.51,1.34l1.2,0.47
		c-1.62,0.92-3.08,2.1-4.45,3.37c-0.83-0.24-2.49-0.72-3.3199-0.96c0.22-1.41,0.65-2.76,1.48-3.92c1.69-2.42,1.51-5.51,1.93-8.3
		c-3.98-0.19-7.99,0.19-11.87,1.08c-0.78-1.93-1.44-3.9-2.44-5.71c-1.55-0.67-3.25-0.8-4.88-1.11c0.13-1.51,0.11-3.03-0.22-4.5
		c-1.42,0.6-2.82,1.22-4.22,1.85c-0.49-1.6-0.97-3.2-1.43-4.78c-1.51,0.61-3.02,1.22-4.52,1.84c0.25-1.69,0.51-3.35,0.78-5.02
		c-2.38,0.43-4.78,0.69-7.19,0.66c-0.31-1.45-0.61-2.9-0.91-4.34c-1.11,0.15-2.21,0.3-3.31,0.47c-0.49-0.79-0.98-1.57-1.46-2.34
		c-0.42,0.04-1.25,0.1201-1.67,0.16c-0.39-0.26-1.18-0.79-1.5699-1.06c-2.28,0.21-3.73-1.62-5.45-2.74c-1.77-0.82-3.76-0.9-5.64-1.3
		c-1.35-1.6-2.99-2.9-5.03-3.43c-0.27,1.2-0.58,2.41-0.92,3.62c-2.74,1.03-1.45-2.94-1.89-4.48c-2.47,0.13-4.92,0.33-7.37,0.61
		c-0.19-0.65-0.57-1.95-0.75-2.6c-1.13,0.11-2.25,0.24-3.37,0.38c0.17-1.25,0.34-2.5,0.51-3.73c-2.97,0.19-4.83,2.81-7.35,4.06
		c0.03-0.86,0.06-1.71,0.09-2.55c-3.29-0.6-3.16-4.08-3.69-6.68c-2.03,0.64-3.57,2.18-3.83,4.36c-0.39,0.3-1.17,0.89-1.56,1.1899
		c0.03-2.6,0.41-5.17,0.8799-7.7c-1.93,1.33-3.8199,2.73-5.6299,4.22c-0.51-2.85-2.95-4.51-4.92-6.33
		c-0.85,1.03-1.69,2.08-2.52,3.13c-0.47,0.04-1.4,0.12-1.86,0.16c-0.09-2.4,0.4-5.05-1.08-7.13c-0.76,0.74-1.51,1.49-2.26,2.26
		c-1.99-1.73-4.42-2.26-6.91-1.27c-1.07-1.28-2.12-2.58-3.15-3.88c-2.65-0.22-5.3,0.03-7.94-0.11c-4.73-0.93-9.24-2.81-13.98-3.61
		c-5.77,0.11-11.3-3.67-16.98-1.14c-2.83-2.28-6.55-2.65-9.98-1.65c-3.73,1.39-6.65-3.37-10.46-1.76c-2.51,0.06-4.81,3.19-7.22,1.57
		c-0.55-1.34-1.33-2.54-2.23-3.64c-2.43,0.7-4.79,0.46-5.71-2.2401c-2.15,0.66-4.24,1.52-6.23,2.58
		c-0.2599-0.51-0.77-1.54-1.03-2.05c-0.69-0.06-1.37-0.11-2.05-0.15c-0.85-0.71-1.7-1.41-2.55-2.1c-1.05,1.31-1.77,3.17-3.56,3.64
		c-2.49-0.92-4-3.27-5.9-4.97c0.26,1.83,0.56,3.67,0.86,5.51c-2.68,0.12-5.34-0.18-8.01-0.27c-1.77,0.06-2.85,1.78-4.16,2.76
		c-0.87-1.78-1.78-3.52-2.73-5.24c-1.83,1.61-3.6,3.28-5.33,5c-0.87-0.52-1.7401-1.03-2.61-1.54c-0.5,0.84-1.0099,1.69-1.5099,2.54
		c-0.75-0.5-1.5-0.97-2.25-1.45c-0.15,0.64-0.46,1.92-0.61,2.56c-1.14-0.24-2.27-0.47-3.4-0.69c0.2,0.83,0.41,1.67,0.62,2.51
		c-2.27-1.29-4.86-1.6-7.43-1.61c0.18,1.73-0.15,3.44-1.04,4.97c-1.49-2.24-3.13-4.37-5.23-6.0699c0.34,2.29,0.52,4.6,0.62,6.92
		c-1.8,0.93-3.51-0.25-5.28-0.24c-2.92,1.42-5.2401,4.06-8.6201,4.49c-0.37,0.3-1.1,0.92-1.47,1.23c-2.06-0.04-4.12-0.05-6.17,0.01
		c-1.1,2.36-2.76,4.37-4.77,6.02c-1.21-0.19-2.42-0.39-3.63-0.44c-2.06,0.4-1.78,2.9-2.44,4.43c-2.11-0.22-4.22-0.34-6.34-0.37
		c-0.2,1.22-0.4,2.46-0.6,3.7c-3.11-1.75-4.44,1.95-7.04,2.83c-0.52,0.94-1.01,1.92-1.57,2.86c-1.63-0.58-3.16-1.39-4.71-2.1299
		c-0.33,1.79-0.71,3.58-1.17,5.36c-0.9-0.19-1.8-0.37-2.69-0.53c-0.45,1.04-0.89,2.1-1.33,3.16c-0.61-1.05-1.21-2.08-1.81-3.1
		c-1.3,2.06-2.21,4.33-2.76,6.71c-1.49-0.24-2.98-0.47-4.46-0.69c0.21,3,1.66,5.66,2.52,8.5c-3.08,1.05-5.8101-1.69-8.59-2.65
		c0.35,2.32,0.9,4.61,1.67,6.83c-1.95-1.51-4.29-2.25-6.75-1.83c0.58,1.21,1.18,2.4301,1.78,3.65c-0.8-0.1-1.61-0.18-2.41-0.25
		c-0.19,1.01-0.38,2.04-0.57,3.09c-0.62,0.21-1.85,0.62-2.46,0.83c0.13,1.48,0.27,2.98,0.42,4.48c-1.32,0.15-2.63,0.31-3.94,0.48
		c-0.55,0.94-1.1,1.86-1.65,2.82c-0.0601,0.6-0.1801,1.79-0.2401,2.39c-0.37-0.28-1.12-0.86-1.49-1.14
		c-0.88,0.33-0.72,1.45-1.04,2.19c-1.11,0.23-2.23,0.46-3.34,0.71c0.69,1.33,1.38,2.67,2.08,4.02c-1.49,0.46-3,0.88-4.45,1.51
		c-0.42,1.24,1.01,2.21,1.4,3.32c-1.67,4.81-8.82,4.54-10.04,9.73c1.11,1.81,2.64,3.31,4.08,4.86c-1.74-0.34-3.49-0.61-5.25-0.79
		c0.82,2.29,2.96,3.69,4.2,5.74c-2.26,0-4.53-0.25-6.79-0.15c-1.6801-0.05-2.01,1.91-2.79,3c-0.57,0.21-1.71,0.64-2.28,0.85
		c0.78,2.23,2.89,4.52,2.18,6.97c-2.16,1.46-4.83,1.26-7.28,0.95c0.55,1.17,1.1,2.34,1.65,3.53c-1.91,0.59-3.82,1.21-5.72,1.84
		c2.37,1.16,4.71,2.4,6.98,3.79c-0.56,0.31-1.67,0.95-2.23,1.27c-0.31,0.94-0.62,1.88-0.92,2.85c-0.81-0.14-1.61-0.26-2.41-0.37
		c-0.16,0.61-0.49,1.82-0.65,2.43c-1.46,0.17-2.91,0.35-4.36,0.53c1.3,0.91,1.12,2.23,0.59,3.58c-1.31,0.16-2.62,0.34-3.92,0.54
		c-0.03,3.22,0.91,6.31,1.88,9.35c-0.63,0.19-1.9,0.58-2.54,0.77c-0.18,0.53-0.56,1.59-0.74,2.1201c-1.21,0.06-2.42,0.16-3.6201,0.3
		c1.32,1.26,2.65,2.52,3.95,3.82c-0.77,0.23-2.32,0.69-3.09,0.92c0.97,1.3,2.1,2.45,3.21,3.65c-1.69,0.85-3.58,1.31-5.15,2.41
		c-0.99-0.17-1.98-0.33-2.97-0.48c0.8,2.18,2.4,3.89,3.95,5.58c-2.34-0.3-4.69-0.52-7.04-0.61c1.43,1.37,3.09,2.47,4.87,3.35
		c-2.31,0.6299-3.63,2.61-4.88,4.49c2.3,1.74,5.02,3.25,6.18,6.05c-2.75,0.39-4.91-1.57-7.11-2.87c0.38,1.59,0.78,3.19,1,4.84
		c-1.69,1.57-4.28,1.94-5.8,3.81c2.1,1.08,4.67,0.66,6.8799,1.54c-2.09,1.08-4.22,2.1-6.34,3.12c-1.27-0.08-2.54-0.17-3.81-0.22
		c1.08,2.61,2.5,5.05,4.01,7.44c-1.24,0.22-2.48,0.47-3.71,0.75c0.74,0.66,1.51,1.29,2.26,1.97c-2.08,1.95-0.52,4.34,1.47,5.59
		c-3.41,0.39-5.05-2.72-7.62-4.23c0.52,1.42,1.13,2.83,1.56,4.3c0.08,2.02-1.12,3.86-2.24,5.47c-1.84,0.5701-3.76-0.0699-5.61-0.24
		c0.21,1.45,0.78,2.83,1.57,4.08c-0.2,1.4701-0.49,2.9501-0.95,4.3801c-0.35-0.4-1.05-1.2101-1.4-1.62
		c-1.71,2.6799,0.98,5.1399,0.98,7.87c-2.64,2.38-5.83-0.5801-8.22-1.89c0.69,1.95,1.56,3.86,2.65,5.65
		c-3.28,0.2799-6.29,1.98-9.64,1.61c1.71,1.84,4.08,2.7899,6.06,4.2799c-1.7-0.1399-3.39-0.34-5.09-0.5299
		c0.99,1.59,1.98,3.1899,2.95,4.7999c-2.5-0.09-5.05-1.0699-7.5-0.71c-0.07,1.9,3.48,2.62,4.93,3.8199
		c-2.37,0.91-4.91,0.4701-7.34,0.13c1.46,1.65,2.92,3.3101,4.4,4.9701c-1.8799,0.9299-3.78,1.8099-5.61,2.85
		c2.38,1.88,6.19-1.75,8.56,0.7c0.9,0.87,0.54,2.41-0.67,2.75c-4.2,1.9301-9.96,0.65-12.85,4.9501c3.52,0.33,7.97-0.3,10.18,3.12
		c-0.44,0.2-1.34,0.61-1.78,0.8199c1.68,1.08,4.32,1.89,3.92,4.41c-4.78,0.03-8.59-2.6901-12.02-5.7001
		c-0.21,0.4-0.65,1.1901-0.86,1.5901c2.11,2.0699,4.16,4.21,6.1299,6.4299c-1.3199,0.4401-2.64,0.89-3.96,1.35
		c-0.35,1.01-0.69,2.05-1.04,3.0901c2.97,0.84,6,2.2,7.14,5.3099c-1.13,0.8-2.27,1.62-3.42,2.4401c1.37,0.6499,2.71,1.36,4.02,2.13
		c-1.11,0.5599-2.22,1.12-3.33,1.6899c-0.66,0.0701-1.96,0.2001-2.62,0.27c-0.97-0.12-1.93-0.21-2.9-0.28
		c0.23,0.59,0.69,1.76,0.92,2.34c-2.64,0.75-5.4,0.8301-8.13,0.91c4.43,1.4301,9.28,1.85,13.21,4.54c-1.15,0.71-2.3,1.4299-3.4,2.22
		c2.17,1.33,4.7599,1.6,7.17,2.27c-4.43,3.72-10.77,3.41-16.22,4.0699c0.65,1.54,2.44,1.5801,3.86,1.9
		c2.79,0.4301,5.65,0.73,8.21,2.01c-0.98,0.47-1.97,0.96-2.95,1.46c2.39,0.5,4.87,0.7001,7.16,1.6101
		c-3.43,2.21-7.53,2.83-11.28,4.2799c3.71,2.73,9.44-0.63,12.3701,3.15c-1.8701,2.1-3.58,4.35-5.09,6.74
		c1.1,0.3101,2.2,0.64,3.31,0.97c1.01-1.21,2.07-2.4399,3.68-2.7899c-0.4,2.52-1.67,4.74-2.67,7.0499c0.4,1.3,2.57,0.41,3.67,0.7001
		c-0.59,0.72-1.17,1.46-1.75,2.23c0.65,0.89,1.31,1.8,1.97,2.72c1.23-0.51,2.46-1.01,3.71-1.46c-1.27,2.71-4.63,3.1799-6.21,5.61
		c2.98,0.02,5.95,0.2,8.89,0.71c2.25,0.4301,4.64-0.74,6.75,0.4301c-1.2599,1.5699-2.96,3-3.22,5.14
		c-0.29,2.87-2.38,4.9099-4.17,6.99c2.65-0.8201,5.31-1.61,8.05-2.0801c-0.77,1.01-1.54,2.03-2.33,3.05
		c-2.08-1.54-1.34,2.98-1.64,4.15c1.88-0.92,3.73-1.88,5.58-2.85c0.54,0.6499,1.09,1.3199,1.64,2c0.76,0.45,1.51,0.88,2.28,1.36
		c0.78-0.02,1.57-0.02,2.36,0c-1.44,2.64-2.85,5.3199-4.04,8.1c1.4-0.53,2.8-1.04,4.21-1.54c-0.19,1.9-0.44,3.8201-0.77,5.7201
		c0.55-0.05,1.64-0.16,2.18-0.2101c1.24-1.48,2.56-3.11,4.73-2.88c-0.4901,3.72-3.04,6.62-4.33,10.05
		c2.76-1.89,5.39-3.9501,8.01-6.01c0.46,0.35,1.37,1.03,1.82,1.37c-0.29,1.86-0.55,3.72-0.77,5.6c3,0.1,5.94-0.5,8.74-1.53
		c0.2,1.65,0.4,3.3101,0.63,4.99c1.27-0.8199,2.36-1.8799,3.34-3c1.21,2.4301,1.91,5.53,4.56,6.8401c0.67-1.75,1.35-3.5,2.04-5.23
		c0.43,1.0399,0.85,2.09,1.28,3.1499c2.5-0.6599,3.96-2.61,4.46-5.0599c0.45-0.1801,1.36-0.53,1.81-0.71
		c0.82,1.25,1.64,2.5099,2.48,3.7799c0.95-1.2799,1.87-2.5699,2.78-3.86c0.71,0.53,1.42,1.0601,2.14,1.61
		c0.26-0.2999,0.79-0.8999,1.05-1.2c2.89,0.29,5.83,0.33,8.6-0.66c1.82-0.72,3.56,0.63,5.33,0.9501
		c0.11-0.77,0.33-2.3101,0.44-3.0801c0.77,0.85,1.54,1.72,2.32,2.6c1.16-1.25,2.23-2.61,3.62-3.59c1.97-0.53,4.06-0.41,6.03-0.9399
		c1.22-1.27,1.91-2.9301,2.78-4.42c0.79,0.08,1.57,0.1801,2.36,0.3c0.18-0.4801,0.53-1.4501,0.71-1.9401
		c1.33-0.7,2.75-1.2999,3.75-2.46c3.44-3.65,6.84-7.4,9.23-11.84c1.84-0.52,3.69-1.01,5.54-1.4901c-0.59-0.7999-1.18-1.58-1.76-2.36
		c2.17-3.9299,6.72-5.4199,9.33-8.9299c1.5099-2.1901,4.35-2.99,5.6-5.38c2.85-4.75,7.26-8.4,9.74-13.38
		c1.74-3.52,4.67-6.3201,5.87-10.11c0.92-0.35,1.84-0.6801,2.76-0.98c0.72-1.66,1.41-3.3201,2.24-4.91
		c6.25-9.9401,11.81-20.3,17.52-30.55c0.88-2.86,1.66-5.77,3.39-8.26c-0.98-3.51,0.61-6.88,1.88-10.0699
		c-0.03-7,1.53-14.14,5.21-20.15c2.27-3.09,5.57-5.45,6.79-9.24c0.8799-3.17,3.91-4.9,5.4-7.65c0.6-3.54,0.53-7.36,2.5-10.5001
		c1.44-2.36,2.17-5.03,3.28-7.52c1.93-2.93,5.97-5.79,3.63-9.69c2.08-0.5,4.21-0.77,6.35-0.82c0.17-0.52,0.51-1.57,0.68-2.09
		c1.53-0.02,3.05-0.04,4.58-0.04c0.49-0.63,0.98-1.25,1.47-1.85c0.36,0.37,1.08,1.11,1.44,1.48c0.14-1.52,0.29-3.03,0.44-4.52
		c4.26-0.39,8.52-1.08,12.81-0.67c-0.66-1.01-1.31-2-1.95-2.99c1.15-0.74,2.3-1.47,3.4-2.27c0.47,0.75,0.94,1.52,1.41,2.3
		c2.31-3.14,6.23-3.73,9.75-4.64c0.48,1.22,0.95,2.44,1.45,3.69c3.92,0.11,6.48,3.3199,10.02,4.47c0.17,0.73,0.35,1.47,0.53,2.23
		c1.06-0.81,2.13-1.59,3.2-2.36c0.09,1.48,0.19,2.97,0.28,4.49c1.68-1.27,3.53-2.31,5.58-2.84c-0.18,2.01-0.39,4.04-0.63,6.07
		c1.07-0.98,2.13-1.95,3.21-2.91c1.17,1.23,2.29,2.51,3.52,3.71c1.4-0.99,2.69-2.13,4.01-3.23c0.4,0.57,1.2,1.69,1.61,2.25
		c0.84-1.64,1.81-3.21,2.87-4.7c0.88,2.03,1.67,4.31,3.69,5.52c0.71-0.5,1.41-1.0099,2.1-1.53c0.74,1.14,1.48,2.29,2.23,3.45
		c3.08-2.97,6.42,0.57,9.09,2.33c2.8701,2,6.44,3.1,8.73,5.84c1.41,1.09,0.49,2.62,0.11,3.99c3.17-0.07,6.36-0.2,9.52,0.14
		c0.12,0.75,0.36,2.24,0.48,2.99c2.25,1.96,5.16,2.45,8.06,2.47c0.38,1.24,0.2,2.91,1.54,3.66c4.73,4.0599,10.55,6.6801,14.98,11.12
		c1.93,2.03,3.44,4.47,5.72,6.1899c4.06,2.9,6.66,7.38,10.85,10.16c3.71,2.26,6.14,5.98,9.59,8.5701
		c7.08,6.97,15.48,12.38,23.09,18.74c7.3,5.35,14.0799,11.38,21.51,16.5599c3.03,3,7.19,4.5901,9.87,8
		c2.61,3.4,7.35,3.88,10.11,7.0601c1.22,2,1.61,4.39,2.41,6.59c0.73-0.52,1.46-1.02,2.2-1.51c0.63,1.09,1.14,2.3201,2.03,3.28
		c1.7,2.1799,4.77-0.46,6.83,1.04c1.2,1.34,1.2401,3.1899,1.23,4.8999c1.29,0.3101,2.6,0.66,3.92,1c0.3,1.04,0.6,2.0901,0.92,3.15
		c1.76-0.2999,3.54-0.52,5.34-0.66c0.18,0.63,0.56,1.89,0.75,2.53c0.57,0.2101,1.72,0.64,2.29,0.85
		c0.21,0.5901,0.63,1.77,0.84,2.3501c1.2-0.26,2.41-0.54,3.62-0.77c2.63,3.8099,6.84,5.6899,10.6,8.15
		c1.14,0.24,2.32,0.2699,3.48,0.49c0.5,1,0.95,2.0299,1.38,3.1c0.76-0.16,1.53-0.3101,2.32-0.4401c0.09,1.03,0.2,2.0701,0.31,3.13
		c3.23-0.02,6.48,0.61,9.4,2.04c0.88,1.35,1.24,2.95,1.81,4.47c1.36-0.49,2.76-1.97,4.21-1.5699c0.2,1.46-0.86,2.7999-1.28,4.1899
		c1.85,0.73,3.7,1.48,5.56,2.2101c1.39-0.3501,2.88-1.8401,4.35-1.0801c1.56,1.6801,0.93,4.0601,1.07,6.13
		c1.55,0.99,2.49-0.8199,3.56-1.64c0.37,1.91,0.62,3.86,0.64,5.8301c2.55,0.14,5.12,0.01,7.65-0.37
		c-0.29,2.39-0.94,4.88-0.21,7.2699c1.85,0.9801,3.4-0.9099,4.92-1.7c0.09,2.95,0.22,5.9,0.48,8.85c1.34-1.88,1.99-4.45,4.34-5.34
		c-0.09,1.46-0.19,2.95-0.29,4.4301c1.3,0.4299,2.66,0.7799,3.91,1.45c1.05,2.15,1.55,4.53,2.44,6.77
		c2.63-1.4301,5.37-3.4301,8.64-2.87c-0.02,1.12-0.13,2.25-0.19,3.4c2.26,2.45,2.61,5.8899,4.18,8.74c2.91,0.61,6.27,0.21,8.71,2.26
		c1.02,1.46-0.49,2.84-0.99,4.2c1.44,0.53,2.97,0.58,4.5099,0.52c1.72,0.63,3.47,1.1899,5.26,1.7c-0.58,3.4-2.37,6.37-3.98,9.37
		c1.32-0.62,2.64-1.24,3.97-1.85c-0.27,1.33-0.54,2.6801-0.8,4.03c2.24-0.52,4.51-0.88,6.8-1.12c-0.25,1.39-0.48,2.7999-0.7,4.23
		c1.97-1.26,3.5099-3.03,5.11-4.6901c0.26,0.16,0.78,0.4901,1.05,0.65c-0.58,3.26-2.79,6.14-2.19,9.63
		c0.65,0.1801,1.94,0.55,2.58,0.73c0.17,1.0901,0.35,2.2001,0.54,3.3301c2.99-0.41,5.6-1.9601,8.44-2.8201
		c-0.84,1.89-1.7,3.77-2.5,5.6901c1.69,0.33,3.38,0.7,5.07,1.1c-0.55,0.9301-1.1,1.87-1.64,2.83c-0.35,0.01-1.05,0.02-1.4,0.03
		c-1.63,2.14-3.44,4.13-5.35,6.05c3.35-0.6801,6.83-1.29,10.16-0.13c-1.52,0.47-3.05,0.95-4.35,1.88c2.99,0.39,6.02,0.23,9.01-0.17
		l0.23,0.96c-0.56,0.4701-1.11,0.9501-1.65,1.4501c0.46,0.39,1.39,1.15,1.85,1.5399c-2.28,1.75-5.7,2.75-6.29,5.9401
		c1.89-0.45,3.76-0.98,5.64-1.49c2.33,2.12,4.95-0.24,7.44-0.72c-1.08,1.6399-2.07,3.3999-3.56,4.72c-2.15,1.51-4.78,2.33-6.54,4.37
		c2.12-0.0601,4.2-0.5601,6.19-1.3c2.68,0.85,0.5,3.5801,0.32,5.4c1.32-0.53,2.58-1.63,4.08-1.45c0.12,2.09-0.55,4.11-0.98,6.1499
		c0.48,0.77,0.97,1.55,1.47,2.3501c-1.75,0.5399-3.54,1.02-5.22,1.75c-0.36,1.26-0.41,2.58-0.52,3.9099
		c2.27,0.1801,4.55,0.38,6.84,0.6001c-0.77,1.5599-1.55,3.12-2.32,4.6899c0.7401,0.5701,1.48,1.16,2.2401,1.76
		c-1.3,0.5699-2.56,1.22-3.82,1.85c3.1,0.01,6.5-0.52,9.18,1.4501c-1.83,2.6699-5.29,2.59-8.12,3.2899
		c2.94,1.42,6.31,2.2101,8.78,4.4401c-2.76,2.84-7.35,0.21-10.04,2.84c1.63,0.83,3.2,2.04,5.1,2.22c0.63,0.8101,1.28,1.67,1.94,2.52
		c-1.57,0.4401-3.11,0.9501-4.62,1.54c1.68,1.1,3.5,1.99,5.39,2.71c-1.65,0.3201-3.3,0.65-4.91,1.09
		c-0.8701,0.39-3.55,0.4301-2.55,2.01c3.63,0.8301,7.34,0.1901,10.98-0.22c-1.27,1.99-3.68,1.99-5.78,2.05
		c-1.29,2.5399-3.83,3.59-6.28,4.71c-0.06,2.5601,3.25,3.33,4.8,4.97c-0.99,0.91-1.97,1.8301-2.94,2.76
		c1.5,0.41,2.99,0.8201,4.5,1.27c0.68,1.16,1.39,2.34,2.11,3.51c-2.82,0.03-5.64,0.5699-7.51,2.86c2.67,0.09,5.44-0.0599,7.97,1.01
		c-2.48,0.8199-5.24,1.16-7.25,2.98c2.82,0.24,6.18-0.15,7.84,2.6901c-1.58,1.12-0.9,3.0299-0.91,4.6499
		c-1.95,0.1001-3.9,0.2201-5.84,0.3501c0.46,1.7699,1,3.5599,1.73,5.2699c1.22,0.6101,2.42,1.3401,3.53,2.2101
		c-2.56,0.75-4.91-0.15-6.98-1.6c-0.53,2.1599,2.25,2.9299,3.53,4.1c-0.32,0.73-0.63,1.48-0.94,2.24
		c-0.33,0.0599-0.98,0.16-1.31,0.21c-1.23,0.77-2.46,1.55-3.68,2.36c2.04,0.8301,4.11,1.61,6.2,2.3401
		c-0.88,0.33-1.75,0.6899-2.61,1.0699c0.04,0.34,0.11,1.01,0.15,1.34c-1.43,0.0801-2.86,0.1801-4.27,0.3
		c0.63,1.21,1.31,2.4299,1.75,3.77c-0.76,0.73-1.66,1.26-2.71,1.61c1.99,0.97,3.76,2.34,4.87,4.3099
		c-1.66,0.5701-3.32,1.11-4.98,1.66c-0.42,1.11-1.18,2.16-1.16,3.42c0.9,1.3099,2.5,1.9199,3.78,2.84
		c-1.48-0.16-2.95-0.28-4.42-0.39c-0.81,1.79-1.61,3.61-2.42,5.42c1.61-0.27,3.22-0.54,4.84-0.77c-0.88,0.75-1.75,1.52-2.61,2.3
		c1.66,2.0699,2.81,4.5099,2.39,7.23c-1.6299,0.8999-3.18,1.9199-4.68,3.02c1.4,0.2699,2.81,0.5499,4.23,0.85
		c-0.92,2.74-3.68,3.9299-5.9901,5.2799c2.2,0.8601,4.41,1.7201,6.63,2.5601c-0.53,0.76-1.06,1.54-1.5699,2.34
		c0.61,0.2001,1.8199,0.5901,2.43,0.79c0.39,1.2,0.83,2.4,1.11,3.67c-1.13,1.6599-2.58,3.08-3.9,4.6c1.31,0.22,2.62,0.46,3.94,0.71
		c-0.97,1.09-1.92,2.2001-2.88,3.3101c1.92,0.4399,4.83-0.29,5.48,2.22c-1.35,1.09-2.72,2.22-3.43,3.86
		c1.66-0.42,3.3199-0.9,4.84-1.72c2.26-0.15,4.52-0.4,6.75-0.79c-0.3,0.83-0.6,1.67-0.89,2.53c0.61,1.12,1.22,2.25,1.84,3.41
		c-3.59,5.23-3.59,11.7899-3.12,17.88c0.76,3.2599,0.36,6.86,1.83,9.9099c0.28,4.05,1.29,8.01,1.5699,12.0701
		c1.63,5.8999,1.64,12.11,2.8,18.11c1.64,3.72,0.29,8.08,0.99,12.0399c1.55,6.8201,0.27,13.9601,1.15,20.91
		c1.54,7.14,0.61,14.61,1.03,21.9c1.06,8.64,0.81,17.39,2.31,26c0.16,6.37,0.82,12.71,1.67,19.03
		c1.22,3.1599,0.28,6.6599,1.15,9.9199c0.68,2.99,0.62,6.0701,0.84,9.14c1.51,4.4601,0.71,9.3,1.82,13.88
		c1.24,4.92,0.11,10.13,1.58,15.01c0.48,3.28-0.59,6.9301,1.09,9.97c0.16,5.25,1.8199,10.26,3.49,15.2101
		c0.47,0.87,0.96,1.76,1.46,2.6699c0.46,1.12,0.97,2.28,1.47,3.4401c3.96,6.9199,8.7,13.33,13.24,19.87
		c4.89,8.16,10.19,16.22,17.2399,22.6899c6.6901,5.7001,12.5801,12.6001,20.6602,16.42c5.3699,2.25,11.6499,2.76,17.1699,0.78
		c4.6-2.27,8.85,1.7,12.96,3.33c2.3601,0.21,4.75,0.22,7.13,0.05c4.37-2.01,9.1-3.3401,13.03-6.2201
		c0.9501-0.3899,1.91-0.75,2.89-1.0699c3.84-1.37,8.0601-2.28,11.1699-5.1c3.3101-2.65,5.4501-6.36,8.27-9.4501
		c0.8601-6.7999,2.3601-13.87,0.41-20.63c-0.2101-1.3899-0.37-2.73-0.5399-4.0699c-1.26-2.99-2.0901-6.13-3.0901-9.1899
		c-1.1699-2.52-2.37-5.02-3.5-7.53c-6.3-11.52-15.9099-21.2101-27.37-27.61c-5.0599-3.48-10.6901-6.37-14.73-11.1001
		c-2.99-3.5499-3.5599-8.2699-4.28-12.6599c-1.36-3.0801-0.62-6.55-0.86-9.79c-1.77-16.6-1.29-33.38-0.6899-50.04
		c1.5399-5.1499-0.1801-10.71,1.49-15.8099c0.5-3.27,0.8199-6.5701,1.1499-9.86c0.25-0.3401,0.76-1.02,1.02-1.36
		c0.1801-3.77,2.21-6.9301,4.24-9.9601c0.97,4.11-1.6499,8.15-0.59,12.3301c2.15-2.29,3.03-5.36,4.25-8.16
		c0.58,0.5599,1.1901,1.12,1.8199,1.6899c0.3601,3.2301,2.4301,6.03,4.78,8.17c0.73-1.13,1.39-2.3,2.0701-3.4299
		c2.74,1.1699,5.3699,2.61,7.8799,4.25c-1.6299-3.7401-2.7799-7.78-1.8199-11.8501c1.9501,2.29,3.83,4.67,5.84,6.9401
		c0.4601-2.25-0.99-5.78,0.8601-7.17c1.4099,1.51,2.77,3.1,4.49,4.3c0.22-0.98,0.4399-1.9301,0.6599-2.87
		c1.3501,0.51,2.71,1.0399,4.0901,1.5399c-1.03-2.48-3.3401-4.1399-4.2-6.6799c2.2999,1.22,4.45,2.71,6.6199,4.1799
		c0.02-3.01-0.2-6.0599,0.5601-8.99c2.24,1.2201,4.49,2.4301,6.77,3.6001c0.24-0.3701,0.73-1.1101,0.98-1.4901
		c-1.92-1.7799-3.6101-3.7799-4.78-6.11c0.8301-0.6799,1.6899-1.3199,2.54-1.95c0.6599,0.87,1.35,1.79,2.04,2.7
		c0.46-2.5299-0.1101-5.49,1.47-7.64c0.9399,0.4601,1.86,0.9801,2.78,1.54c0.3999,1.76,0.7,3.53,1.0499,5.34
		c1.4701,4.12,1.9,8.52,3.28,12.6801c2.0099,7.34,4.0099,14.6899,6.0099,22.03c2.3201,10.12,3.3901,20.97,9.01,29.95
		c6.2001,8.97,14.8801,15.79,23.4301,22.38c6.65,5.01,12.04,11.64,19.41,15.6901c1.85,0.9099,3.8,1.6399,5.77,2.3199
		c5.28,2.49,10.1899,5.66,15.23,8.59c2.26,0.9301,4.6,1.6801,7.03,2.0901c4.58,0.98,9.4099,0.6399,13.8699,2.2799
		c4.1602,0.29,8.2001-0.96,12.1001-2.27c6.4299-2.36,10.8101-7.86,14.6899-13.21c4.02-12.65,1.01-26.61-5.1699-38.08
		c-4.53-7.91-11.41-14.3101-19.22-18.91c-1.3501-0.67-2.6801-1.34-3.98-2.02c-3.05-1.7-6.1501-3.28-9.2001-4.96
		c-5.4501-2.98-10.58-7.16-13.3199-12.85c-0.8101-2.49-1.1501-5.1-2-7.5601c0.27-6.8199-2.1901-13.53-2.3401-20.38
		c-1.61-11.03-0.79-22.21-0.97-33.3199c0.9,1.36,1.8,2.72,2.72,4.11c1.0701-1.27,3.16-2.77,1.4399-4.4401
		c-1.9399-2.2999-1.3699-5.2799-0.8499-7.97c0.52,0.41,1.5599,1.22,2.08,1.62l-1.0499,0.4501c1.7899,2.09,3.8198,3.99,6.0499,5.64
		c-0.4401-2.01-1.11-4-1.1801-6.04c0.16-1.9501,2.24-0.47,3.25-0.25c-0.03,2.48,1.39,4.49,2.95,6.2999c1-0.72,2.02-1.4199,3.04-2.1
		c2.8201,1.9501,5.6101,4.0601,8.97,5.02c-2.1599-2.23-4.25-4.53-6.0299-7.0599c1.2001-2.2201,2.5699-4.3401,4.15-6.3
		c0.6599,1.39,1.33,2.8099,2,4.24c0.8799-0.96,1.77-1.89,2.6799-2.8099c1.2,2.9199,2.0801,5.96,2.9399,9.0099
		c1.5901-3.0599-0.2999-6.6599,0.3701-9.9299c0.84,0.13,1.7,0.28,2.5699,0.45c0.38-1.2899,0.77-2.5599,1.27-3.7799
		c0.8199,0.8999,1.61,1.8799,2.41,2.86c0.8899-0.7101,1.83-2.3301,2.8799-0.8501c1.4401,2.15,2.52,4.6101,4.6001,6.3
		c0.26-3.53,0.0801-7.0599-0.16-10.5699c0.67-0.9301,1.53-1.74,1.9901-2.79c-0.4102-1.24-1.01-2.39-1.54-3.54
		c1.03,0.6,2.0699,1.1801,3.1499,1.8c0.47,2.1799,2.9301,3.2999,4.4301,4.84c0.2001-2.23,0.4-4.45,0.6-6.66
		c1.6899,1.02,3.38,2.02,5.1001,3.03c0.3499-1.71,0.6599-3.4199,0.9399-5.11c1.12,0.91,2.24,1.87,3.5,2.66
		c1.4199-1.2001,0.9199-3.03,0.6899-4.5901c1.1301-0.33,2.29-0.61,3.45-0.8899c1.3701,1.8199,2.6901,3.6899,3.9202,5.6399
		c0.0999-4.3199,0.48-8.6399,1.3899-12.86c2.96-0.74,5.65,2.38,8.46,3.3401c0.2201,0.6499,0.4501,1.33,0.6901,2.0299
		c0.83-1.21,2.2999-0.86,3.5599-0.87c-1.3599-2.6499-3.3599-5.49-2-8.5399c2.49,1.84,4.98,3.75,7.8701,4.98
		c-1.3101-1.99-3-3.8101-3.6401-6.13c0.55-1.2001,1.3501-2.26,2.1001-3.3201c0.64-0.1,1.29-0.1699,1.95-0.23
		c0.74-1.1,1.51-2.1599,2.27-3.22c1.13,0.95,2.27,1.9401,3.42,2.92c0.14-2.64,0.24-5.27,0.3099-7.9c1.17,0.91,2.3501,1.84,3.55,2.77
		c-0.15-0.9701-0.28-1.9301-0.4-2.87c1.11,0.22,2.24,0.47,3.39,0.74c0.5701-0.67,1.1699-1.3201,1.77-1.9601
		c-0.15-1.63-0.3-3.2699-0.38-4.88c2.51,2.42,4.26,5.4901,6.6,8.0901c-0.05-1.51-0.0701-2.99-0.0601-4.4601
		c1.8101-2.2899,0-5.21-1.27-7.2899c-1.47-1.4-1.9299-3.36-2.3799-5.22c3.51,0.96,7.22,1.6399,10.29,3.75
		c1.2899,1.0099,2.9299,1.0399,4.52,1.1399c-1.3401-2.2799-2.76-4.5-4.0801-6.76c0.1-0.48,0.3101-1.4399,0.4199-1.9099
		c2.8201,1.51,5.75,2.8099,8.8401,3.72c-1.38-1.66-2.73-3.33-4.04-5.02c1.54,0.26,3.49,2.52,4.8,0.8201
		c-0.7-2.27-2.6101-3.8601-3.75-5.87c0.26-2.4301,3.0699-1.4,4.4199-0.5801c1.79-1.62,4.1901-0.75,6.3201-0.5399
		c0.87-2.8501,2.24-5.4701,3.78-7.9901c0.04-1.48,0.03-2.9399,0.1-4.3999c1.6,1.61,3.21,3.24,4.9,4.7799
		c0.2-1.3199,0.4099-2.62,0.62-3.8999c1.01,0.1799,2.0199,0.37,3.0499,0.5699c-0.4099-3.39-3.71-5.6-3.89-9.16
		c1.2201-1.0599,2.8301-1.02,4.36-1.08c-0.83-1.15-2.1-2.23-1.8099-3.8c4.16,0.5,3.66,5.8201,7.01,7.2101
		c-0.5-1.55-1.04-3.0701-1.5601-4.5801c1.5801-1.72,1.6801-3.7999-0.63-4.9399c1.14-0.17,2.3501-0.46,3.4,0.2999
		c2.72,1.41,6.0601,1.4501,8.29,3.8101c1.49-0.34,2.99-0.7,4.51-1.02c-0.54-1.77-1.0701-3.52-1.59-5.25
		c1.1399-0.24,2.2899-0.47,3.46-0.67c-2.15-2.5199-3.75-5.49-3.79-8.86c2.78,2.62,5.21,5.8401,8.87,7.3
		c-0.63-2.49-2.99-4.76-2.0599-7.42c0.3199,0.25,0.95,0.76,1.27,1.01c0.86,4.4601,4.36,7.91,8.0299,10.3401
		c-1.77-4.3201-5.6599-8.0801-4.89-13.1001c1.99,1.5801,3.13,4.14,5.54,5.23c-0.0699-1.0199-0.14-2.0199-0.21-3.0099
		c1.1699-0.4801,2.2999-2.1101,3.6699-1.3501c1.53,0.3501,3.0601,1.55,4.6901,0.9701c-0.23-1.99-1.54-3.5601-2.23-5.3601
		c0.4-1.7799,1.15-3.45,1.8099-5.1299c2.39,0.8899,4.63,2.62,7.3,2.5499c-0.7001-2.62-2.59-4.66-4.85-6.01
		c-1.0901-2.0399,0.2-3.84,1.4399-5.4c1.38,0.04,2.78,0.0801,4.1801,0.1001c1.22-0.87,2.47-1.7101,3.75-2.5
		c-0.4501-1.5701-0.88-3.13-1.29-4.6801c0.46,0.09,1.39,0.27,1.85,0.35c0.22-0.9199,0.42-1.84,0.61-2.74
		c1.3401,0.5701,2.7001,1.16,4.0801,1.76c-0.66-2.5599-1.12-5.14-1.3301-7.75c2.28,1.55,3.79,3.88,5.4,6.08
		c0.0701-1.2699,0.15-2.5199,0.24-3.75c1.03,0.14,2.0801,0.3101,3.14,0.4801c-1.17-3.3601-3.02-6.4301-4.0599-9.8201
		c1.13,0.49,2.2799,1.01,3.4299,1.55l-0.59,0.9099c1.25,1.4401,2.6799,2.7201,4.29,3.79c-0.2301-1.33-0.4901-2.62-0.6001-3.9299
		c3.03-2.4501,7.1801-2.49,10.8301-3.3301c-1.53-1.9099-4.16-4.03-2.4301-6.64c1.09,0.2101,2.1901,0.42,3.3,0.66
		c-0.3-1.6799-0.61-3.33-0.9601-4.97c2.9,0.39,5.8401,0.5,8.7101-0.27c-1.8301-1.64-3.5701-3.36-5.04-5.3
		c3.0601-1.01,6.1901,0.04,9.2,0.7201c0.0601-0.6801,0.1801-2.03,0.2401-2.7001c0.8199,0.15,2.7999,1.25,2.58-0.48
		c-0.38-3.72-1.54-7.29-2.0601-10.97c4.9801,0.6799,8.87,3.87,13.26,5.98c-1.2-2.46-3.83-3.73-5.15-6.09
		c2.1101-2.7101,6.1201,0.0399,9.01-0.0901c-0.3899-3.45-4.0499-4.98-5.9299-7.5399c2.58-0.4,5.22-0.23,7.75,0.46
		c-1.25-1.42-2.37-2.97-3.01-4.74c1.5599,0.45,3.11,0.96,4.66,1.5c0.8199-0.4399,1.64-0.87,2.49-1.26c1.35,0.23,2.71,0.48,4.08,0.75
		c-1.26-3.76-3.62-8.65-1.04-12.1899c1.64,0.5299,3.1801,1.35,4.7201,2.1599c-0.64-2.01-1.2301-4.0399-1.67-6.08
		c3.6801,1.52,4.73,5.9399,7.85,8.24c0.0601-2.72-0.1-5.48-1.12-8.02c-0.65-2.3099-2.59-4.7999-0.71-7.02
		c3.27,0.92,5.6899,3.8401,8.7999,4.75c1.14-3.2999-2.1799-5.5-3.8199-7.85c2.1801,0.64,4.51,1.1801,6.35-0.5699
		c1.37,0.46,2.76,0.96,4.15,1.47c0.01-0.37,0.04-1.11,0.05-1.48c0.25-0.24,0.76-0.72,1.01-0.9601
		c-1.77-2.9399-2.8301-6.21-3.4501-9.5599c3.23,1.36,3.92,5.2,6.7001,7.12c-0.67-2.33-1.3401-4.66-1.89-7
		c1.33,0.16,2.6899,0.36,4.0499,0.5601c0.78-2.52-1.28-3.91-2.9399-5.3201c1.9399-1.3099,4.12-1.34,6.24-0.37
		c1.0599-0.66,3.2999-1,2.6699-2.75c-0.6399-1.26-1.47-2.4-2.22-3.54c0.99,0,1.97-0.01,2.99,0.01
		c-0.1699-0.9299-0.33-1.85-0.48-2.76c3.13-1.4199,5.89,0.9301,8.6,2.2201c-0.86-2.3301-1.7999-4.6101-2.86-6.8301
		c1.14,0.4301,2.3,0.88,3.47,1.3401c0.7401-1.2401,1.5-2.4601,2.26-3.6801c-0.72-1.85-1.35-3.74-1.87-5.63
		c1.29,0.54,2.5901,1.11,3.9,1.7c0.9-1.4199,1.8101-2.83,2.73-4.23c-0.58-0.96-1.1499-1.9199-1.71-2.86
		c4.0601,2.75,8.8199,1.53,13.25,0.62c-1.38-0.14-2.77-0.27-4.11-0.35c-1.3-1.48-2.37-3.13-2.92-5.01
		c1.62,1.0699,3.16,2.35,4.99,3.13c2.15-1.3101,1.11-4.17,1.12-6.1801c2.15,1.4901,4.41,2.8501,6.78,4.01
		c-1.34-3.84-1.6899-7.8999-1.48-11.9199c2.49-1.01,4,2.2799,5.91,3.4c0.97-2.54-0.5-5-1.1901-7.38c1.5601-0.03,3.14-0.05,4.73-0.04
		c0.89,1.64,1.8,3.28,2.78,4.9c0.79-2.16,0.61-4.48,0.58-6.7201c1.6201,0.25,3.2401,0.4801,4.9,0.7001
		c-2.13-2.89-5.0699-5.0601-7.1699-7.96c1.6599,0.11,3.34,0.2799,5.0199,0.48c-0.2799-1.0701-0.5399-2.12-0.7799-3.16
		c2.1599,0.16,4.33,0.3,6.5,0.37c0.38-1.01,0.7799-2,1.2-2.98c2.37,0.85,4.78,1.6,7.26,2.16c-0.67-3.4901-4.59-4.16-7.4301-5
		c1.04-3.6901,6.13-4.0601,8.3501-1.2301c0.35-0.01,1.0299-0.0399,1.37-0.0499c1.0299,0.51,2.09,1,3.1799,1.5
		c-0.4-2.03-0.85-4.04-1.2899-6.03c0.88,0.13,1.7899,0.27,2.7,0.4301c0.37-1.75,0.1-3.55,0.3199-5.29c1.27-0.47,2.3,1.02,3.4401,1.5
		c0.12-1.5701,0.26-3.11,0.42-4.64c3.5499,1.4401,6.96,0.01,9.9099-2.05c-0.63-0.6699-1.24-1.33-1.83-1.97
		c2.01-1.38,4.34-2.12,6.72-2.63c-1.1799-0.28-2.35-0.5399-3.49-0.7999c-1.49-2.2201-3.3-4.1901-5.4299-5.78
		c-0.03-0.6-0.0801-1.8-0.1001-2.4c2.64,1.5,4.87,3.59,7.3101,5.42c0.6-0.9,1.22-1.78,1.86-2.65c1.2,0.58,2.41,1.17,3.63,1.78
		c-0.88-2.29-2.79-4.89-0.7-7.0701c1.46,1.86,3.0199,3.6801,4.9399,5.11c-0.52-3.5599-2.2-6.7899-2.91-10.2899
		c2.4601,1.33,4.5,3.2899,6.65,5.08c-0.26-1.1899-0.51-2.37-0.74-3.53c0.53,0.04,1.58,0.13,2.11,0.1801
		c-1.79-2.85-4.36-5.23-5.3199-8.53c4.26,1.14,6.12,5.4401,9.35,8.04c1.39-1.73-0.61-3.98-0.89-5.8401
		c0.61-0.61,1.23-1.21,1.88-1.7899c0.91,0.0699,1.85,0.14,2.8,0.23c-1.4-1.1801-2.8601-2.29-4.4901-3.09
		c-0.4399-0.4401-1.33-1.3101-1.7699-1.75c0.35-0.6001,1.0499-1.8101,1.3999-2.41c3.1101,1.6899,5.5701,4.3,7.4801,7.27
		c0.2699-1.51,0.58-2.98,0.8999-4.4501c-1.85-1.75-3.5699-3.6599-4.46-6.0599c2.21,0.1799,4.42,0.4,6.64,0.67
		c-1.6-1.88-1.74-4.29-0.75-6.4801c0.63,1.2001,1.28,2.41,1.9301,3.63c1.35-1.09,2.61-2.2899,3.7999-3.5599
		c-1.15-1.35-2.21-2.77-3.1799-4.22c0.6699-0.5601,1.36-1.1101,2.08-1.64c-0.9401-0.8-1.86-1.5801-2.77-2.37
		c2.42-0.4501,4.91-0.4,7.27,0.4199c1.03-1.46,1.99-2.97,3.21-4.2799c1.47-0.39,3.02-0.4601,4.5601-0.5901
		c-2.9601-1.65-5.23-4.3099-5.79-7.71c2.73,0.89,5.4301,1.9,8.2,2.75c-1.09-1.8201-2.3799-3.48-3.8099-5.01
		c0.2-0.46,0.61-1.37,0.8099-1.8199c-0.6899-1.6001-1.37-3.1801-2.0299-4.76c4.52-1.63,9.5,2.6699,13.48-0.5701
		c0.39-2.41-1.88-4.4399-3.76-5.62c-0.34-0.5599-1.03-1.6799-1.38-2.24c1.16-0.1899,2.4-0.1899,3.54-0.59
		c0.83-1.38,1.5699-2.8101,2.37-4.2101c1.02,1.2101,2.15,2.38,3.47,3.3301c0.0599-2.66-1.1801-4.97-2.65-7.0701
		c0.74,0.0801,1.5,0.1801,2.28,0.3c0.83-3.58,4.8099-2.4,7.52-2.85c-2.05-2.98-5.91-3.0801-8.8-4.78
		c0.5-2.17,3.64-0.03,5.0601,0.4401c1.86-0.39,3.75-0.15,5.59,0.37c-0.9401-1.9501-2.0601-3.79-3.58-5.3101
		c0.5-0.58,1.0199-1.15,1.5499-1.7c1.98,1.7899,3.97,3.59,6.05,5.2799c-0.0601-2.25-1.3201-4.0599-2.7001-5.6899
		c0.63-0.64,1.29-1.26,1.9601-1.87c0.8199,0.12,1.6699,0.25,2.5299,0.4c-0.3999-0.6901-0.7899-1.36-1.1499-2.02
		c-0.2101-1.86-0.4301-3.72-0.41-5.5801c3.33-0.73,6.3,2.05,9.73,1.7401c-1.64-2.2201-3.28-4.4501-4.78-6.75
		c2.2301-0.14,4.4801-0.27,6.74-0.38c-2.83-2.3101-6.21-4.6001-6.7899-8.5c2.2999,0.4199,4.6599,0.5499,6.99,0.11
		c1.26,0.4199,2.5499,0.87,3.84,1.2999c-0.75-1.37-3.02-2.37-2.34-4.15c2.13-0.65,4.37,0.01,6.5499,0.15
		c-0.7999-3.96-6.08-3.8099-7.2999-7.45c1.85,0.96,3.71,1.93,5.64,2.79c0.49-3.09,0.5599-6.25-0.37-9.26
		c3.51-0.03,6.1899,2.94,9.7899,2.42c-0.76-1.56-1.7999-3.14-1.38-4.94c0.3501-2.74-0.6899-5.35-1.34-7.94
		c0.49,0.14,1.48,0.44,1.97,0.58c0.5801-0.67,1.17-1.3199,1.78-1.97c1.36,0.84,2.83,2.14,4.5701,1.49
		c-0.53-0.64-1.5901-1.93-2.13-2.57c1.0699-1.54,2.4099-3.13,4.38-3.45c1.47,0.73,2.84,1.6801,4.25,2.58
		c-0.4501-1.72-2.13-3.48-1.3101-5.27c1-0.46,2.04-0.8799,3.12-1.24c-2.05-2.13-4.67-3.84-5.99-6.55
		c1.1899-1.13,2.83-0.48,4.29-0.55c2.59-0.07,5.14-0.63,7.73-0.83c-0.24-1.08-0.47-2.15-0.67-3.2c0.98,0.11,1.99,0.22,3,0.34
		c-1.59-3.36-6.63-3.69-7.16-7.67c1.67,0.8,3.29,1.73,4.88,2.74c-0.21-1.5-0.3899-2.97-0.5599-4.44c2.37,0.25,5.58,0.22,6.76-2.3
		c1.11-1.59,0.79-3.56,0.72-5.36c-1.03-0.91-2.03-1.81-3-2.73c4.33-0.85,8.74,0.31,13.12-0.17c-2.1799-1.25-4.5699-2.31-6.09-4.38
		c0.5499,0.03,1.65,0.09,2.2,0.12c-0.23-2.12-0.5-4.22-0.88-6.31c0.5901-0.12,1.77-0.37,2.36-0.49c0.02-0.71,0.0701-1.4,0.12-2.09
		c1.3201-0.62,2.66-1.23,4.01-1.83c-0.1-1.54-0.1799-3.07-0.25-4.59c0.3201-0.33,0.9601-0.99,1.28-1.33
		c-0.39-0.83-2.03-1.53-1.3199-2.48c1.27-0.01,2.5399,0.11,3.84,0.21c-0.74-1.94-2.6801-2.7401-4.38-3.59
		c1.1899-0.87,2.96-1.25,3.61-2.7c0.12-1.37-0.24-2.74-0.37-4.08c1.59,0.17,3.22,0.39,4.86,0.44c-0.22-1.53-1.88-2.33-2.7999-3.42
		c2-0.23,4.01-0.58,5.97-1.13c-1.28-2.21-2.55-4.43-3.77-6.66c0.91-0.59,1.83-1.17,2.77-1.74c-1.09-1.44-3.41-2.27-3.54-4.19
		c3.16,0.16,6.15,1.73,9.41,1.37c-1.03-1.94-2.47-3.71-3.01-5.85c1.8-2.45,5.42-2.5,8.26-2.7c-1.0701-2.44-3.25-4.42-3.23-7.2401
		c1.6799,0.15,3.4099,0.3,5.1-0.03c-1.49-0.85-3.01-1.66-4.14-2.94c2.48-0.57,5.03-0.32,7.39,0.71c2.03-0.79,3.21-2.57,4.08-4.4901
		c0.61,0.61,1.24,1.2401,1.89,1.87c3.4501-2.2-2.04-5.3-0.2999-8.23c2.1499,2.12,4.73,3.79,7.8899,2.88
		c-1.62-2.1-3.4099-4.17-4.0399-6.8c1.24-0.12,2.5-0.23,3.77-0.32c-0.12-0.96-0.2301-1.9-0.3201-2.84
		c1.62,2.28,3.52,4.7401,6.72,4.16c-1.2699-2.02-2.5699-4-3.85-5.98c0.9501,0.17,1.91,0.35,2.9,0.53
		c-0.26-1.77-0.5601-4.16-2.9301-3.07c-1.0199-1.22-1.9399-2.52-2.58-3.95c2.21,0.64,4.39,1.44,6.6,2.15
		c-1.49-2.13-3.84-3.43-5.36-5.51c3.04,1,6.11,1.96,9.3,2.48c-1.47-1.55-3.15-2.9-5.11-3.72c-0.39-1.66-0.75-3.32-1.0801-4.96
		c4.9701-0.45,8.9601,2.77,13.1801,4.81c-0.98-5.28-6.84-7.0699-9.8301-11.05c0.8301-1.75,1.6801-3.48,2.5701-5.2
		c2.3099,0.46,4.66,0.91,6.99,1.39c-1.8199-2.58-2.29-5.73-1.48-8.75c1.13,0.63,2.2999,1.28,3.47,1.93
		c-0.47-1.3-0.91-2.59-1.34-3.88c0.45-0.69,0.9299-1.36,1.4299-2.02c-1.59-1.11-2.97-2.46-3.8999-4.14
		c2.36-0.04,4.6699,0.57,6.83,1.53c-0.02-3.19-0.42-6.55-3.5701-8.19c2.29-0.56,4.5701-1.16,6.8601-1.78
		c-1.8201-1.36-3.5701-2.8-5.1801-4.38c3.4401-0.83,6.96-1.25,10.42-2.04c-1.4301-1.28-2.8501-2.54-4.25-3.8
		c3.26-1.55,6.2-3.66,8.9199-6.05c-2.0499-0.29-4.1699-0.45-5.84-1.76c0.95-0.67,1.91-1.33,2.9-1.97c-1.99-1.12-3.99-2.19-6-3.21
		c0.7-1.78,1.7-3.42,2.98-4.85l1.04,0.74c0.51-1.48,1.02-2.97,1.5599-4.45c-1.21-1.16-3.4199-1.75-3.46-3.68
		c1.9299-0.6,3.9299,0.08,5.88,0.37c0.2999-1,0.62-1.99,0.97-2.97c-1.45-0.7-3.3-0.84-4.25-2.24c1.26,0.0699,2.53,0.15,3.8201,0.24
		c-0.0601-1.06-0.1101-2.13-0.1201-3.17c0.4301-0.67,0.88-1.34,1.3601-1.99c-1.29-1.03-3.1101-1.66-3.5901-3.36
		c0.4701-1.43,1.54-2.52,2.4401-3.68c-0.66-0.67-1.17-1.42-1.54-2.25c1.66-1.02,3.66-1.09,5.55-1.44c-0.86-1.41-1.28-2.98-1.25-4.61
		c-1.89-0.96-3.74-1.94-5.53-3.01c2.0599-0.83,4.7-0.62,6.4-2.1c-0.0901-2.13-1.29-3.98-2.05-5.91c0.8-0.43,1.62-0.86,2.4501-1.27
		c-2.3301-1.78-1.1101-4.29,0.6499-5.94c-0.35-1.5-0.6699-2.99-0.99-4.47c0.5801-0.18,1.73-0.53,2.3101-0.71
		c-0.0601-1.64,0.21-3.47-0.9601-4.79c-3.2599-0.17-5.95-2.05-8.8099-3.35c-0.11-0.28-0.34-0.84-0.45-1.1201l0.1599-0.25
		c2.3201,0.21,4.65,0.39,6.99,0.6201l0.04,0.92c1.6901,0.54,3.4401,1.07,5.27,1.09c-0.12-2.52-2.51-3.99-3.92-5.81
		c1.6-0.49,3.24-0.85,4.9401-1.08c1.6599,0.2599,3.4,0.67,5.08,0.04c-1.0599-1.62-2.89-2.53-4.21-3.9
		c2.4099-0.25,4.85-0.34,7.2999-0.39c-0.96-1.69-2.0199-3.32-3.08-4.92c2.05,0.46,4.04,1.22,6.01,2.02
		c-2.05-3.01-5.64-4.45-7.9-7.29c0.75-0.53,1.52-1.06,2.3201-1.58c-0.78-3.82,4.1499-2.68,6.5499-3.33c-1.89-2-4.03-3.73-6.14-5.46
		c1.63,0.08,3.3,0.18,4.9701,0.3c0.2699-0.78,0.5499-1.57,0.8199-2.35c-1.7-1.7599-6.14-0.65-5.8-4.12
		c1.55-1.65,4.2301-0.13,6.2301-0.2c-0.5701-1.0601-1.1101-2.1-1.63-3.14c0.49-1.0599,0.99-2.12,1.5199-3.16
		c-2.2899-0.1699-4.75-0.04-6.6599-1.49c3.34-2.27,7.09-0.7,9.63,1.9199c0.76-3.2699-1.9401-5.0898-4.2201-6.73
		c0.8-0.98,1.65-1.9299,2.4801-2.8999c-2.41-0.21-4.8201-0.26-7.2101-0.1801c-0.26-0.24-0.7999-0.72-1.0599-0.96
		c1.5599-0.4401,3.1-0.88,4.7-1.2999c0.9,1.5199,2.89,0.9299,4.39,1.1299c2.0601-0.08,4.51,0.26,6.0601-1.46
		c-5.7101-1.29-12.05-2.71-16.1101-7.24c2.29-0.23,4.6001-0.37,6.92-0.47c-0.38-0.3301-1.16-0.98-1.54-1.3101
		c2.29-1.09,5.6801-1.46,6.05-4.55c-1.41-0.0599-2.8-0.1099-4.16-0.1499c0.25-0.91,0.52-1.8,0.8201-2.6901
		c-0.54-0.91-2.86-2.23-0.77-2.67c3.01,0.3901,6.08,0.5,9.08-0.1399c0.74-2.23-4.08-1.89-4.27-4.3101c1.2201-1.3,3-1.8,4.5701-2.58
		c-1.63-1.7201-3.2001-3.4801-4.59-5.38c4.1499,0.98,5.61,6.45,9.83,6.84c-1.55-3.96-5-7.1801-5.6901-11.63
		c1.01,0.14,2.04,0.29,3.0901,0.45c-0.8201-2.1399-2.62-3.5599-4.25-5.0299c0.0599-0.36,0.1699-1.09,0.23-1.4501
		c1.8199-0.5499,3.15,1.24,4.72,1.8701c2.12,1.49,4.48,2.5898,6.86,3.6499c0.23-0.35,0.6901-1.0699,0.92-1.4199
		c-3.96-2-5.62-6.3201-6.98-10.25c2.83,0.47,5.47,1.6299,8.0499,2.8799c-0.75-1.48-1.49-2.96-2.1899-4.4299
		c1.36-0.3401,2.75-0.6799,4.1699-1c-1.86-0.5701-3.6799-1.1699-5.49-1.8c-0.5199-1.71-1.34-3.5-0.58-5.27
		c1.77,0.8701,3.59,1.74,5.63,1.78l-0.8101-0.85c0.9801-2.62,0.9401-5.41,0.9901-8.15c2.3999-2.48,7.1899-1.3999,8.6899-5.09
		c-1.74-0.58-3.46-1.16-5.16-1.74c1.16-0.53,2.3201-1.0599,3.52-1.5699c-0.0599-0.41-0.1799-1.22-0.24-1.6201
		c1.61,0.1801,3.26,0.3801,4.91,0.5701c0.0399-1.79,0.33-3.77-1.13-5.0901l0.21-1.01c0.61-0.0199,1.84-0.0499,2.4501-0.0698
		c-1.3101-2.28-2.8501-4.4102-4.7101-6.25c0.67-0.02,2-0.0701,2.67-0.0901c2.25,1.6599,4.64,3.12,7.01,4.62
		c0.0499-2.52,0.4-5.0699-0.29-7.5299c1.53-0.1602,3.08-0.3101,4.66-0.4601c-1.72-2-3.74-3.8199-4.8301-6.25
		c0.17-1.25,1.6001-1.2999,2.52-1.8099c1.01,0.71,2.0601,1.4299,3.12,2.1399c0.12-1.1799,0.27-2.35,0.4401-3.51
		c0.97,0.01,1.96,0.04,2.97-0.08c0.29-1.47,0.05-2.97,0.05-4.4401c1.7799,1.4601,3.51,3.0701,5.6499,4.05
		c-1.0499-3.12-2.49-6.08-3.96-9.01c1.3201-0.6,2.65-1.2,4.01-1.79c0.52-0.7999,1.0601-1.5898,1.63-2.3799
		c1.66,0.8099,3.39,1.54,5.16,2.1699c-0.35-1.1599-0.6901-2.3101-1.01-3.4399h-1.15c0.1-0.9301,0.3-2.8,0.39-3.73
		c2.28,0.5699,4.53,1.29,6.76,2.09c-1.77-2.74-4.16-4.9801-6.02-7.63c1.61-0.16,3.25-0.3,4.9-0.4299
		c0.1699-0.6001,0.5-1.78,0.6699-2.3801c0.63-0.24,1.89-0.72,2.52-0.96c-1.22-0.4299-2.4199-0.84-3.63-1.22
		c-0.49-0.78-0.96-1.5601-1.4-2.3201c1.77-1.48,3.6901-2.9099,6.1101-3c1.87,0.2001,2.34-1.6799,2.86-3.0699
		c-1.6801-1.34-3.5901-2.35-5.2101-3.75c0.51-0.9701,1.0701-1.91,1.6801-2.83c2.2,0.08,4.39,0.4199,6.62,0.5499
		c-2.48-2.63-4.9-5.45-5.48-9.14c2.08-0.58,5.5699,0.8,6.38-2.03c-1.47-0.9399-2.9-1.9199-4.25-2.97c2.03-0.8,4.02-1.74,6.1-2.46
		c0.12-1.3401,0.26-2.6799,0.42-4.01c0.6-0.14,1.7999-0.4299,2.3999-0.5701c-0.0299-1.0299-0.0699-2.0499,0.0701-3.0499
		c0.29-2.09,2.7999-1.61,4.3099-2.1801c-1.83-1.1599-3.62-2.3699-5.38-3.6c0.7201-0.16,1.4501-0.3099,2.2001-0.45
		c0-0.4501,0-1.35,0-1.8c-2.8101-0.2-6.2001-0.7699-5.88-4.35c4.9399-0.02,8.41,4.26,12.8099,5.5
		c0.78-3.11-2.6899-5.1799-3.76-7.8401c0.2201-0.23,0.66-0.6799,0.88-0.9099c2.27,1.8,4.27,4.05,7.05,5.13
		c-0.08-4.27-3.78-7.08-5.08-10.9401c3.48,0.75,6.88,1.8701,10.39,2.5601c-2.1901-2.55-5.41-3.85-7.77-6.21
		c4.5699-1.52,8.9099,2.1299,13.4,1.2999c-1.8401-3.2999-7.1201-4.22-7-8.6899c2.2699,0.2999,4.5399,0.5599,6.84,0.7699
		c0.34-1.2,0.7-2.3899,1.08-3.5699c2.11,0.4601,4.21,0.99,6.34,1.49c-0.75-2.58-3.7899-2.97-5.8099-4.14
		c0.3099-1.1199,0.62-2.23,0.98-3.3199c1.0601-0.4601,2.13-0.91,3.23-1.36c-1.48-2.4301-3.2899-4.6801-4.37-7.3301
		c1.37,0.91,2.41,2.3101,3.91,3.0601c1.22-0.55,1.36-2.48,2.11-3.6c1.01,1.24,2.14,2.42,3.7,2.97
		c-0.3899-3.91-1.2899-7.77-1.45-11.7101c-0.29-0.3499-0.86-1.0499-1.15-1.3999c2.64-0.03,5.11,0.9399,7.52,1.9199
		c-0.53-0.7799-1.04-1.5699-1.53-2.3499c0.62-0.77,1.27-1.54,1.9501-2.3c0.97-0.3301,3.59,0.9099,3.36-0.78
		c-2.77-2.1699-5.9501-3.86-8.0701-6.75c3.9501-1.9199,8.6101,0.3301,12.53-1.99c-0.7999-1.0601-1.59-2.12-2.36-3.17
		c-0.0699-1.13-0.13-2.25-0.16-3.36c1.9601-0.23,4.2201-0.11,5.65-1.76c-1.9399-0.3101-3.88-0.45-5.75-0.9299
		c-2.6-1.24-4.52-3.5-6.13-5.8101c4.4501-0.8101,9.03-0.38,13.53-0.88c0-0.65-0.02-1.95-0.03-2.6c-1.7999-0.03-3.96,0.85-5.4-0.6
		c-0.47-0.86-0.89-1.7301-1.26-2.62c1.51,0.5699,3.01,2.23,4.7201,1.6299c0.5599-3.46-2.99-5.7599-4.73-8.3298
		c2.58,0.0299,5.1799-0.03,7.75-0.51c-0.5901-0.9601-1.1901-1.9102-1.75-2.8601c1.9299-0.76,3.98-1.22,6.0399-1.59
		c-1.2999-0.76-2.5599-1.7001-4.11-1.7001c-1.25-1.3099-1.96-2.9299-2.28-4.6699c1.3501-0.21,2.76-0.4,4.16-0.5801
		c-0.2-1.71-0.36-3.4199-0.53-5.1199c-1.1699-1.27-2.64-2.6101-1.61-4.4301c3.15,1.52,5.66,3.9401,7.98,6.52
		c1.26,1,2.28-1.1801,1.8301-2.2301c-0.6901-2.7799-1.5701-5.5199-1.8101-8.3799c1.36,0.3,2.77,0.62,4.17,0.95
		c-1.7101-1.08-3.35-2.24-4.89-3.51c0.14-1,0.3199-1.99,0.52-2.97c-1.14-1.78-1.6801-3.79-1.52-5.89
		c3.98,1.6801,6.74,4.9501,8.64,8.74c-0.05-4.99-2.0701-9.58-3.89-14.12c0.5699,0.1001,1.71,0.3,2.28,0.41
		c2.13,1.95,4.2999,3.91,6.6899,5.59c-0.22-1.47-0.47-2.9399-0.64-4.3999c3.0701,0.1099,4.92,3.1299,7.9601,3.2699
		c-2.42-3.2-5.74-5.59-8.12-8.83c2.09-3.04,5.6399-2.72,8.71-1.41c0.78-0.7999,1.58-1.59,2.4-2.38
		c0.86,0.14,1.74,0.29,2.6499,0.4399c0.29-0.3398,0.88-1.0299,1.1801-1.3699c-1.61-0.52-3.25-0.8-4.91-0.77
		c-0.45-3.3101,0.62-6.5801,0.23-9.89c2.51,3.0199,4.3,6.67,6.4901,9.98c0.1899-0.2101,0.58-0.61,0.7699-0.8099
		c-0.6599-1.9401-1.1699-3.92-1.45-5.9301c2.02,1.51,3.9,3.21,5.6899,5.02c-0.1-1.42-0.1599-2.83-0.2-4.2401
		c-1.76-1.8699-3.46-3.7899-5.08-5.7699c0.4399-0.24,1.3199-0.7301,1.76-0.9701c3.39,1.6301,7.09,2.28,10.74,3.1301
		c2.2999,0.48,4.75,1.7,7.08,0.53c-2.47-2.2301-5.08-4.4901-6.3-7.6801c2.41,0.36,4.8201,0.73,7.27,0.96
		c-1.61-0.96-3.27-1.83-4.8999-2.6901c3.1499-0.3599,6.2899,1.3401,9.3799,0.0801c4.8201,1.2,9.77,1.3101,14.7201,0.99
		c4.0599-1.5701,8.25-2.88,12.14-4.87c7.0198-4.1,13.5198-9.61,16.8499-17.2101c0.6802-2.4299,2.0901-4.5499,4-6.21
		c-0.5498-3.04,2.0303-5.03,3.3901-7.4099c2.3999-3.8301,3.8501-8.16,4.7998-12.5601
		C1825.8007,291.1036,1828.9506,290.0936,1827.1205,287.9835z M1431.2706,364.5936c1-0.91,2.09-1.74,3.1899-2.5701
		c0.13-0.36,0.4-1.0699,0.53-1.4199c0.89-0.6801,1.7999-1.3401,2.75-1.97c0.01-0.4601,0.02-1.3801,0.03-1.8401
		c1.1399-1.0601,2.5499-0.76,3.9299-0.38c0.0801-1.1801,0.15-2.36,0.3301-3.52c2.3899-2.59,4.6899-5.36,5.6299-8.85
		c-0.61-1.0701-1.21-2.13-1.7999-3.1799c0.54-0.05,1.64-0.16,2.1799-0.2101l1.9501-0.22c0.24,0.08,0.72,0.25,0.96,0.33
		c0-2.1899-0.01-4.3799,0.04-6.5599c1.9299,1.0699,3.87,2.1801,5.84,3.24c0.09-3.33-2.01-6.16-2.37-9.41
		c0.65-0.22,1.95-0.6599,2.6-0.87c0.41-0.13,1.24-0.38,1.66-0.51c0.8101,0.4601,1.59,0.9701,2.4301,1.4701
		c0.7-0.6401,1.4399-1.25,2.22-1.8301c1.91,0.77,3.34,2.3301,4.7899,3.75c0.7101,0.71,1.4301,1.41,2.17,2.11
		c0.34-0.09,1-0.26,1.34-0.35c-0.08-1.11-0.1499-2.22-0.21-3.3201c1.9401,0.5801,3.79,1.6301,4.92,3.3901
		c1.08,1.51,1.99,3.1299,2.9199,4.76c-1.26,0.3999-2.5,0.7999-3.73,1.2c1.09,1.0599,2.22,2.12,3.3,3.22
		c0.5699,0.64,1.72,1.9099,2.2899,2.55c-2.21,0.98-4.4099,0.4399-6.4099-0.7001c-0.11-0.1801-0.3101-0.5399-0.41-0.72
		c-0.13,0.75-0.39,2.25-0.52,3c0.88,1.49,1.77,3,2.64,4.5299c-0.4299-0.0699-1.29-0.1899-1.72-0.25
		c-1.01,0.1501-3.03,0.4401-4.04,0.5801c0.73,0.8201,1.51,1.65,2.3,2.47l0.9399,1.3401c-0.73-0.01-2.1899-0.02-2.9199-0.03
		c1.08,2.25,1.9199,4.6,2.45,7.04c0.14,0.6699,0.4301,2.02,0.58,2.6899c-1.5299-0.35-3.0199-0.6899-4.51-1.03
		c-0.0699,1.0901-0.12,2.1801-0.1599,3.28c-0.1801-0.12-0.53-0.35-0.7001-0.47c-0.9199,0.02-2.74,0.0599-3.6599,0.08
		c1.99,2.85,4.13,5.65,6.8899,7.83l0.6101,0.55c-0.0801,0.46-0.24,1.38-0.3301,1.8401c-0.97-0.26-1.9199-0.51-2.85-0.76
		c-0.16,0.75-0.48,2.24-0.64,2.99c-1.88-1.27-3.9199-2.27-6.0699-2.92c0.0699,0.59,0.21,1.76,0.2799,2.34l1,0.72
		c0.55,1.1801,0.9601,2.41,1.42,3.65c-2.87,0.0699-5.72,0.09-8.5599,0.27c1.47,1.33,3.1799,2.36,5.09,3.01
		c1.72,0.62,3.27,1.64,4.71,2.7899c-1.41,0.25-2.8099,0.51-4.1899,0.75c1.0399,0.8301,2.09,1.6602,3.15,2.5
		c-0.8301,0.7101-1.65,1.4301-2.4601,2.1401c-0.28,0.22-0.83,0.6799-1.11,0.8999c0.6801,0.0701,2.03,0.2,2.7,0.26
		c-1.2999,1.71-2.87,3.2-4.9199,3.95c1.03,0.7301,2.1,1.4601,3.16,2.2001c-0.8601,3.0699-2.9,5.5-5.13,7.67
		c1.38,0.1299,2.7799,0.26,4.2,0.3899c0.33,1.23,0.6899,2.4701,1.0699,3.7001c-1.0299,0.11-2.1,0.2001-3.09,0.3099
		c0.35,1.8101,0.71,3.6301,1.12,5.4501c-1.21-1.4701-2.35-2.99-3.7899-4.2201c-1.1101,0.25-2.2001,0.54-3.26,0.8701
		c0.0699,1.75,0.2799,3.51,0.6,5.26c-0.48,1.22-0.9501,2.45-1.39,3.6799c-0.65-0.1799-1.9401-0.54-2.59-0.72
		c0.3099-1.04,0.64-2.0601,0.99-3.0801c-1.98,0.27-3.9301,0.8201-5.92,0.6801c-3.16-0.49-5.49-2.85-7.9299-4.6801
		c-0.7401,2.3401-1.04,4.77-1.3501,7.1901c-1.02-2.7899-1.83-5.7101-3.59-8.14c-0.22,1.6799-0.39,3.38-0.54,5.0801
		c-1.99,0.7999-3.97,1.6099-5.9399,2.3999c-0.03-2.8999,2.98-3.96,4.97-5.3999c-1.83-1.25-3.65-2.51-5.29-3.9701
		c-1.34-1.99-2.59-4.0399-3.86-6.0599c-1.51-0.1201-2.98-0.25-4.4399-0.3301l-2.01-0.0499c1.88-0.6801,3.72-1.4801,5.53-2.38
		c0.83-0.47,1.6599-0.9399,2.51-1.42c0.0499-1.38,0.11-2.75,0.2-4.11c-1.7-0.1-3.39-0.2-5.05-0.29
		c0.42-0.3899,1.26-1.1699,1.6801-1.5599c-0.29-1.09-0.5601-2.17-0.8-3.25c1.4801,0.38,3.02,0.7799,4.53,1.1801l0.03-0.8501
		c0.02-2.3101,0.21-4.6,0.42-6.8999c1.23-0.6501,2.49-1.28,3.72-2l0.34-0.78c-2.8-2.2001-4.34-5.3401-4.1-8.9301
		c1.78-1.8099,3.87-3.86,2.33-6.5499C1428.5106,367.3336,1429.8806,365.9536,1431.2706,364.5936z"/>
	<path d="M1489.5505,274.1836c-1.38-0.16-3.2,2.01-1.3099,2.6801C1490.0306,277.6736,1492.3906,273.9035,1489.5505,274.1836z"/>
	<path d="M1458.0505,411.0135c0.39-1.97-2.1-2.23-2.9299-0.8l-0.0601,0.7201
		C1455.7206,411.7835,1457.7206,412.6535,1458.0505,411.0135z"/>
</g>
</svg>
