<?xml version="1.0" encoding="UTF-8" standalone="no"?> <!-- Created with Vectornator for iOS (http://vectornator.io/) --><!DOCTYPE svg PUBLIC "-//W3C//DTD SVG 1.1//EN" "http://www.w3.org/Graphics/SVG/1.1/DTD/svg11.dtd">
<svg height="100%" style="fill-rule:evenodd;clip-rule:evenodd;stroke-linecap:round;stroke-linejoin:round;" xmlns:xlink="http://www.w3.org/1999/xlink" xmlns="http://www.w3.org/2000/svg" xml:space="preserve" width="100%" xmlns:vectornator="http://vectornator.io" version="1.1" viewBox="0 0 400 200">
<metadata>
<vectornator:setting key="DisplayWhiteBackground" value="0"/>
<vectornator:setting key="RulersVisible" value="1"/>
<vectornator:setting key="SnapToEdges" value="0"/>
<vectornator:setting key="Units" value="Pixels"/>
<vectornator:setting key="DynamicGuides" value="0"/>
<vectornator:setting key="SnapToPoints" value="0"/>
<vectornator:setting key="CMYKEnabledKey" value="0"/>
<vectornator:setting key="SnapToGrid" value="0"/>
<vectornator:setting key="SnapToGuides" value="1"/>
<vectornator:setting key="GridSpacing" value="36"/>
</metadata>
<defs/>
<g id="Layer 1" vectornator:layerName="Layer 1">
<path stroke="#000000" stroke-width="1.58" d="M49.2127+128.697C60.7632+107.095+57.6901+75.0526+56.0067+51.494C55.3371+42.124+50.5636+23.7238+59.2007+16.5042C76.9249+1.68885+112.858+13.7696+134.643+14.4875C164.839+15.4827+195+14.1928+225.249+15.1311C254.806+16.048+284.103+17.2659+313.696+16.3017C330.957+15.7392+348.461+14.6334+365.646+13.4438C374.667+12.8194+385.054+9.81463+389.003+21.0305C396.688+42.8533+387.493+70.3124+386.329+92.4989C385.363+110.93+387.755+129.509+389.993+147.722C391.303+158.383+397.318+174.241+391.483+184.626C382.242+201.073+360.97+196.123+345.284+195.758C298.953+194.679+252.697+189.266+206.257+187.94C174.71+187.039+142.686+184.363+111.108+186.247C98.4861+187+80.1547+193.866+67.6444+188.783C64.1358+187.357+60.5063+186.479+58.0815+183.226C52.7041+176.014+55.5151+147.144+60.4125+142.316L62.3169+143.355C62.1755+144.459+61.8462+145.555+61.8929+146.668C62.0014+149.251+61.6721+151.738+61.5956+154.311C61.5197+156.863+58.2824+176.832+61.2226+180.085C65.8694+185.227+76.9242+185.104+83.391+184.458C103.267+182.475+122.683+179.799+142.851+180.307C190.935+181.518+239.157+181.947+287.119+185.732C301.77+186.888+316.451+188.849+331.108+189.634C340.095+190.115+349.36+189.136+358.285+190.42C367.285+191.714+381.558+191.943+386.623+182.682C390.264+176.022+387.169+168.86+386.258+161.908C383.942+144.239+381.399+126.8+380.386+108.953C379.491+93.2064+380.61+76.4437+383.458+60.9541C385.452+50.1104+389.69+31.6648+384.702+21.6283C380.143+12.4578+347.953+18.4878+338.675+18.9954C312.009+20.4543+284.57+22.6209+257.895+21.3814C237.215+20.4205+216.714+18.9194+195.983+19.3413C166.701+19.9373+134.275+21.6976+105.328+16.6312C95.9143+14.9837+75.9376+9.61176+67.0228+15.4521C54.7345+23.5025+58.4408+37.6427+59.3012+51.494C60.8436+76.3253+63.8826+106.901+51.2521+129.571" fill="#000000" stroke-linecap="butt" opacity="1" stroke-linejoin="round"/>
<path stroke="#000000" stroke-width="1.58" d="M51.208+128.766C46.8942+137.499+37.4297+147.141+29.3971+152.855C27.555+154.165+17.7947+157.522+17.1285+159.459C16.7759+160.483+16.3794+157.329+16.5529+156.26C16.5913+156.023+24.5904+153.499+25.624+153.246C36.7198+150.534+46.4641+146.093+57.8204+144.762L58.6292+147.189C55.9335+149.417+30.2139+155.653+26.8866+156.402C24.9379+156.841+19.3558+160.69+17.6893+159.669C16.6652+159.041+16.0739+157.89+15.2852+156.985C14.3284+155.885+17.864+155.611+19.0573+154.775C22.1252+152.625+25.6026+151.266+28.6937+148.91C35.8383+143.465+44.694+135.396+49.2569+127.79" fill="#000000" stroke-linecap="butt" opacity="1" stroke-linejoin="round"/>
<path stroke="#000000" stroke-width="1.58" d="M29.0966+153.474C26.1032+155.249+21.8859+157.102+19.438+158.41C19.1469+158.565+18.7587+159.25+18.6114+158.954C17.2881+156.3+28.7395+153.304+28.7479+154.673C28.7538+155.644+18.417+159.11+18.3926+157.943C18.347+155.768+26.5625+152.874+28.8468+153.372C32.7745+154.229+20.2605+158.424+18.6187+157.655C17.3233+157.048+21.2425+156.503+22.6011+156.056C25.9541+154.95+26.0345+154.02+28.5581+155.192C29.7626+155.752+25.9839+155.981+24.8747+156.711C24.0202+157.274+20.0838+159.229+19.2328+158.781" fill="#000000" stroke-linecap="butt" opacity="1" stroke-linejoin="round"/>
<path stroke="#000000" stroke-width="1.58" d="M20.1413+157.382C18.7211+158.302+17.764+158.809+16.7839+157.594C16.7474+157.549+16.7209+157.485+16.7319+157.428C16.8156+156.994+18.4806+157.664+18.0514+157.558C16.5394+157.186+17.3559+158.044+18.1974+158.327C19.4486+158.749+19.6149+155.892+20.8249+155.364C23.6279+154.141+26.4685+152.707+28.9717+151.252L28.9717+152.71C26.3441+151.182+21.8156+159.064+18.0095+159.122C16.5078+159.145+16.2205+156.573+17.4325+156.058C18.1914+155.735+18.6106+156.638+18.4311+157.21C18.3747+157.39+16.1257+158.198+19.724+156.965" fill="#000000" stroke-linecap="butt" opacity="1" stroke-linejoin="round"/>
</g>
</svg>
