<?xml version="1.0" encoding="UTF-8" standalone="no"?> <!-- Created with Vectornator for iOS (http://vectornator.io/) --><!DOCTYPE svg PUBLIC "-//W3C//DTD SVG 1.1//EN" "http://www.w3.org/Graphics/SVG/1.1/DTD/svg11.dtd">
<svg height="100%" style="fill-rule:evenodd;clip-rule:evenodd;stroke-linecap:round;stroke-linejoin:round;" xmlns:xlink="http://www.w3.org/1999/xlink" xmlns="http://www.w3.org/2000/svg" xml:space="preserve" width="100%" xmlns:vectornator="http://vectornator.io" version="1.1" viewBox="0 0 600 200">
<metadata>
<vectornator:setting key="DisplayWhiteBackground" value="0"/>
<vectornator:setting key="RulersVisible" value="1"/>
<vectornator:setting key="SnapToEdges" value="0"/>
<vectornator:setting key="Units" value="Pixels"/>
<vectornator:setting key="DynamicGuides" value="0"/>
<vectornator:setting key="SnapToPoints" value="0"/>
<vectornator:setting key="CMYKEnabledKey" value="0"/>
<vectornator:setting key="SnapToGrid" value="0"/>
<vectornator:setting key="SnapToGuides" value="1"/>
<vectornator:setting key="GridSpacing" value="36"/>
</metadata>
<defs/>
<g id="Layer 1" vectornator:layerName="Layer 1">
<path stroke="#000000" stroke-width="1.58" d="M53.8499+130.177C71.8783+108.574+69.2411+75.0526+66.6135+51.494C65.5685+42.124+65.4551+24.5131+71.599+16.5042C83.6767+0.760093+155.349+13.7696+189.351+14.4875C236.484+15.4827+283.559+14.1928+330.772+15.1311C376.907+16.048+422.634+17.2659+468.824+16.3017C495.766+15.7392+523.086+14.6334+549.91+13.4438C563.99+12.8194+580.203+9.81463+586.367+21.0305C591.432+30.247+592.496+43.8075+590.228+57.3898C587.337+74.6942+587.296+83.2789+586.731+97.9678C586.102+114.321+587.779+127.739+589.456+144.93C590.51+155.734+599.344+174.241+590.237+184.626C575.813+201.073+542.611+196.123+518.128+195.758C445.813+194.679+373.615+189.266+301.13+187.94C251.89+187.039+201.906+184.363+152.618+186.247C132.917+187+104.305+193.866+84.7782+188.783C79.3018+187.357+73.6368+186.479+69.8521+183.226C61.4588+176.014+65.8462+147.144+73.4904+142.316L76.4627+143.355C76.2421+144.459+75.728+145.555+75.801+146.668C75.9704+149.251+75.4564+151.738+75.337+154.311C75.2186+156.863+70.1656+176.832+74.7547+180.085C82.0077+185.227+99.2623+185.104+109.356+184.458C140.38+182.475+170.684+179.799+202.164+180.307C277.215+181.518+352.481+181.947+427.342+185.732C450.209+186.888+473.124+188.849+496.001+189.634C510.029+190.115+524.49+189.136+538.421+190.42C552.468+191.714+577.038+191.234+584.943+181.972C590.627+175.313+587.755+165.431+586.102+158.348C583.167+145.769+581.393+129.295+580.861+111.386C580.38+95.2124+581.49+80.8047+583.167+64.6328C584.331+53.4115+590.034+33.1363+579.652+21.6283C571.878+13.01+522.293+18.4878+507.812+18.9954C466.191+20.4543+423.363+22.6209+381.728+21.3814C349.449+20.4205+317.452+18.9194+285.094+19.3413C239.389+19.9373+188.778+21.6976+143.596+16.6312C128.903+14.9837+97.7225+9.61176+83.8079+15.4521C64.6279+23.5025+70.4129+37.6427+71.7558+51.494C74.1632+76.3253+78.4174+106.859+58.7033+129.53" fill="#000000" stroke-linecap="butt" opacity="1" stroke-linejoin="round"/>
<path stroke="#000000" stroke-width="1.58" d="M59.1236+128.766C52.3904+137.499+37.6179+147.141+25.0804+152.855C22.2053+154.165+6.97102+157.522+5.9311+159.459C5.38083+160.483+4.76189+157.329+5.03273+156.26C5.09265+156.023+17.5779+153.499+19.1912+153.246C36.5099+150.534+51.7192+146.093+69.4445+144.762L70.7069+147.189C66.4994+149.417+26.3552+155.653+21.1618+156.402C18.1203+156.841+9.40756+160.69+6.80644+159.669C5.20795+159.041+4.28508+157.89+3.05407+156.985C1.56061+155.885+7.07917+155.611+8.94167+154.775C13.7302+152.625+19.1578+151.266+23.9825+148.91C35.134+143.465+48.9563+135.396+56.0783+127.79" fill="#000000" stroke-linecap="butt" opacity="1" stroke-linejoin="round"/>
<path stroke="#000000" stroke-width="1.58" d="M24.6114+153.474C19.9392+155.249+13.3567+157.102+9.53584+158.41C9.08155+158.565+8.47553+159.25+8.24576+158.954C6.18017+156.3+24.0541+153.304+24.0671+154.673C24.0764+155.644+7.94231+159.11+7.90416+157.943C7.83305+155.768+20.6561+152.874+24.2214+153.372C30.352+154.229+10.8197+158.424+8.25703+157.655C6.23515+157.048+12.3523+156.503+14.4729+156.056C19.7064+154.95+19.8319+154.02+23.7709+155.192C25.6509+155.752+19.753+155.981+18.0216+156.711C16.688+157.274+10.5438+159.229+9.21555+158.781" fill="#000000" stroke-linecap="butt" opacity="1" stroke-linejoin="round"/>
<path stroke="#000000" stroke-width="1.58" d="M10.6337+157.382C8.41685+158.302+6.92309+158.809+5.39327+157.594C5.33634+157.549+5.29493+157.485+5.31211+157.428C5.44281+156.994+8.04157+157.664+7.3717+157.558C5.01164+157.186+6.2861+158.044+7.59945+158.327C9.55249+158.749+9.81194+155.892+11.7007+155.364C16.0757+154.141+20.5094+152.707+24.4164+151.252L24.4164+152.71C20.3151+151.182+13.2469+159.064+7.3062+159.122C4.96239+159.145+4.51393+156.573+6.40566+156.058C7.59019+155.735+8.24447+156.638+7.9642+157.21C7.87627+157.39+4.36595+158.198+9.9823+156.965" fill="#000000" stroke-linecap="butt" opacity="1" stroke-linejoin="round"/>
</g>
</svg>
